<?xml version="1.0" encoding="UTF-8" standalone="no"?>
<!DOCTYPE svg PUBLIC "-//W3C//DTD SVG 1.1//EN"
 "http://www.w3.org/Graphics/SVG/1.1/DTD/svg11.dtd">
<!-- Generated by graphviz version 2.40.1 (20161225.0304)
 -->
<!-- Title: source tree Pages: 1 -->
<svg width="1709pt" height="1199pt"
 viewBox="0.00 0.00 1709.03 1198.70" xmlns="http://www.w3.org/2000/svg" xmlns:xlink="http://www.w3.org/1999/xlink">
<g id="graph0" class="graph" transform="scale(1 1) rotate(0) translate(4 1194.7)">
<title>source tree</title>
<polygon fill="#ffffff" stroke="transparent" points="-4,4 -4,-1194.7 1705.0306,-1194.7 1705.0306,4 -4,4"/>
<!-- collection_active -->
<g id="node1" class="node">
<title>collection_active</title>
<ellipse fill="none" stroke="#000000" cx="105.6442" cy="-1151" rx="70.6878" ry="18"/>
<text text-anchor="middle" x="105.6442" y="-1147.3" font-family="Times,serif" font-size="14.00" fill="#000000">collection_active</text>
</g>
<!-- collection -->
<g id="node2" class="node">
<title>collection</title>
<ellipse fill="none" stroke="#000000" cx="65.6442" cy="-675" rx="45.4919" ry="18"/>
<text text-anchor="middle" x="65.6442" y="-671.3" font-family="Times,serif" font-size="14.00" fill="#000000">collection</text>
</g>
<!-- collection_active&#45;&gt;collection -->
<g id="edge1" class="edge">
<title>collection_active&#45;&gt;collection</title>
<path fill="none" stroke="#000000" d="M101.3317,-1132.9215C90.1853,-1060.541 67.3594,-791.3296 64.6076,-703.1571"/>
<polygon fill="#000000" stroke="#000000" points="68.1052,-703.0112 64.3704,-693.0966 61.1072,-703.1763 68.1052,-703.0112"/>
</g>
<!-- interface -->
<g id="node3" class="node">
<title>interface</title>
<ellipse fill="none" stroke="#000000" cx="144.6442" cy="-833" rx="41.6928" ry="18"/>
<text text-anchor="middle" x="144.6442" y="-829.3" font-family="Times,serif" font-size="14.00" fill="#000000">interface</text>
</g>
<!-- collection_active&#45;&gt;interface -->
<g id="edge2" class="edge">
<title>collection_active&#45;&gt;interface</title>
<path fill="none" stroke="#000000" d="M107.8527,-1132.9918C114.3265,-1080.2055 133.2941,-925.547 141.162,-861.3931"/>
<polygon fill="#000000" stroke="#000000" points="144.6681,-861.5566 142.4115,-851.2048 137.7202,-860.7044 144.6681,-861.5566"/>
</g>
<!-- test_pitch_train -->
<g id="node4" class="node">
<title>test_pitch_train</title>
<ellipse fill="none" stroke="#000000" cx="343.6442" cy="-992" rx="65.7887" ry="18"/>
<text text-anchor="middle" x="343.6442" y="-988.3" font-family="Times,serif" font-size="14.00" fill="#000000">test_pitch_train</text>
</g>
<!-- collection_active&#45;&gt;test_pitch_train -->
<g id="edge3" class="edge">
<title>collection_active&#45;&gt;test_pitch_train</title>
<path fill="none" stroke="#000000" d="M131.1143,-1133.9842C174.3515,-1105.0989 262.0899,-1046.4838 310.2104,-1014.336"/>
<polygon fill="#000000" stroke="#000000" points="312.344,-1017.1199 318.7148,-1008.6545 308.4554,-1011.2993 312.344,-1017.1199"/>
</g>
<!-- collection&#45;&gt;collection_active -->
<g id="edge4" class="edge">
<title>collection&#45;&gt;collection_active</title>
<path fill="none" stroke="#000000" d="M69.9594,-693.0966C81.1078,-765.5098 103.933,-1034.7225 106.6814,-1122.8649"/>
<polygon fill="#000000" stroke="#000000" points="103.1837,-1123.0067 106.9182,-1132.9215 110.1818,-1122.8418 103.1837,-1123.0067"/>
</g>
<!-- collection_inert -->
<g id="node5" class="node">
<title>collection_inert</title>
<ellipse fill="none" stroke="#000000" cx="65.6442" cy="-516" rx="65.7887" ry="18"/>
<text text-anchor="middle" x="65.6442" y="-512.3" font-family="Times,serif" font-size="14.00" fill="#000000">collection_inert</text>
</g>
<!-- collection&#45;&gt;collection_inert -->
<g id="edge5" class="edge">
<title>collection&#45;&gt;collection_inert</title>
<path fill="none" stroke="#000000" d="M61.1808,-657.0698C58.4469,-629.634 58.1645,-576.991 60.3335,-544.3472"/>
<polygon fill="#000000" stroke="#000000" points="63.844,-544.3587 61.1631,-534.1087 56.8668,-543.7933 63.844,-544.3587"/>
</g>
<!-- test_pitch_train&#45;&gt;interface -->
<g id="edge39" class="edge">
<title>test_pitch_train&#45;&gt;interface</title>
<path fill="none" stroke="#000000" d="M321.9689,-974.6815C285.6672,-945.6767 212.6213,-887.3134 172.539,-855.2878"/>
<polygon fill="#000000" stroke="#000000" points="174.5086,-852.3816 164.5113,-848.8738 170.1391,-857.8503 174.5086,-852.3816"/>
</g>
<!-- music_notes -->
<g id="node19" class="node">
<title>music_notes</title>
<ellipse fill="none" stroke="#000000" cx="1058.6442" cy="-833" rx="55.4913" ry="18"/>
<text text-anchor="middle" x="1058.6442" y="-829.3" font-family="Times,serif" font-size="14.00" fill="#000000">music_notes</text>
</g>
<!-- test_pitch_train&#45;&gt;music_notes -->
<g id="edge40" class="edge">
<title>test_pitch_train&#45;&gt;music_notes</title>
<path fill="none" stroke="#000000" d="M394.7783,-980.6289C524.832,-951.7079 867.4618,-875.5147 1002.648,-845.4523"/>
<polygon fill="#000000" stroke="#000000" points="1003.7821,-848.7857 1012.7838,-843.1983 1002.2625,-841.9526 1003.7821,-848.7857"/>
</g>
<!-- random -->
<g id="node27" class="node">
<title>random</title>
<ellipse fill="none" stroke="#000000" cx="826.6442" cy="-516" rx="38.1938" ry="18"/>
<text text-anchor="middle" x="826.6442" y="-512.3" font-family="Times,serif" font-size="14.00" fill="#000000">random</text>
</g>
<!-- test_pitch_train&#45;&gt;random -->
<g id="edge41" class="edge">
<title>test_pitch_train&#45;&gt;random</title>
<path fill="none" stroke="#000000" d="M397.0481,-981.4339C462.904,-965.4036 572.9411,-928.2343 628.6442,-851 679.5666,-780.3942 613.1641,-732.9849 655.6442,-657 687.2609,-600.4467 751.2663,-557.2878 791.3746,-534.3698"/>
<polygon fill="#000000" stroke="#000000" points="793.2665,-537.322 800.2857,-529.3859 789.8495,-531.2126 793.2665,-537.322"/>
</g>
<!-- task_queue -->
<g id="node31" class="node">
<title>task_queue</title>
<ellipse fill="none" stroke="#000000" cx="447.6442" cy="-833" rx="50.0912" ry="18"/>
<text text-anchor="middle" x="447.6442" y="-829.3" font-family="Times,serif" font-size="14.00" fill="#000000">task_queue</text>
</g>
<!-- test_pitch_train&#45;&gt;task_queue -->
<g id="edge42" class="edge">
<title>test_pitch_train&#45;&gt;task_queue</title>
<path fill="none" stroke="#000000" d="M355.3721,-974.0698C373.7267,-946.0084 409.3296,-891.5771 430.5425,-859.1458"/>
<polygon fill="#000000" stroke="#000000" points="433.5729,-860.9068 436.1178,-850.6221 427.7147,-857.075 433.5729,-860.9068"/>
</g>
<!-- helpers -->
<g id="node33" class="node">
<title>helpers</title>
<ellipse fill="none" stroke="#000000" cx="240.6442" cy="-833" rx="36.2938" ry="18"/>
<text text-anchor="middle" x="240.6442" y="-829.3" font-family="Times,serif" font-size="14.00" fill="#000000">helpers</text>
</g>
<!-- test_pitch_train&#45;&gt;helpers -->
<g id="edge38" class="edge">
<title>test_pitch_train&#45;&gt;helpers</title>
<path fill="none" stroke="#000000" d="M332.029,-974.0698C313.8509,-946.0084 278.5903,-891.5771 257.5814,-859.1458"/>
<polygon fill="#000000" stroke="#000000" points="260.4342,-857.1121 252.0597,-850.6221 254.5592,-860.9179 260.4342,-857.1121"/>
</g>
<!-- collection_inert&#45;&gt;collection -->
<g id="edge6" class="edge">
<title>collection_inert&#45;&gt;collection</title>
<path fill="none" stroke="#000000" d="M70.1253,-534.1087C72.8485,-561.6533 73.1203,-614.3073 70.9407,-646.8644"/>
<polygon fill="#000000" stroke="#000000" points="67.4329,-646.8181 70.1075,-657.0698 74.4097,-647.3877 67.4329,-646.8181"/>
</g>
<!-- event_filter -->
<g id="node6" class="node">
<title>event_filter</title>
<ellipse fill="none" stroke="#000000" cx="1324.6442" cy="-833" rx="51.1914" ry="18"/>
<text text-anchor="middle" x="1324.6442" y="-829.3" font-family="Times,serif" font-size="14.00" fill="#000000">event_filter</text>
</g>
<!-- every_so_often -->
<g id="node7" class="node">
<title>every_so_often</title>
<ellipse fill="none" stroke="#000000" cx="1371.6442" cy="-675" rx="64.9885" ry="18"/>
<text text-anchor="middle" x="1371.6442" y="-671.3" font-family="Times,serif" font-size="14.00" fill="#000000">every_so_often</text>
</g>
<!-- event_filter&#45;&gt;every_so_often -->
<g id="edge7" class="edge">
<title>event_filter&#45;&gt;every_so_often</title>
<path fill="none" stroke="#000000" d="M1330.0357,-814.8754C1338.1729,-787.5204 1353.6602,-735.4567 1363.273,-703.1415"/>
<polygon fill="#000000" stroke="#000000" points="1366.6742,-703.9828 1366.1708,-693.3999 1359.9648,-701.9869 1366.6742,-703.9828"/>
</g>
<!-- fsynth -->
<g id="node8" class="node">
<title>fsynth</title>
<ellipse fill="none" stroke="#000000" cx="1256.6442" cy="-675" rx="32.4942" ry="18"/>
<text text-anchor="middle" x="1256.6442" y="-671.3" font-family="Times,serif" font-size="14.00" fill="#000000">fsynth</text>
</g>
<!-- native_onIncomingMidi -->
<g id="node9" class="node">
<title>native_onIncomingMidi</title>
<ellipse fill="none" stroke="#000000" cx="1579.6442" cy="-516" rx="96.6831" ry="18"/>
<text text-anchor="middle" x="1579.6442" y="-512.3" font-family="Times,serif" font-size="14.00" fill="#000000">native_onIncomingMidi</text>
</g>
<!-- fsynth&#45;&gt;native_onIncomingMidi -->
<g id="edge8" class="edge">
<title>fsynth&#45;&gt;native_onIncomingMidi</title>
<path fill="none" stroke="#000000" d="M1281.1868,-662.9187C1335.672,-636.0978 1467.3315,-571.2871 1536.1282,-537.4212"/>
<polygon fill="#000000" stroke="#000000" points="1537.9778,-540.4118 1545.4039,-532.8551 1534.8862,-534.1315 1537.9778,-540.4118"/>
</g>
<!-- pitch -->
<g id="node10" class="node">
<title>pitch</title>
<ellipse fill="none" stroke="#000000" cx="1435.6442" cy="-198" rx="28.6953" ry="18"/>
<text text-anchor="middle" x="1435.6442" y="-194.3" font-family="Times,serif" font-size="14.00" fill="#000000">pitch</text>
</g>
<!-- fsynth&#45;&gt;pitch -->
<g id="edge9" class="edge">
<title>fsynth&#45;&gt;pitch</title>
<path fill="none" stroke="#000000" d="M1269.2062,-658.2561C1301.1865,-614.5219 1385.4233,-492.1191 1417.6442,-375 1431.7146,-323.8555 1435.0075,-261.6762 1435.6508,-226.2835"/>
<polygon fill="#000000" stroke="#000000" points="1439.1515,-226.2435 1435.7744,-216.2014 1432.152,-226.1577 1439.1515,-226.2435"/>
</g>
<!-- sound_io_interface -->
<g id="node11" class="node">
<title>sound_io_interface</title>
<ellipse fill="none" stroke="#000000" cx="1256.6442" cy="-516" rx="77.9862" ry="18"/>
<text text-anchor="middle" x="1256.6442" y="-512.3" font-family="Times,serif" font-size="14.00" fill="#000000">sound_io_interface</text>
</g>
<!-- fsynth&#45;&gt;sound_io_interface -->
<g id="edge10" class="edge">
<title>fsynth&#45;&gt;sound_io_interface</title>
<path fill="none" stroke="#000000" d="M1256.6442,-656.7607C1256.6442,-629.2051 1256.6442,-576.735 1256.6442,-544.2226"/>
<polygon fill="#000000" stroke="#000000" points="1260.1443,-544.0266 1256.6442,-534.0266 1253.1443,-544.0266 1260.1443,-544.0266"/>
</g>
<!-- notation_strings -->
<g id="node25" class="node">
<title>notation_strings</title>
<ellipse fill="none" stroke="#000000" cx="1463.6442" cy="-40" rx="67.6881" ry="18"/>
<text text-anchor="middle" x="1463.6442" y="-36.3" font-family="Times,serif" font-size="14.00" fill="#000000">notation_strings</text>
</g>
<!-- pitch&#45;&gt;notation_strings -->
<g id="edge21" class="edge">
<title>pitch&#45;&gt;notation_strings</title>
<path fill="none" stroke="#000000" d="M1438.8561,-179.8754C1443.6829,-152.6388 1452.8505,-100.907 1458.5825,-68.5623"/>
<polygon fill="#000000" stroke="#000000" points="1462.0847,-68.8573 1460.3834,-58.3999 1455.1921,-67.6357 1462.0847,-68.8573"/>
</g>
<!-- sound_io_interface&#45;&gt;pitch -->
<g id="edge33" class="edge">
<title>sound_io_interface&#45;&gt;pitch</title>
<path fill="none" stroke="#000000" d="M1281.0865,-498.7717C1313.1114,-474.8272 1368.5995,-428.3638 1397.6442,-375 1423.6514,-327.2169 1431.8619,-263.1306 1434.4522,-226.6331"/>
<polygon fill="#000000" stroke="#000000" points="1437.9707,-226.436 1435.0891,-216.2406 1430.9838,-226.0077 1437.9707,-226.436"/>
</g>
<!-- incoming_pitch_listener_interface -->
<g id="node13" class="node">
<title>incoming_pitch_listener_interface</title>
<ellipse fill="none" stroke="#000000" cx="1256.6442" cy="-357" rx="131.8766" ry="18"/>
<text text-anchor="middle" x="1256.6442" y="-353.3" font-family="Times,serif" font-size="14.00" fill="#000000">incoming_pitch_listener_interface</text>
</g>
<!-- sound_io_interface&#45;&gt;incoming_pitch_listener_interface -->
<g id="edge32" class="edge">
<title>sound_io_interface&#45;&gt;incoming_pitch_listener_interface</title>
<path fill="none" stroke="#000000" d="M1256.6442,-497.7607C1256.6442,-470.2051 1256.6442,-417.735 1256.6442,-385.2226"/>
<polygon fill="#000000" stroke="#000000" points="1260.1443,-385.0266 1256.6442,-375.0266 1253.1443,-385.0266 1260.1443,-385.0266"/>
</g>
<!-- gui_tests -->
<g id="node12" class="node">
<title>gui_tests</title>
<ellipse fill="none" stroke="#000000" cx="337.6442" cy="-833" rx="42.4939" ry="18"/>
<text text-anchor="middle" x="337.6442" y="-829.3" font-family="Times,serif" font-size="14.00" fill="#000000">gui_tests</text>
</g>
<!-- gui_tests&#45;&gt;collection -->
<g id="edge11" class="edge">
<title>gui_tests&#45;&gt;collection</title>
<path fill="none" stroke="#000000" d="M312.5426,-818.4189C263.7072,-790.0513 155.842,-727.3943 100.2566,-695.1057"/>
<polygon fill="#000000" stroke="#000000" points="101.8835,-692.0032 91.4785,-690.0067 98.3675,-698.0561 101.8835,-692.0032"/>
</g>
<!-- incoming_pitch_listener_interface&#45;&gt;pitch -->
<g id="edge12" class="edge">
<title>incoming_pitch_listener_interface&#45;&gt;pitch</title>
<path fill="none" stroke="#000000" d="M1276.8298,-339.0698C1309.9809,-309.6226 1375.8234,-251.1369 1411.4308,-219.5079"/>
<polygon fill="#000000" stroke="#000000" points="1413.8117,-222.0745 1418.9638,-212.8167 1409.163,-216.841 1413.8117,-222.0745"/>
</g>
<!-- lib -->
<g id="node14" class="node">
<title>lib</title>
<ellipse fill="none" stroke="#000000" cx="1547.6442" cy="-1151" rx="27" ry="18"/>
<text text-anchor="middle" x="1547.6442" y="-1147.3" font-family="Times,serif" font-size="14.00" fill="#000000">lib</text>
</g>
<!-- quarantined_awaiting_warning_fixes -->
<g id="node15" class="node">
<title>quarantined_awaiting_warning_fixes</title>
<ellipse fill="none" stroke="#000000" cx="1547.6442" cy="-992" rx="141.8751" ry="18"/>
<text text-anchor="middle" x="1547.6442" y="-988.3" font-family="Times,serif" font-size="14.00" fill="#000000">quarantined_awaiting_warning_fixes</text>
</g>
<!-- lib&#45;&gt;quarantined_awaiting_warning_fixes -->
<g id="edge13" class="edge">
<title>lib&#45;&gt;quarantined_awaiting_warning_fixes</title>
<path fill="none" stroke="#000000" d="M1547.6442,-1132.7607C1547.6442,-1105.2051 1547.6442,-1052.735 1547.6442,-1020.2226"/>
<polygon fill="#000000" stroke="#000000" points="1551.1443,-1020.0266 1547.6442,-1010.0266 1544.1443,-1020.0266 1551.1443,-1020.0266"/>
</g>
<!-- sample_header_exempt_from_warnings -->
<g id="node29" class="node">
<title>sample_header_exempt_from_warnings</title>
<ellipse fill="none" stroke="#000000" cx="1547.6442" cy="-833" rx="153.2729" ry="18"/>
<text text-anchor="middle" x="1547.6442" y="-829.3" font-family="Times,serif" font-size="14.00" fill="#000000">sample_header_exempt_from_warnings</text>
</g>
<!-- quarantined_awaiting_warning_fixes&#45;&gt;sample_header_exempt_from_warnings -->
<g id="edge30" class="edge">
<title>quarantined_awaiting_warning_fixes&#45;&gt;sample_header_exempt_from_warnings</title>
<path fill="none" stroke="#000000" d="M1547.6442,-973.7607C1547.6442,-946.2051 1547.6442,-893.735 1547.6442,-861.2226"/>
<polygon fill="#000000" stroke="#000000" points="1551.1443,-861.0266 1547.6442,-851.0266 1544.1443,-861.0266 1551.1443,-861.0266"/>
</g>
<!-- main -->
<g id="node16" class="node">
<title>main</title>
<ellipse fill="none" stroke="#000000" cx="828.6442" cy="-1151" rx="28.6953" ry="18"/>
<text text-anchor="middle" x="828.6442" y="-1147.3" font-family="Times,serif" font-size="14.00" fill="#000000">main</text>
</g>
<!-- logger -->
<g id="node17" class="node">
<title>logger</title>
<ellipse fill="none" stroke="#000000" cx="813.6442" cy="-992" rx="33.2948" ry="18"/>
<text text-anchor="middle" x="813.6442" y="-988.3" font-family="Times,serif" font-size="14.00" fill="#000000">logger</text>
</g>
<!-- main&#45;&gt;logger -->
<g id="edge14" class="edge">
<title>main&#45;&gt;logger</title>
<path fill="none" stroke="#000000" d="M826.9235,-1132.7607C824.3239,-1105.2051 819.3739,-1052.735 816.3067,-1020.2226"/>
<polygon fill="#000000" stroke="#000000" points="819.7686,-1019.6536 815.3448,-1010.0266 812.7996,-1020.3112 819.7686,-1019.6536"/>
</g>
<!-- view_model_collection -->
<g id="node18" class="node">
<title>view_model_collection</title>
<ellipse fill="none" stroke="#000000" cx="958.6442" cy="-992" rx="93.6835" ry="18"/>
<text text-anchor="middle" x="958.6442" y="-988.3" font-family="Times,serif" font-size="14.00" fill="#000000">view_model_collection</text>
</g>
<!-- main&#45;&gt;view_model_collection -->
<g id="edge15" class="edge">
<title>main&#45;&gt;view_model_collection</title>
<path fill="none" stroke="#000000" d="M841.8247,-1134.8792C864.3185,-1107.3676 910.3068,-1051.1204 937.3891,-1017.9966"/>
<polygon fill="#000000" stroke="#000000" points="940.2212,-1020.0622 943.8413,-1010.105 934.8019,-1015.6314 940.2212,-1020.0622"/>
</g>
<!-- view_model_collection&#45;&gt;event_filter -->
<g id="edge43" class="edge">
<title>view_model_collection&#45;&gt;event_filter</title>
<path fill="none" stroke="#000000" d="M996.7768,-975.4342C1065.902,-945.4044 1211.3621,-882.2127 1282.991,-851.0952"/>
<polygon fill="#000000" stroke="#000000" points="1284.4016,-854.2985 1292.1789,-847.1038 1281.6124,-847.8782 1284.4016,-854.2985"/>
</g>
<!-- view_model_collection&#45;&gt;fsynth -->
<g id="edge44" class="edge">
<title>view_model_collection&#45;&gt;fsynth</title>
<path fill="none" stroke="#000000" d="M981.9968,-974.4686C1015.0803,-949.0859 1076.6791,-899.7797 1122.6442,-851 1169.5039,-801.2709 1215.9546,-735.6518 1239.93,-700.2509"/>
<polygon fill="#000000" stroke="#000000" points="1242.85,-702.1807 1245.5277,-691.9298 1237.0419,-698.2735 1242.85,-702.1807"/>
</g>
<!-- view_model_collection&#45;&gt;gui_tests -->
<g id="edge45" class="edge">
<title>view_model_collection&#45;&gt;gui_tests</title>
<path fill="none" stroke="#000000" d="M895.6931,-978.5228C790.0554,-955.4409 570.7768,-905.5286 388.6442,-851 385.5409,-850.0709 382.3478,-849.0653 379.1455,-848.0208"/>
<polygon fill="#000000" stroke="#000000" points="380.1853,-844.6779 369.5913,-844.8075 377.9538,-851.3127 380.1853,-844.6779"/>
</g>
<!-- view_model_collection&#45;&gt;music_notes -->
<g id="edge46" class="edge">
<title>view_model_collection&#45;&gt;music_notes</title>
<path fill="none" stroke="#000000" d="M969.9211,-974.0698C987.4763,-946.1569 1021.4414,-892.1523 1041.8754,-859.6624"/>
<polygon fill="#000000" stroke="#000000" points="1044.8939,-861.4371 1047.2551,-851.1087 1038.9684,-857.7103 1044.8939,-861.4371"/>
</g>
<!-- note_player -->
<g id="node22" class="node">
<title>note_player</title>
<ellipse fill="none" stroke="#000000" cx="567.6442" cy="-833" rx="51.9908" ry="18"/>
<text text-anchor="middle" x="567.6442" y="-829.3" font-family="Times,serif" font-size="14.00" fill="#000000">note_player</text>
</g>
<!-- view_model_collection&#45;&gt;note_player -->
<g id="edge47" class="edge">
<title>view_model_collection&#45;&gt;note_player</title>
<path fill="none" stroke="#000000" d="M918.273,-975.5831C844.1758,-945.4515 687.1015,-881.5773 610.9045,-850.5918"/>
<polygon fill="#000000" stroke="#000000" points="612.1662,-847.3266 601.5844,-846.8018 609.5293,-853.811 612.1662,-847.3266"/>
</g>
<!-- random_concrete -->
<g id="node30" class="node">
<title>random_concrete</title>
<ellipse fill="none" stroke="#000000" cx="958.6442" cy="-675" rx="72.2875" ry="18"/>
<text text-anchor="middle" x="958.6442" y="-671.3" font-family="Times,serif" font-size="14.00" fill="#000000">random_concrete</text>
</g>
<!-- view_model_collection&#45;&gt;random_concrete -->
<g id="edge49" class="edge">
<title>view_model_collection&#45;&gt;random_concrete</title>
<path fill="none" stroke="#000000" d="M958.6442,-973.5866C958.6442,-920.4984 958.6442,-766.877 958.6442,-703.1837"/>
<polygon fill="#000000" stroke="#000000" points="962.1443,-703.0692 958.6442,-693.0693 955.1443,-703.0693 962.1443,-703.0692"/>
</g>
<!-- qml_message_interceptor -->
<g id="node32" class="node">
<title>qml_message_interceptor</title>
<ellipse fill="none" stroke="#000000" cx="766.6442" cy="-675" rx="102.0819" ry="18"/>
<text text-anchor="middle" x="766.6442" y="-671.3" font-family="Times,serif" font-size="14.00" fill="#000000">qml_message_interceptor</text>
</g>
<!-- view_model_collection&#45;&gt;qml_message_interceptor -->
<g id="edge48" class="edge">
<title>view_model_collection&#45;&gt;qml_message_interceptor</title>
<path fill="none" stroke="#000000" d="M947.7713,-974.0484C915.6369,-920.9932 820.9739,-764.7007 782.8381,-701.7368"/>
<polygon fill="#000000" stroke="#000000" points="785.8102,-699.8878 777.6358,-693.1476 779.8227,-703.5143 785.8102,-699.8878"/>
</g>
<!-- music_notes&#45;&gt;fsynth -->
<g id="edge16" class="edge">
<title>music_notes&#45;&gt;fsynth</title>
<path fill="none" stroke="#000000" d="M1079.8336,-816.0912C1116.1575,-787.1056 1190.2345,-727.9935 1230,-696.2615"/>
<polygon fill="#000000" stroke="#000000" points="1232.3055,-698.8996 1237.9388,-689.9265 1227.9393,-693.4281 1232.3055,-698.8996"/>
</g>
<!-- pitch_training -->
<g id="node20" class="node">
<title>pitch_training</title>
<ellipse fill="none" stroke="#000000" cx="1146.6442" cy="-675" rx="59.5901" ry="18"/>
<text text-anchor="middle" x="1146.6442" y="-671.3" font-family="Times,serif" font-size="14.00" fill="#000000">pitch_training</text>
</g>
<!-- music_notes&#45;&gt;pitch_training -->
<g id="edge17" class="edge">
<title>music_notes&#45;&gt;pitch_training</title>
<path fill="none" stroke="#000000" d="M1068.5678,-815.1825C1083.9505,-787.5637 1113.6506,-734.2385 1131.6564,-701.9098"/>
<polygon fill="#000000" stroke="#000000" points="1134.8136,-703.4342 1136.6218,-692.9948 1128.6982,-700.0281 1134.8136,-703.4342"/>
</g>
<!-- wrap_qt_trace_category -->
<g id="node21" class="node">
<title>wrap_qt_trace_category</title>
<ellipse fill="none" stroke="#000000" cx="978.6442" cy="-516" rx="95.5831" ry="18"/>
<text text-anchor="middle" x="978.6442" y="-512.3" font-family="Times,serif" font-size="14.00" fill="#000000">wrap_qt_trace_category</text>
</g>
<!-- music_notes&#45;&gt;wrap_qt_trace_category -->
<g id="edge18" class="edge">
<title>music_notes&#45;&gt;wrap_qt_trace_category</title>
<path fill="none" stroke="#000000" d="M1058.4712,-814.9412C1057.773,-782.6949 1054.4995,-713.3127 1039.6442,-657 1028.7507,-615.7055 1007.6202,-570.9067 993.3203,-543.1423"/>
<polygon fill="#000000" stroke="#000000" points="996.3099,-541.3062 988.5751,-534.0658 990.1065,-544.5494 996.3099,-541.3062"/>
</g>
<!-- pitch_training&#45;&gt;pitch -->
<g id="edge25" class="edge">
<title>pitch_training&#45;&gt;pitch</title>
<path fill="none" stroke="#000000" d="M1137.8484,-657.1011C1112.9661,-603.6561 1048.1241,-442.535 1115.6442,-339 1179.0465,-241.7791 1326.2249,-211.1299 1396.6864,-201.8422"/>
<polygon fill="#000000" stroke="#000000" points="1397.4163,-205.2786 1406.9096,-200.5746 1396.5549,-198.3318 1397.4163,-205.2786"/>
</g>
<!-- pitch_training&#45;&gt;sound_io_interface -->
<g id="edge27" class="edge">
<title>pitch_training&#45;&gt;sound_io_interface</title>
<path fill="none" stroke="#000000" d="M1158.8364,-657.3767C1178.0613,-629.588 1215.548,-575.4026 1238.1169,-542.7804"/>
<polygon fill="#000000" stroke="#000000" points="1241.2482,-544.406 1244.0593,-534.1909 1235.4915,-540.4234 1241.2482,-544.406"/>
</g>
<!-- pitch_training&#45;&gt;incoming_pitch_listener_interface -->
<g id="edge24" class="edge">
<title>pitch_training&#45;&gt;incoming_pitch_listener_interface</title>
<path fill="none" stroke="#000000" d="M1146.5156,-656.836C1146.8213,-624.1089 1149.9525,-553.4856 1169.6442,-498 1185.0093,-454.7054 1215.0656,-410.5506 1235.5012,-383.4607"/>
<polygon fill="#000000" stroke="#000000" points="1238.4605,-385.3532 1241.7673,-375.2876 1232.9053,-381.0941 1238.4605,-385.3532"/>
</g>
<!-- pitch_training&#45;&gt;wrap_qt_trace_category -->
<g id="edge28" class="edge">
<title>pitch_training&#45;&gt;wrap_qt_trace_category</title>
<path fill="none" stroke="#000000" d="M1128.3454,-657.6815C1098.4595,-629.3967 1039.0742,-573.1927 1004.764,-540.7206"/>
<polygon fill="#000000" stroke="#000000" points="1007.102,-538.1143 997.4332,-533.7825 1002.2903,-543.1984 1007.102,-538.1143"/>
</g>
<!-- pitch_training&#45;&gt;random -->
<g id="edge26" class="edge">
<title>pitch_training&#45;&gt;random</title>
<path fill="none" stroke="#000000" d="M1115.3786,-659.4649C1055.5437,-629.7345 925.196,-564.968 862.1731,-533.6534"/>
<polygon fill="#000000" stroke="#000000" points="863.531,-530.42 853.0182,-529.1046 860.4162,-536.6888 863.531,-530.42"/>
</g>
<!-- null_stream -->
<g id="node34" class="node">
<title>null_stream</title>
<ellipse fill="none" stroke="#000000" cx="978.6442" cy="-357" rx="52.7911" ry="18"/>
<text text-anchor="middle" x="978.6442" y="-353.3" font-family="Times,serif" font-size="14.00" fill="#000000">null_stream</text>
</g>
<!-- wrap_qt_trace_category&#45;&gt;null_stream -->
<g id="edge50" class="edge">
<title>wrap_qt_trace_category&#45;&gt;null_stream</title>
<path fill="none" stroke="#000000" d="M978.6442,-497.7607C978.6442,-470.2051 978.6442,-417.735 978.6442,-385.2226"/>
<polygon fill="#000000" stroke="#000000" points="982.1443,-385.0266 978.6442,-375.0266 975.1443,-385.0266 982.1443,-385.0266"/>
</g>
<!-- task -->
<g id="node23" class="node">
<title>task</title>
<ellipse fill="none" stroke="#000000" cx="497.6442" cy="-516" rx="27" ry="18"/>
<text text-anchor="middle" x="497.6442" y="-512.3" font-family="Times,serif" font-size="14.00" fill="#000000">task</text>
</g>
<!-- note_player&#45;&gt;task -->
<g id="edge19" class="edge">
<title>note_player&#45;&gt;task</title>
<path fill="none" stroke="#000000" d="M568.8101,-814.9701C570.434,-782.7691 571.8451,-713.4556 558.6442,-657 548.8117,-614.9499 527.0161,-569.6889 512.3228,-542.0989"/>
<polygon fill="#000000" stroke="#000000" points="515.2944,-540.2361 507.4531,-533.1111 509.1397,-543.5709 515.2944,-540.2361"/>
</g>
<!-- task_runner -->
<g id="node24" class="node">
<title>task_runner</title>
<ellipse fill="none" stroke="#000000" cx="497.6442" cy="-675" rx="51.9908" ry="18"/>
<text text-anchor="middle" x="497.6442" y="-671.3" font-family="Times,serif" font-size="14.00" fill="#000000">task_runner</text>
</g>
<!-- note_player&#45;&gt;task_runner -->
<g id="edge20" class="edge">
<title>note_player&#45;&gt;task_runner</title>
<path fill="none" stroke="#000000" d="M559.7504,-815.1825C547.5667,-787.6823 524.0917,-734.6958 509.7512,-702.3272"/>
<polygon fill="#000000" stroke="#000000" points="512.8673,-700.7199 505.6165,-692.9948 506.4672,-703.5554 512.8673,-700.7199"/>
</g>
<!-- task_runner&#45;&gt;task -->
<g id="edge37" class="edge">
<title>task_runner&#45;&gt;task</title>
<path fill="none" stroke="#000000" d="M497.6442,-656.7607C497.6442,-629.2051 497.6442,-576.735 497.6442,-544.2226"/>
<polygon fill="#000000" stroke="#000000" points="501.1443,-544.0266 497.6442,-534.0266 494.1443,-544.0266 501.1443,-544.0266"/>
</g>
<!-- pitch_test -->
<g id="node26" class="node">
<title>pitch_test</title>
<ellipse fill="none" stroke="#000000" cx="1527.6442" cy="-357" rx="44.6926" ry="18"/>
<text text-anchor="middle" x="1527.6442" y="-353.3" font-family="Times,serif" font-size="14.00" fill="#000000">pitch_test</text>
</g>
<!-- pitch_test&#45;&gt;pitch -->
<g id="edge23" class="edge">
<title>pitch_test&#45;&gt;pitch</title>
<path fill="none" stroke="#000000" d="M1517.4471,-339.3767C1501.2664,-311.4124 1469.6186,-256.7167 1450.7834,-224.1645"/>
<polygon fill="#000000" stroke="#000000" points="1453.645,-222.1215 1445.6073,-215.2189 1447.5862,-225.6273 1453.645,-222.1215"/>
</g>
<!-- pitch_test&#45;&gt;notation_strings -->
<g id="edge22" class="edge">
<title>pitch_test&#45;&gt;notation_strings</title>
<path fill="none" stroke="#000000" d="M1524.0199,-339.0484C1513.3962,-286.4281 1482.27,-132.2559 1469.3585,-68.3038"/>
<polygon fill="#000000" stroke="#000000" points="1472.7179,-67.2571 1467.308,-58.1476 1465.8563,-68.6425 1472.7179,-67.2571"/>
</g>
<!-- qmlscene_main -->
<g id="node28" class="node">
<title>qmlscene_main</title>
<ellipse fill="none" stroke="#000000" cx="958.6442" cy="-1151" rx="66.8882" ry="18"/>
<text text-anchor="middle" x="958.6442" y="-1147.3" font-family="Times,serif" font-size="14.00" fill="#000000">qmlscene_main</text>
</g>
<!-- qmlscene_main&#45;&gt;view_model_collection -->
<g id="edge29" class="edge">
<title>qmlscene_main&#45;&gt;view_model_collection</title>
<path fill="none" stroke="#000000" d="M958.6442,-1132.7607C958.6442,-1105.2051 958.6442,-1052.735 958.6442,-1020.2226"/>
<polygon fill="#000000" stroke="#000000" points="962.1443,-1020.0266 958.6442,-1010.0266 955.1443,-1020.0266 962.1443,-1020.0266"/>
</g>
<!-- random_concrete&#45;&gt;random -->
<g id="edge31" class="edge">
<title>random_concrete&#45;&gt;random</title>
<path fill="none" stroke="#000000" d="M943.7587,-657.0698C920.2391,-628.7394 874.4058,-573.531 847.5808,-541.2191"/>
<polygon fill="#000000" stroke="#000000" points="849.9548,-538.5993 840.8743,-533.1409 844.569,-543.0706 849.9548,-538.5993"/>
</g>
<!-- task_queue&#45;&gt;task -->
<g id="edge35" class="edge">
<title>task_queue&#45;&gt;task</title>
<path fill="none" stroke="#000000" d="M443.422,-815.042C436.5608,-782.9537 424.8821,-713.8109 436.6442,-657 445.3994,-614.7125 467.4804,-569.5144 482.5289,-542.0026"/>
<polygon fill="#000000" stroke="#000000" points="485.7118,-543.4813 487.5251,-533.0428 479.598,-540.0721 485.7118,-543.4813"/>
</g>
<!-- task_queue&#45;&gt;task_runner -->
<g id="edge36" class="edge">
<title>task_queue&#45;&gt;task_runner</title>
<path fill="none" stroke="#000000" d="M453.3798,-814.8754C462.0828,-787.3741 478.6888,-734.8991 488.9021,-702.6248"/>
<polygon fill="#000000" stroke="#000000" points="492.2952,-703.5032 491.9754,-692.9132 485.6214,-701.3912 492.2952,-703.5032"/>
</g>
<!-- task_queue&#45;&gt;qml_message_interceptor -->
<g id="edge34" class="edge">
<title>task_queue&#45;&gt;qml_message_interceptor</title>
<path fill="none" stroke="#000000" d="M477.0831,-818.4189C533.3882,-790.5312 656.6007,-729.5043 722.6908,-696.77"/>
<polygon fill="#000000" stroke="#000000" points="724.6049,-699.7278 732.0125,-692.153 721.498,-693.4551 724.6049,-699.7278"/>
</g>
</g>
</svg>
