<?xml version="1.0" encoding="UTF-8" standalone="no"?>
<!DOCTYPE svg PUBLIC "-//W3C//DTD SVG 1.1//EN"
 "http://www.w3.org/Graphics/SVG/1.1/DTD/svg11.dtd">
<!-- Generated by graphviz version 2.40.1 (20161225.0304)
 -->
<!-- Title: source tree Pages: 1 -->
<svg width="1070pt" height="795pt"
 viewBox="0.00 0.00 1070.40 795.20" xmlns="http://www.w3.org/2000/svg" xmlns:xlink="http://www.w3.org/1999/xlink">
<g id="graph0" class="graph" transform="scale(1 1) rotate(0) translate(4 791.2)">
<title>source tree</title>
<polygon fill="#ffffff" stroke="transparent" points="-4,4 -4,-791.2 1066.4042,-791.2 1066.4042,4 -4,4"/>
<!-- collection -->
<g id="node1" class="node">
<title>collection</title>
<ellipse fill="none" stroke="#000000" cx="256.8339" cy="-544" rx="45.4919" ry="18"/>
<text text-anchor="middle" x="256.8339" y="-540.3" font-family="Times,serif" font-size="14.00" fill="#000000">collection</text>
</g>
<!-- test_interface -->
<g id="node2" class="node">
<title>test_interface</title>
<ellipse fill="none" stroke="#000000" cx="223.8339" cy="-394" rx="57.6901" ry="18"/>
<text text-anchor="middle" x="223.8339" y="-390.3" font-family="Times,serif" font-size="14.00" fill="#000000">test_interface</text>
</g>
<!-- collection&#45;&gt;test_interface -->
<g id="edge1" class="edge">
<title>collection&#45;&gt;test_interface</title>
<path fill="none" stroke="#000000" d="M252.8534,-525.9065C247.1796,-500.1166 236.7146,-452.5484 230.0238,-422.1357"/>
<polygon fill="#000000" stroke="#000000" points="233.3956,-421.1721 227.8286,-412.1577 226.5591,-422.6762 233.3956,-421.1721"/>
</g>
<!-- test_pitch_train -->
<g id="node3" class="node">
<title>test_pitch_train</title>
<ellipse fill="none" stroke="#000000" cx="349.8339" cy="-469" rx="65.7887" ry="18"/>
<text text-anchor="middle" x="349.8339" y="-465.3" font-family="Times,serif" font-size="14.00" fill="#000000">test_pitch_train</text>
</g>
<!-- collection&#45;&gt;test_pitch_train -->
<g id="edge2" class="edge">
<title>collection&#45;&gt;test_pitch_train</title>
<path fill="none" stroke="#000000" d="M277.0135,-527.7261C289.6962,-517.4981 306.274,-504.129 320.4079,-492.7307"/>
<polygon fill="#000000" stroke="#000000" points="322.8123,-495.288 328.3993,-486.286 318.418,-489.8391 322.8123,-495.288"/>
</g>
<!-- test_pitch_train&#45;&gt;test_interface -->
<g id="edge40" class="edge">
<title>test_pitch_train&#45;&gt;test_interface</title>
<path fill="none" stroke="#000000" d="M322.1827,-452.5409C303.8391,-441.6221 279.5839,-427.1845 259.7514,-415.3794"/>
<polygon fill="#000000" stroke="#000000" points="261.3706,-412.2702 250.9874,-410.1628 257.7902,-418.2852 261.3706,-412.2702"/>
</g>
<!-- random -->
<g id="node11" class="node">
<title>random</title>
<ellipse fill="none" stroke="#000000" cx="387.8339" cy="-244" rx="38.1938" ry="18"/>
<text text-anchor="middle" x="387.8339" y="-240.3" font-family="Times,serif" font-size="14.00" fill="#000000">random</text>
</g>
<!-- test_pitch_train&#45;&gt;random -->
<g id="edge38" class="edge">
<title>test_pitch_train&#45;&gt;random</title>
<path fill="none" stroke="#000000" d="M375.2137,-452.1316C387.877,-442.1388 401.9351,-428.2575 408.8339,-412 428.5854,-365.4546 412.3109,-305.6066 399.5077,-271.3494"/>
<polygon fill="#000000" stroke="#000000" points="402.7514,-270.0337 395.8557,-261.9901 396.2303,-272.5784 402.7514,-270.0337"/>
</g>
<!-- music_notes -->
<g id="node16" class="node">
<title>music_notes</title>
<ellipse fill="none" stroke="#000000" cx="629.8339" cy="-394" rx="55.4913" ry="18"/>
<text text-anchor="middle" x="629.8339" y="-390.3" font-family="Times,serif" font-size="14.00" fill="#000000">music_notes</text>
</g>
<!-- test_pitch_train&#45;&gt;music_notes -->
<g id="edge37" class="edge">
<title>test_pitch_train&#45;&gt;music_notes</title>
<path fill="none" stroke="#000000" d="M397.0155,-456.3621C446.9442,-442.9883 525.5389,-421.9362 577.3809,-408.0499"/>
<polygon fill="#000000" stroke="#000000" points="578.3023,-411.4266 587.0562,-405.4583 576.4911,-404.6649 578.3023,-411.4266"/>
</g>
<!-- task_queue -->
<g id="node24" class="node">
<title>task_queue</title>
<ellipse fill="none" stroke="#000000" cx="349.8339" cy="-394" rx="50.0912" ry="18"/>
<text text-anchor="middle" x="349.8339" y="-390.3" font-family="Times,serif" font-size="14.00" fill="#000000">task_queue</text>
</g>
<!-- test_pitch_train&#45;&gt;task_queue -->
<g id="edge39" class="edge">
<title>test_pitch_train&#45;&gt;task_queue</title>
<path fill="none" stroke="#000000" d="M349.8339,-450.8446C349.8339,-442.3401 349.8339,-432.0076 349.8339,-422.4964"/>
<polygon fill="#000000" stroke="#000000" points="353.334,-422.2481 349.8339,-412.2482 346.334,-422.2482 353.334,-422.2481"/>
</g>
<!-- fsynth -->
<g id="node4" class="node">
<title>fsynth</title>
<ellipse fill="none" stroke="#000000" cx="913.8339" cy="-319" rx="32.4942" ry="18"/>
<text text-anchor="middle" x="913.8339" y="-315.3" font-family="Times,serif" font-size="14.00" fill="#000000">fsynth</text>
</g>
<!-- pitch -->
<g id="node5" class="node">
<title>pitch</title>
<ellipse fill="none" stroke="#000000" cx="895.8339" cy="-94" rx="28.6953" ry="18"/>
<text text-anchor="middle" x="895.8339" y="-90.3" font-family="Times,serif" font-size="14.00" fill="#000000">pitch</text>
</g>
<!-- fsynth&#45;&gt;pitch -->
<g id="edge3" class="edge">
<title>fsynth&#45;&gt;pitch</title>
<path fill="none" stroke="#000000" d="M945.6782,-314.6798C976.2153,-308.6597 1020.7031,-294.5411 1041.8339,-262 1068.7013,-220.6246 1069.6608,-191.7363 1041.8339,-151 1029.0832,-132.3339 971.3822,-113.8868 932.4505,-103.2373"/>
<polygon fill="#000000" stroke="#000000" points="933.0737,-99.7809 922.5086,-100.5746 931.2626,-106.5426 933.0737,-99.7809"/>
</g>
<!-- sound_io_interface -->
<g id="node6" class="node">
<title>sound_io_interface</title>
<ellipse fill="none" stroke="#000000" cx="921.8339" cy="-244" rx="77.9862" ry="18"/>
<text text-anchor="middle" x="921.8339" y="-240.3" font-family="Times,serif" font-size="14.00" fill="#000000">sound_io_interface</text>
</g>
<!-- fsynth&#45;&gt;sound_io_interface -->
<g id="edge4" class="edge">
<title>fsynth&#45;&gt;sound_io_interface</title>
<path fill="none" stroke="#000000" d="M915.7705,-300.8446C916.6777,-292.3401 917.7798,-282.0076 918.7943,-272.4964"/>
<polygon fill="#000000" stroke="#000000" points="922.307,-272.563 919.8875,-262.2482 915.3465,-271.8205 922.307,-272.563"/>
</g>
<!-- notation_strings -->
<g id="node20" class="node">
<title>notation_strings</title>
<ellipse fill="none" stroke="#000000" cx="895.8339" cy="-19" rx="67.6881" ry="18"/>
<text text-anchor="middle" x="895.8339" y="-15.3" font-family="Times,serif" font-size="14.00" fill="#000000">notation_strings</text>
</g>
<!-- pitch&#45;&gt;notation_strings -->
<g id="edge21" class="edge">
<title>pitch&#45;&gt;notation_strings</title>
<path fill="none" stroke="#000000" d="M895.8339,-75.8446C895.8339,-67.3401 895.8339,-57.0076 895.8339,-47.4964"/>
<polygon fill="#000000" stroke="#000000" points="899.334,-47.2481 895.8339,-37.2482 892.334,-47.2482 899.334,-47.2481"/>
</g>
<!-- sound_io_interface&#45;&gt;pitch -->
<g id="edge32" class="edge">
<title>sound_io_interface&#45;&gt;pitch</title>
<path fill="none" stroke="#000000" d="M936.7692,-226.309C950.7817,-207.4436 968.0335,-176.7932 956.8339,-151 950.1736,-135.6609 937.1266,-122.5704 924.8025,-112.8172"/>
<polygon fill="#000000" stroke="#000000" points="926.5835,-109.7795 916.4733,-106.6116 922.4013,-115.3929 926.5835,-109.7795"/>
</g>
<!-- incoming_pitch_listener_interface -->
<g id="node9" class="node">
<title>incoming_pitch_listener_interface</title>
<ellipse fill="none" stroke="#000000" cx="815.8339" cy="-169" rx="131.8766" ry="18"/>
<text text-anchor="middle" x="815.8339" y="-165.3" font-family="Times,serif" font-size="14.00" fill="#000000">incoming_pitch_listener_interface</text>
</g>
<!-- sound_io_interface&#45;&gt;incoming_pitch_listener_interface -->
<g id="edge31" class="edge">
<title>sound_io_interface&#45;&gt;incoming_pitch_listener_interface</title>
<path fill="none" stroke="#000000" d="M897.5154,-226.7935C883.2814,-216.7223 865.0979,-203.8566 849.5022,-192.8219"/>
<polygon fill="#000000" stroke="#000000" points="851.3306,-189.8281 841.1457,-186.9093 847.2874,-195.5424 851.3306,-189.8281"/>
</g>
<!-- gui_tests -->
<g id="node7" class="node">
<title>gui_tests</title>
<ellipse fill="none" stroke="#000000" cx="256.8339" cy="-619" rx="42.4939" ry="18"/>
<text text-anchor="middle" x="256.8339" y="-615.3" font-family="Times,serif" font-size="14.00" fill="#000000">gui_tests</text>
</g>
<!-- gui_tests&#45;&gt;collection -->
<g id="edge5" class="edge">
<title>gui_tests&#45;&gt;collection</title>
<path fill="none" stroke="#000000" d="M256.8339,-600.8446C256.8339,-592.3401 256.8339,-582.0076 256.8339,-572.4964"/>
<polygon fill="#000000" stroke="#000000" points="260.334,-572.2481 256.8339,-562.2482 253.334,-572.2482 260.334,-572.2481"/>
</g>
<!-- note_player -->
<g id="node8" class="node">
<title>note_player</title>
<ellipse fill="none" stroke="#000000" cx="95.8339" cy="-394" rx="51.9908" ry="18"/>
<text text-anchor="middle" x="95.8339" y="-390.3" font-family="Times,serif" font-size="14.00" fill="#000000">note_player</text>
</g>
<!-- gui_tests&#45;&gt;note_player -->
<g id="edge6" class="edge">
<title>gui_tests&#45;&gt;note_player</title>
<path fill="none" stroke="#000000" d="M239.3884,-602.3132C228.3413,-591.3416 214.0728,-576.3994 202.8339,-562 166.0771,-514.9069 130.2018,-454.8663 110.7574,-420.7994"/>
<polygon fill="#000000" stroke="#000000" points="113.6966,-418.887 105.7217,-411.9119 107.6063,-422.3378 113.6966,-418.887"/>
</g>
<!-- task -->
<g id="node18" class="node">
<title>task</title>
<ellipse fill="none" stroke="#000000" cx="289.8339" cy="-244" rx="27" ry="18"/>
<text text-anchor="middle" x="289.8339" y="-240.3" font-family="Times,serif" font-size="14.00" fill="#000000">task</text>
</g>
<!-- note_player&#45;&gt;task -->
<g id="edge19" class="edge">
<title>note_player&#45;&gt;task</title>
<path fill="none" stroke="#000000" d="M59.7879,-380.9534C40.3558,-371.8546 18.1058,-357.6046 6.8339,-337 -.8451,-322.9631 -3.3015,-313.3804 6.8339,-301 37.485,-263.5599 182.8955,-250.1713 252.5138,-245.8519"/>
<polygon fill="#000000" stroke="#000000" points="252.8338,-249.3392 262.6103,-245.2564 252.4215,-242.3513 252.8338,-249.3392"/>
</g>
<!-- task_runner -->
<g id="node19" class="node">
<title>task_runner</title>
<ellipse fill="none" stroke="#000000" cx="289.8339" cy="-319" rx="51.9908" ry="18"/>
<text text-anchor="middle" x="289.8339" y="-315.3" font-family="Times,serif" font-size="14.00" fill="#000000">task_runner</text>
</g>
<!-- note_player&#45;&gt;task_runner -->
<g id="edge20" class="edge">
<title>note_player&#45;&gt;task_runner</title>
<path fill="none" stroke="#000000" d="M130.9659,-380.4181C163.1037,-367.9937 210.7921,-349.5574 245.532,-336.127"/>
<polygon fill="#000000" stroke="#000000" points="246.8982,-339.3514 254.9634,-332.4809 244.374,-332.8223 246.8982,-339.3514"/>
</g>
<!-- incoming_pitch_listener_interface&#45;&gt;pitch -->
<g id="edge7" class="edge">
<title>incoming_pitch_listener_interface&#45;&gt;pitch</title>
<path fill="none" stroke="#000000" d="M835.1997,-150.8446C846.428,-140.3181 860.6434,-126.9911 872.4874,-115.8873"/>
<polygon fill="#000000" stroke="#000000" points="874.9714,-118.3562 879.873,-108.9634 870.1838,-113.2494 874.9714,-118.3562"/>
</g>
<!-- key_signature_drill -->
<g id="node10" class="node">
<title>key_signature_drill</title>
<ellipse fill="none" stroke="#000000" cx="572.8339" cy="-319" rx="79.0865" ry="18"/>
<text text-anchor="middle" x="572.8339" y="-315.3" font-family="Times,serif" font-size="14.00" fill="#000000">key_signature_drill</text>
</g>
<!-- key_signature_drill&#45;&gt;pitch -->
<g id="edge9" class="edge">
<title>key_signature_drill&#45;&gt;pitch</title>
<path fill="none" stroke="#000000" d="M562.6831,-301.0885C545.1008,-267.4143 514.2024,-194.1803 550.8339,-151 570.5323,-127.7801 771.2586,-105.9457 857.1641,-97.5871"/>
<polygon fill="#000000" stroke="#000000" points="857.6737,-101.0543 867.2925,-96.6124 857.0031,-94.0865 857.6737,-101.0543"/>
</g>
<!-- key_signature_drill&#45;&gt;sound_io_interface -->
<g id="edge12" class="edge">
<title>key_signature_drill&#45;&gt;sound_io_interface</title>
<path fill="none" stroke="#000000" d="M630.4642,-306.6153C692.0283,-293.3852 789.5108,-272.4362 854.5489,-258.4595"/>
<polygon fill="#000000" stroke="#000000" points="855.6567,-261.8015 864.6981,-256.2785 854.1859,-254.9577 855.6567,-261.8015"/>
</g>
<!-- key_signature_drill&#45;&gt;incoming_pitch_listener_interface -->
<g id="edge8" class="edge">
<title>key_signature_drill&#45;&gt;incoming_pitch_listener_interface</title>
<path fill="none" stroke="#000000" d="M570.1162,-300.7804C568.1146,-280.002 568.3757,-246.2912 586.8339,-226 604.1868,-206.924 659.8485,-192.8257 711.9465,-183.4224"/>
<polygon fill="#000000" stroke="#000000" points="712.7203,-186.8402 721.9639,-181.6627 711.5091,-179.9457 712.7203,-186.8402"/>
</g>
<!-- key_signature_drill&#45;&gt;random -->
<g id="edge10" class="edge">
<title>key_signature_drill&#45;&gt;random</title>
<path fill="none" stroke="#000000" d="M534.0519,-303.2775C502.3653,-290.4316 457.8087,-272.3682 426.2278,-259.5651"/>
<polygon fill="#000000" stroke="#000000" points="427.4545,-256.2857 416.8721,-255.7722 424.8245,-262.7729 427.4545,-256.2857"/>
</g>
<!-- scale -->
<g id="node12" class="node">
<title>scale</title>
<ellipse fill="none" stroke="#000000" cx="472.8339" cy="-244" rx="28.6953" ry="18"/>
<text text-anchor="middle" x="472.8339" y="-240.3" font-family="Times,serif" font-size="14.00" fill="#000000">scale</text>
</g>
<!-- key_signature_drill&#45;&gt;scale -->
<g id="edge11" class="edge">
<title>key_signature_drill&#45;&gt;scale</title>
<path fill="none" stroke="#000000" d="M549.6406,-301.605C534.6465,-290.3594 515.0861,-275.6891 499.4577,-263.9678"/>
<polygon fill="#000000" stroke="#000000" points="501.3337,-260.9999 491.2337,-257.7998 497.1337,-266.5999 501.3337,-260.9999"/>
</g>
<!-- wrap_qt_trace_category -->
<g id="node13" class="node">
<title>wrap_qt_trace_category</title>
<ellipse fill="none" stroke="#000000" cx="691.8339" cy="-244" rx="95.5831" ry="18"/>
<text text-anchor="middle" x="691.8339" y="-240.3" font-family="Times,serif" font-size="14.00" fill="#000000">wrap_qt_trace_category</text>
</g>
<!-- key_signature_drill&#45;&gt;wrap_qt_trace_category -->
<g id="edge13" class="edge">
<title>key_signature_drill&#45;&gt;wrap_qt_trace_category</title>
<path fill="none" stroke="#000000" d="M599.8369,-301.9813C616.3375,-291.5818 637.6482,-278.1507 655.6031,-266.8345"/>
<polygon fill="#000000" stroke="#000000" points="657.5182,-269.7647 664.112,-261.4718 653.7859,-263.8427 657.5182,-269.7647"/>
</g>
<!-- scale&#45;&gt;pitch -->
<g id="edge30" class="edge">
<title>scale&#45;&gt;pitch</title>
<path fill="none" stroke="#000000" d="M475.8581,-226.0847C480.4862,-204.6112 491.496,-169.2457 515.8339,-151 569.2508,-110.9543 771.4264,-98.6846 857.0961,-95.2371"/>
<polygon fill="#000000" stroke="#000000" points="857.3298,-98.7308 867.1884,-94.8504 857.0617,-91.7359 857.3298,-98.7308"/>
</g>
<!-- music_enums -->
<g id="node23" class="node">
<title>music_enums</title>
<ellipse fill="none" stroke="#000000" cx="403.8339" cy="-169" rx="59.5901" ry="18"/>
<text text-anchor="middle" x="403.8339" y="-165.3" font-family="Times,serif" font-size="14.00" fill="#000000">music_enums</text>
</g>
<!-- scale&#45;&gt;music_enums -->
<g id="edge29" class="edge">
<title>scale&#45;&gt;music_enums</title>
<path fill="none" stroke="#000000" d="M458.2008,-228.0944C449.0725,-218.1724 437.1294,-205.1907 426.7627,-193.9226"/>
<polygon fill="#000000" stroke="#000000" points="429.238,-191.4437 419.8917,-186.4541 424.0865,-196.1831 429.238,-191.4437"/>
</g>
<!-- null_stream -->
<g id="node26" class="node">
<title>null_stream</title>
<ellipse fill="none" stroke="#000000" cx="612.8339" cy="-169" rx="52.7911" ry="18"/>
<text text-anchor="middle" x="612.8339" y="-165.3" font-family="Times,serif" font-size="14.00" fill="#000000">null_stream</text>
</g>
<!-- wrap_qt_trace_category&#45;&gt;null_stream -->
<g id="edge46" class="edge">
<title>wrap_qt_trace_category&#45;&gt;null_stream</title>
<path fill="none" stroke="#000000" d="M673.112,-226.226C662.7317,-216.3713 649.6751,-203.9758 638.37,-193.2431"/>
<polygon fill="#000000" stroke="#000000" points="640.5398,-190.4769 630.8777,-186.1301 635.7202,-195.5535 640.5398,-190.4769"/>
</g>
<!-- main -->
<g id="node14" class="node">
<title>main</title>
<ellipse fill="none" stroke="#000000" cx="408.8339" cy="-768" rx="28.6953" ry="18"/>
<text text-anchor="middle" x="408.8339" y="-764.3" font-family="Times,serif" font-size="14.00" fill="#000000">main</text>
</g>
<!-- view_model_collection -->
<g id="node15" class="node">
<title>view_model_collection</title>
<ellipse fill="none" stroke="#000000" cx="465.8339" cy="-693" rx="93.6835" ry="18"/>
<text text-anchor="middle" x="465.8339" y="-689.3" font-family="Times,serif" font-size="14.00" fill="#000000">view_model_collection</text>
</g>
<!-- main&#45;&gt;view_model_collection -->
<g id="edge14" class="edge">
<title>main&#45;&gt;view_model_collection</title>
<path fill="none" stroke="#000000" d="M421.2021,-751.7261C428.5077,-742.1134 437.9221,-729.726 446.2199,-718.808"/>
<polygon fill="#000000" stroke="#000000" points="449.0298,-720.895 452.2941,-710.8156 443.4567,-716.6594 449.0298,-720.895"/>
</g>
<!-- view_model_collection&#45;&gt;fsynth -->
<g id="edge41" class="edge">
<title>view_model_collection&#45;&gt;fsynth</title>
<path fill="none" stroke="#000000" d="M533.5625,-680.4284C641.339,-658.468 839.8339,-609.1759 839.8339,-544 839.8339,-544 839.8339,-544 839.8339,-469 839.8339,-420.5787 871.2306,-371.5956 893.1224,-343.3268"/>
<polygon fill="#000000" stroke="#000000" points="896.0702,-345.2438 899.566,-335.2422 890.5962,-340.8808 896.0702,-345.2438"/>
</g>
<!-- view_model_collection&#45;&gt;gui_tests -->
<g id="edge42" class="edge">
<title>view_model_collection&#45;&gt;gui_tests</title>
<path fill="none" stroke="#000000" d="M420.9982,-677.1251C384.928,-664.3539 334.5953,-646.5327 299.1982,-633.9998"/>
<polygon fill="#000000" stroke="#000000" points="300.2295,-630.6521 289.6347,-630.6137 297.8931,-637.2507 300.2295,-630.6521"/>
</g>
<!-- view_model_collection&#45;&gt;music_notes -->
<g id="edge43" class="edge">
<title>view_model_collection&#45;&gt;music_notes</title>
<path fill="none" stroke="#000000" d="M477.6566,-675.099C493.9461,-650.1693 523.8809,-603.3906 546.8339,-562 573.8299,-513.3189 601.8184,-454.6598 617.4121,-421.1096"/>
<polygon fill="#000000" stroke="#000000" points="620.6311,-422.4872 621.6547,-411.9419 614.2784,-419.5472 620.6311,-422.4872"/>
</g>
<!-- random_concrete -->
<g id="node22" class="node">
<title>random_concrete</title>
<ellipse fill="none" stroke="#000000" cx="465.8339" cy="-544" rx="72.2875" ry="18"/>
<text text-anchor="middle" x="465.8339" y="-540.3" font-family="Times,serif" font-size="14.00" fill="#000000">random_concrete</text>
</g>
<!-- view_model_collection&#45;&gt;random_concrete -->
<g id="edge45" class="edge">
<title>view_model_collection&#45;&gt;random_concrete</title>
<path fill="none" stroke="#000000" d="M465.8339,-674.7297C465.8339,-649.2604 465.8339,-602.829 465.8339,-572.7094"/>
<polygon fill="#000000" stroke="#000000" points="469.334,-572.4197 465.8339,-562.4198 462.334,-572.4198 469.334,-572.4197"/>
</g>
<!-- qml_message_interceptor -->
<g id="node25" class="node">
<title>qml_message_interceptor</title>
<ellipse fill="none" stroke="#000000" cx="117.8339" cy="-319" rx="102.0819" ry="18"/>
<text text-anchor="middle" x="117.8339" y="-315.3" font-family="Times,serif" font-size="14.00" fill="#000000">qml_message_interceptor</text>
</g>
<!-- view_model_collection&#45;&gt;qml_message_interceptor -->
<g id="edge44" class="edge">
<title>view_model_collection&#45;&gt;qml_message_interceptor</title>
<path fill="none" stroke="#000000" d="M386.677,-683.3128C257.5547,-665.2773 15.8339,-621.2042 15.8339,-544 15.8339,-544 15.8339,-544 15.8339,-469 15.8339,-426.8129 11.5286,-411.1655 34.8339,-376 44.2703,-361.7614 58.5963,-350.0877 72.704,-341.0954"/>
<polygon fill="#000000" stroke="#000000" points="74.6574,-344.0047 81.4142,-335.8441 71.0431,-338.0099 74.6574,-344.0047"/>
</g>
<!-- music_notes&#45;&gt;fsynth -->
<g id="edge15" class="edge">
<title>music_notes&#45;&gt;fsynth</title>
<path fill="none" stroke="#000000" d="M674.8381,-383.5395C720.7904,-372.6621 794.085,-354.7687 856.8339,-337 863.0589,-335.2373 869.6324,-333.2656 876.0156,-331.2912"/>
<polygon fill="#000000" stroke="#000000" points="877.3193,-334.5504 885.812,-328.2161 875.2228,-327.8717 877.3193,-334.5504"/>
</g>
<!-- music_notes&#45;&gt;key_signature_drill -->
<g id="edge16" class="edge">
<title>music_notes&#45;&gt;key_signature_drill</title>
<path fill="none" stroke="#000000" d="M616.3257,-376.226C609.2785,-366.9534 600.5217,-355.4313 592.7167,-345.1615"/>
<polygon fill="#000000" stroke="#000000" points="595.2801,-342.7501 586.4427,-336.9063 589.707,-346.9857 595.2801,-342.7501"/>
</g>
<!-- music_notes&#45;&gt;wrap_qt_trace_category -->
<g id="edge18" class="edge">
<title>music_notes&#45;&gt;wrap_qt_trace_category</title>
<path fill="none" stroke="#000000" d="M640.5825,-376.1821C646.973,-365.1427 654.9527,-350.5341 660.8339,-337 670.1054,-315.6643 678.3138,-290.5993 683.9513,-271.8699"/>
<polygon fill="#000000" stroke="#000000" points="687.3371,-272.7621 686.8091,-262.1804 680.623,-270.7818 687.3371,-272.7621"/>
</g>
<!-- pitch_training -->
<g id="node17" class="node">
<title>pitch_training</title>
<ellipse fill="none" stroke="#000000" cx="787.8339" cy="-319" rx="59.5901" ry="18"/>
<text text-anchor="middle" x="787.8339" y="-315.3" font-family="Times,serif" font-size="14.00" fill="#000000">pitch_training</text>
</g>
<!-- music_notes&#45;&gt;pitch_training -->
<g id="edge17" class="edge">
<title>music_notes&#45;&gt;pitch_training</title>
<path fill="none" stroke="#000000" d="M661.4278,-379.0029C685.9173,-367.3781 720.0515,-351.1752 746.6768,-338.5366"/>
<polygon fill="#000000" stroke="#000000" points="748.2202,-341.6784 755.7532,-334.2282 745.2184,-335.3546 748.2202,-341.6784"/>
</g>
<!-- pitch_training&#45;&gt;pitch -->
<g id="edge23" class="edge">
<title>pitch_training&#45;&gt;pitch</title>
<path fill="none" stroke="#000000" d="M835.9117,-308.1685C899.2865,-293.6646 1003.4493,-268.9496 1008.8339,-262 1049.1836,-209.923 969.8854,-144.0523 924.5039,-112.4977"/>
<polygon fill="#000000" stroke="#000000" points="926.4286,-109.5739 916.1933,-106.8372 922.488,-115.3594 926.4286,-109.5739"/>
</g>
<!-- pitch_training&#45;&gt;sound_io_interface -->
<g id="edge25" class="edge">
<title>pitch_training&#45;&gt;sound_io_interface</title>
<path fill="none" stroke="#000000" d="M816.2519,-303.0944C835.7463,-292.1834 861.8512,-277.5724 883.2259,-265.609"/>
<polygon fill="#000000" stroke="#000000" points="885.047,-268.6007 892.0638,-260.6624 881.6282,-262.4923 885.047,-268.6007"/>
</g>
<!-- pitch_training&#45;&gt;incoming_pitch_listener_interface -->
<g id="edge22" class="edge">
<title>pitch_training&#45;&gt;incoming_pitch_listener_interface</title>
<path fill="none" stroke="#000000" d="M791.2114,-300.9065C796.0255,-275.1166 804.9049,-227.5484 810.5819,-197.1357"/>
<polygon fill="#000000" stroke="#000000" points="814.05,-197.6301 812.4445,-187.1577 807.1689,-196.3456 814.05,-197.6301"/>
</g>
<!-- pitch_training&#45;&gt;random -->
<g id="edge24" class="edge">
<title>pitch_training&#45;&gt;random</title>
<path fill="none" stroke="#000000" d="M734.1361,-310.9521C642.5393,-297.1314 463.1955,-269.6335 434.8339,-262 432.0259,-261.2442 429.1536,-260.3807 426.2812,-259.4503"/>
<polygon fill="#000000" stroke="#000000" points="427.203,-256.0654 416.6082,-256.0883 424.9049,-262.6774 427.203,-256.0654"/>
</g>
<!-- pitch_training&#45;&gt;wrap_qt_trace_category -->
<g id="edge26" class="edge">
<title>pitch_training&#45;&gt;wrap_qt_trace_category</title>
<path fill="none" stroke="#000000" d="M766.05,-301.9813C753.1941,-291.9376 736.7189,-279.0664 722.5584,-268.0035"/>
<polygon fill="#000000" stroke="#000000" points="724.5683,-265.1323 714.5333,-261.7339 720.2588,-270.6484 724.5683,-265.1323"/>
</g>
<!-- task_runner&#45;&gt;task -->
<g id="edge36" class="edge">
<title>task_runner&#45;&gt;task</title>
<path fill="none" stroke="#000000" d="M289.8339,-300.8446C289.8339,-292.3401 289.8339,-282.0076 289.8339,-272.4964"/>
<polygon fill="#000000" stroke="#000000" points="293.334,-272.2481 289.8339,-262.2482 286.334,-272.2482 293.334,-272.2481"/>
</g>
<!-- qmlscene_main -->
<g id="node21" class="node">
<title>qmlscene_main</title>
<ellipse fill="none" stroke="#000000" cx="522.8339" cy="-768" rx="66.8882" ry="18"/>
<text text-anchor="middle" x="522.8339" y="-764.3" font-family="Times,serif" font-size="14.00" fill="#000000">qmlscene_main</text>
</g>
<!-- qmlscene_main&#45;&gt;view_model_collection -->
<g id="edge27" class="edge">
<title>qmlscene_main&#45;&gt;view_model_collection</title>
<path fill="none" stroke="#000000" d="M509.3257,-750.226C502.2785,-740.9534 493.5217,-729.4313 485.7167,-719.1615"/>
<polygon fill="#000000" stroke="#000000" points="488.2801,-716.7501 479.4427,-710.9063 482.707,-720.9857 488.2801,-716.7501"/>
</g>
<!-- random_concrete&#45;&gt;random -->
<g id="edge28" class="edge">
<title>random_concrete&#45;&gt;random</title>
<path fill="none" stroke="#000000" d="M465.6056,-525.9081C464.5207,-484.559 458.5777,-380.5701 426.8339,-301 422.3437,-289.7447 415.3207,-278.4927 408.4645,-268.9956"/>
<polygon fill="#000000" stroke="#000000" points="411.11,-266.6908 402.2922,-260.8173 405.5226,-270.9076 411.11,-266.6908"/>
</g>
<!-- task_queue&#45;&gt;task -->
<g id="edge34" class="edge">
<title>task_queue&#45;&gt;task</title>
<path fill="none" stroke="#000000" d="M354.2149,-376.011C358.004,-356.6255 361.3807,-325.2898 350.8339,-301 344.0149,-285.2953 330.501,-271.9476 317.9226,-262.1255"/>
<polygon fill="#000000" stroke="#000000" points="319.9978,-259.3071 309.8716,-256.1908 315.8443,-264.9417 319.9978,-259.3071"/>
</g>
<!-- task_queue&#45;&gt;task_runner -->
<g id="edge35" class="edge">
<title>task_queue&#45;&gt;task_runner</title>
<path fill="none" stroke="#000000" d="M335.9179,-376.605C328.324,-367.1126 318.7781,-355.1802 310.3466,-344.6409"/>
<polygon fill="#000000" stroke="#000000" points="312.8624,-342.1828 303.8823,-336.5605 307.3963,-346.5556 312.8624,-342.1828"/>
</g>
<!-- task_queue&#45;&gt;qml_message_interceptor -->
<g id="edge33" class="edge">
<title>task_queue&#45;&gt;qml_message_interceptor</title>
<path fill="none" stroke="#000000" d="M312.5591,-381.95C275.8402,-370.0796 219.1948,-351.7675 176.4477,-337.9484"/>
<polygon fill="#000000" stroke="#000000" points="177.3191,-334.5518 166.7273,-334.8061 175.1659,-341.2125 177.3191,-334.5518"/>
</g>
</g>
</svg>
