<?xml version="1.0" encoding="UTF-8" standalone="no"?>
<!DOCTYPE svg PUBLIC "-//W3C//DTD SVG 1.1//EN"
 "http://www.w3.org/Graphics/SVG/1.1/DTD/svg11.dtd">
<!-- Generated by graphviz version 2.40.1 (20161225.0304)
 -->
<!-- Title: source tree Pages: 1 -->
<svg width="1129pt" height="854pt"
 viewBox="0.00 0.00 1129.20 853.60" xmlns="http://www.w3.org/2000/svg" xmlns:xlink="http://www.w3.org/1999/xlink">
<g id="graph0" class="graph" transform="scale(1 1) rotate(0) translate(4 849.6)">
<title>source tree</title>
<polygon fill="#ffffff" stroke="transparent" points="-4,4 -4,-849.6 1125.2013,-849.6 1125.2013,4 -4,4"/>
<!-- collection -->
<g id="node1" class="node">
<title>collection</title>
<ellipse fill="none" stroke="#000000" cx="244.9954" cy="-584" rx="45.4919" ry="18"/>
<text text-anchor="middle" x="244.9954" y="-580.3" font-family="Times,serif" font-size="14.00" fill="#000000">collection</text>
</g>
<!-- test_interface -->
<g id="node2" class="node">
<title>test_interface</title>
<ellipse fill="none" stroke="#000000" cx="179.9954" cy="-423" rx="57.6901" ry="18"/>
<text text-anchor="middle" x="179.9954" y="-419.3" font-family="Times,serif" font-size="14.00" fill="#000000">test_interface</text>
</g>
<!-- collection&#45;&gt;test_interface -->
<g id="edge1" class="edge">
<title>collection&#45;&gt;test_interface</title>
<path fill="none" stroke="#000000" d="M237.7909,-566.155C226.4679,-538.1089 204.4244,-483.5087 191.0746,-450.4423"/>
<polygon fill="#000000" stroke="#000000" points="194.2214,-448.8874 187.2321,-440.9249 187.7304,-451.508 194.2214,-448.8874"/>
</g>
<!-- test_pitch_train -->
<g id="node3" class="node">
<title>test_pitch_train</title>
<ellipse fill="none" stroke="#000000" cx="296.9954" cy="-503" rx="65.7887" ry="18"/>
<text text-anchor="middle" x="296.9954" y="-499.3" font-family="Times,serif" font-size="14.00" fill="#000000">test_pitch_train</text>
</g>
<!-- collection&#45;&gt;test_pitch_train -->
<g id="edge2" class="edge">
<title>collection&#45;&gt;test_pitch_train</title>
<path fill="none" stroke="#000000" d="M256.2786,-566.4242C263.2491,-555.5663 272.3239,-541.4305 280.1368,-529.2605"/>
<polygon fill="#000000" stroke="#000000" points="283.0976,-531.1272 285.5546,-520.8212 277.2069,-527.3456 283.0976,-531.1272"/>
</g>
<!-- test_pitch_train&#45;&gt;test_interface -->
<g id="edge43" class="edge">
<title>test_pitch_train&#45;&gt;test_interface</title>
<path fill="none" stroke="#000000" d="M272.4684,-486.2294C255.0358,-474.3097 231.4438,-458.1784 212.4526,-445.193"/>
<polygon fill="#000000" stroke="#000000" points="214.3197,-442.2297 204.0894,-439.4745 210.3687,-448.008 214.3197,-442.2297"/>
</g>
<!-- random -->
<g id="node5" class="node">
<title>random</title>
<ellipse fill="none" stroke="#000000" cx="473.9954" cy="-181" rx="38.1938" ry="18"/>
<text text-anchor="middle" x="473.9954" y="-177.3" font-family="Times,serif" font-size="14.00" fill="#000000">random</text>
</g>
<!-- test_pitch_train&#45;&gt;random -->
<g id="edge41" class="edge">
<title>test_pitch_train&#45;&gt;random</title>
<path fill="none" stroke="#000000" d="M318.5732,-485.8464C332.6643,-474.0628 350.9797,-457.6024 364.9954,-441 392.5915,-408.3109 398.7931,-398.7144 416.9954,-360 441.0556,-308.8264 458.6713,-244.8611 467.5353,-208.9055"/>
<polygon fill="#000000" stroke="#000000" points="470.9541,-209.6581 469.9022,-199.1157 464.1501,-208.0131 470.9541,-209.6581"/>
</g>
<!-- music_notes -->
<g id="node17" class="node">
<title>music_notes</title>
<ellipse fill="none" stroke="#000000" cx="671.9954" cy="-423" rx="55.4913" ry="18"/>
<text text-anchor="middle" x="671.9954" y="-419.3" font-family="Times,serif" font-size="14.00" fill="#000000">music_notes</text>
</g>
<!-- test_pitch_train&#45;&gt;music_notes -->
<g id="edge40" class="edge">
<title>test_pitch_train&#45;&gt;music_notes</title>
<path fill="none" stroke="#000000" d="M349.1375,-491.8763C419.2938,-476.9097 543.5861,-450.394 615.7726,-434.9942"/>
<polygon fill="#000000" stroke="#000000" points="616.5519,-438.4068 625.6016,-432.8973 615.0914,-431.5608 616.5519,-438.4068"/>
</g>
<!-- task_queue -->
<g id="node25" class="node">
<title>task_queue</title>
<ellipse fill="none" stroke="#000000" cx="305.9954" cy="-423" rx="50.0912" ry="18"/>
<text text-anchor="middle" x="305.9954" y="-419.3" font-family="Times,serif" font-size="14.00" fill="#000000">task_queue</text>
</g>
<!-- test_pitch_train&#45;&gt;task_queue -->
<g id="edge42" class="edge">
<title>test_pitch_train&#45;&gt;task_queue</title>
<path fill="none" stroke="#000000" d="M299.0376,-484.8468C300.1538,-474.9251 301.561,-462.4167 302.8173,-451.2492"/>
<polygon fill="#000000" stroke="#000000" points="306.3213,-451.41 303.9612,-441.0814 299.3651,-450.6274 306.3213,-451.41"/>
</g>
<!-- deck_of_scales -->
<g id="node4" class="node">
<title>deck_of_scales</title>
<ellipse fill="none" stroke="#000000" cx="343.9954" cy="-262" rx="64.189" ry="18"/>
<text text-anchor="middle" x="343.9954" y="-258.3" font-family="Times,serif" font-size="14.00" fill="#000000">deck_of_scales</text>
</g>
<!-- deck_of_scales&#45;&gt;random -->
<g id="edge3" class="edge">
<title>deck_of_scales&#45;&gt;random</title>
<path fill="none" stroke="#000000" d="M370.6165,-245.413C391.3782,-232.4769 420.2787,-214.4696 442.2456,-200.7826"/>
<polygon fill="#000000" stroke="#000000" points="444.2545,-203.6547 450.8909,-195.3959 440.5527,-197.7136 444.2545,-203.6547"/>
</g>
<!-- scale -->
<g id="node6" class="node">
<title>scale</title>
<ellipse fill="none" stroke="#000000" cx="343.9954" cy="-181" rx="28.6953" ry="18"/>
<text text-anchor="middle" x="343.9954" y="-177.3" font-family="Times,serif" font-size="14.00" fill="#000000">scale</text>
</g>
<!-- deck_of_scales&#45;&gt;scale -->
<g id="edge4" class="edge">
<title>deck_of_scales&#45;&gt;scale</title>
<path fill="none" stroke="#000000" d="M343.9954,-243.6198C343.9954,-233.5034 343.9954,-220.7309 343.9954,-209.3637"/>
<polygon fill="#000000" stroke="#000000" points="347.4955,-209.0284 343.9954,-199.0284 340.4955,-209.0284 347.4955,-209.0284"/>
</g>
<!-- pitch -->
<g id="node8" class="node">
<title>pitch</title>
<ellipse fill="none" stroke="#000000" cx="953.9954" cy="-101" rx="28.6953" ry="18"/>
<text text-anchor="middle" x="953.9954" y="-97.3" font-family="Times,serif" font-size="14.00" fill="#000000">pitch</text>
</g>
<!-- scale&#45;&gt;pitch -->
<g id="edge33" class="edge">
<title>scale&#45;&gt;pitch</title>
<path fill="none" stroke="#000000" d="M370.7824,-174.5036C386.9806,-170.7472 408.0887,-166.1547 426.9954,-163 608.8357,-132.6585 828.4128,-111.8675 915.6146,-104.2361"/>
<polygon fill="#000000" stroke="#000000" points="915.9215,-107.7227 925.5813,-103.3709 915.3161,-100.7489 915.9215,-107.7227"/>
</g>
<!-- music_enums -->
<g id="node24" class="node">
<title>music_enums</title>
<ellipse fill="none" stroke="#000000" cx="343.9954" cy="-101" rx="59.5901" ry="18"/>
<text text-anchor="middle" x="343.9954" y="-97.3" font-family="Times,serif" font-size="14.00" fill="#000000">music_enums</text>
</g>
<!-- scale&#45;&gt;music_enums -->
<g id="edge32" class="edge">
<title>scale&#45;&gt;music_enums</title>
<path fill="none" stroke="#000000" d="M343.9954,-162.8468C343.9954,-152.9251 343.9954,-140.4167 343.9954,-129.2492"/>
<polygon fill="#000000" stroke="#000000" points="347.4955,-129.0814 343.9954,-119.0814 340.4955,-129.0814 347.4955,-129.0814"/>
</g>
<!-- fsynth -->
<g id="node7" class="node">
<title>fsynth</title>
<ellipse fill="none" stroke="#000000" cx="970.9954" cy="-342" rx="32.4942" ry="18"/>
<text text-anchor="middle" x="970.9954" y="-338.3" font-family="Times,serif" font-size="14.00" fill="#000000">fsynth</text>
</g>
<!-- fsynth&#45;&gt;pitch -->
<g id="edge5" class="edge">
<title>fsynth&#45;&gt;pitch</title>
<path fill="none" stroke="#000000" d="M1002.306,-336.7136C1033.1662,-329.657 1078.698,-313.8655 1099.9954,-280 1127.6781,-235.9811 1128.6928,-206.3643 1099.9954,-163 1076.3063,-127.2037 1027.3367,-112.0131 992.655,-105.6064"/>
<polygon fill="#000000" stroke="#000000" points="992.8352,-102.0879 982.3943,-103.887 991.6783,-108.9916 992.8352,-102.0879"/>
</g>
<!-- sound_io_interface -->
<g id="node9" class="node">
<title>sound_io_interface</title>
<ellipse fill="none" stroke="#000000" cx="979.9954" cy="-262" rx="77.9862" ry="18"/>
<text text-anchor="middle" x="979.9954" y="-258.3" font-family="Times,serif" font-size="14.00" fill="#000000">sound_io_interface</text>
</g>
<!-- fsynth&#45;&gt;sound_io_interface -->
<g id="edge6" class="edge">
<title>fsynth&#45;&gt;sound_io_interface</title>
<path fill="none" stroke="#000000" d="M973.0376,-323.8468C974.1538,-313.9251 975.561,-301.4167 976.8173,-290.2492"/>
<polygon fill="#000000" stroke="#000000" points="980.3213,-290.41 977.9612,-280.0814 973.3651,-289.6274 980.3213,-290.41"/>
</g>
<!-- notation_strings -->
<g id="node21" class="node">
<title>notation_strings</title>
<ellipse fill="none" stroke="#000000" cx="953.9954" cy="-20" rx="67.6881" ry="18"/>
<text text-anchor="middle" x="953.9954" y="-16.3" font-family="Times,serif" font-size="14.00" fill="#000000">notation_strings</text>
</g>
<!-- pitch&#45;&gt;notation_strings -->
<g id="edge24" class="edge">
<title>pitch&#45;&gt;notation_strings</title>
<path fill="none" stroke="#000000" d="M953.9954,-82.6198C953.9954,-72.5034 953.9954,-59.7309 953.9954,-48.3637"/>
<polygon fill="#000000" stroke="#000000" points="957.4955,-48.0284 953.9954,-38.0284 950.4955,-48.0284 957.4955,-48.0284"/>
</g>
<!-- sound_io_interface&#45;&gt;pitch -->
<g id="edge35" class="edge">
<title>sound_io_interface&#45;&gt;pitch</title>
<path fill="none" stroke="#000000" d="M994.1832,-244.2794C1008.3416,-224.3177 1026.4623,-191.0051 1014.9954,-163 1008.1426,-146.2638 994.3507,-131.6173 981.6123,-120.7682"/>
<polygon fill="#000000" stroke="#000000" points="983.4573,-117.7595 973.477,-114.2034 979.0613,-123.2071 983.4573,-117.7595"/>
</g>
<!-- incoming_pitch_listener_interface -->
<g id="node12" class="node">
<title>incoming_pitch_listener_interface</title>
<ellipse fill="none" stroke="#000000" cx="873.9954" cy="-181" rx="131.8766" ry="18"/>
<text text-anchor="middle" x="873.9954" y="-177.3" font-family="Times,serif" font-size="14.00" fill="#000000">incoming_pitch_listener_interface</text>
</g>
<!-- sound_io_interface&#45;&gt;incoming_pitch_listener_interface -->
<g id="edge34" class="edge">
<title>sound_io_interface&#45;&gt;incoming_pitch_listener_interface</title>
<path fill="none" stroke="#000000" d="M957.2557,-244.6235C942.2329,-233.1438 922.3321,-217.9366 905.7539,-205.2683"/>
<polygon fill="#000000" stroke="#000000" points="907.5017,-202.199 897.4308,-198.9082 903.2515,-207.761 907.5017,-202.199"/>
</g>
<!-- gui_tests -->
<g id="node10" class="node">
<title>gui_tests</title>
<ellipse fill="none" stroke="#000000" cx="244.9954" cy="-664" rx="42.4939" ry="18"/>
<text text-anchor="middle" x="244.9954" y="-660.3" font-family="Times,serif" font-size="14.00" fill="#000000">gui_tests</text>
</g>
<!-- gui_tests&#45;&gt;collection -->
<g id="edge7" class="edge">
<title>gui_tests&#45;&gt;collection</title>
<path fill="none" stroke="#000000" d="M244.9954,-645.8468C244.9954,-635.9251 244.9954,-623.4167 244.9954,-612.2492"/>
<polygon fill="#000000" stroke="#000000" points="248.4955,-612.0814 244.9954,-602.0814 241.4955,-612.0814 248.4955,-612.0814"/>
</g>
<!-- note_player -->
<g id="node11" class="node">
<title>note_player</title>
<ellipse fill="none" stroke="#000000" cx="51.9954" cy="-423" rx="51.9908" ry="18"/>
<text text-anchor="middle" x="51.9954" y="-419.3" font-family="Times,serif" font-size="14.00" fill="#000000">note_player</text>
</g>
<!-- gui_tests&#45;&gt;note_player -->
<g id="edge8" class="edge">
<title>gui_tests&#45;&gt;note_player</title>
<path fill="none" stroke="#000000" d="M229.8354,-647.116C218.8647,-634.7727 203.7819,-617.543 190.9954,-602 146.9818,-548.4983 97.7562,-483.9135 71.31,-448.802"/>
<polygon fill="#000000" stroke="#000000" points="73.9014,-446.4245 65.0943,-440.535 68.3065,-450.6312 73.9014,-446.4245"/>
</g>
<!-- task -->
<g id="node19" class="node">
<title>task</title>
<ellipse fill="none" stroke="#000000" cx="95.9954" cy="-262" rx="27" ry="18"/>
<text text-anchor="middle" x="95.9954" y="-258.3" font-family="Times,serif" font-size="14.00" fill="#000000">task</text>
</g>
<!-- note_player&#45;&gt;task -->
<g id="edge22" class="edge">
<title>note_player&#45;&gt;task</title>
<path fill="none" stroke="#000000" d="M43.2585,-405.1954C34.5566,-384.8694 23.9599,-350.9514 34.9954,-324 41.9608,-306.9887 56.0953,-292.1363 69.0057,-281.2363"/>
<polygon fill="#000000" stroke="#000000" points="71.1999,-283.9632 76.8111,-274.9762 66.8202,-278.5025 71.1999,-283.9632"/>
</g>
<!-- task_runner -->
<g id="node20" class="node">
<title>task_runner</title>
<ellipse fill="none" stroke="#000000" cx="95.9954" cy="-342" rx="51.9908" ry="18"/>
<text text-anchor="middle" x="95.9954" y="-338.3" font-family="Times,serif" font-size="14.00" fill="#000000">task_runner</text>
</g>
<!-- note_player&#45;&gt;task_runner -->
<g id="edge23" class="edge">
<title>note_player&#45;&gt;task_runner</title>
<path fill="none" stroke="#000000" d="M61.7604,-405.0235C67.5139,-394.4318 74.9044,-380.8267 81.3452,-368.9696"/>
<polygon fill="#000000" stroke="#000000" points="84.5598,-370.3842 86.2577,-359.9263 78.4088,-367.0428 84.5598,-370.3842"/>
</g>
<!-- incoming_pitch_listener_interface&#45;&gt;pitch -->
<g id="edge9" class="edge">
<title>incoming_pitch_listener_interface&#45;&gt;pitch</title>
<path fill="none" stroke="#000000" d="M892.1486,-162.8468C903.7544,-151.241 918.8996,-136.0958 931.2977,-123.6977"/>
<polygon fill="#000000" stroke="#000000" points="934.0099,-125.9353 938.6061,-116.3893 929.0601,-120.9855 934.0099,-125.9353"/>
</g>
<!-- key_signature_drill -->
<g id="node13" class="node">
<title>key_signature_drill</title>
<ellipse fill="none" stroke="#000000" cx="583.9954" cy="-342" rx="79.0865" ry="18"/>
<text text-anchor="middle" x="583.9954" y="-338.3" font-family="Times,serif" font-size="14.00" fill="#000000">key_signature_drill</text>
</g>
<!-- key_signature_drill&#45;&gt;deck_of_scales -->
<g id="edge10" class="edge">
<title>key_signature_drill&#45;&gt;deck_of_scales</title>
<path fill="none" stroke="#000000" d="M539.1348,-327.0465C498.2274,-313.4107 437.8267,-293.2771 395.0781,-279.0276"/>
<polygon fill="#000000" stroke="#000000" points="396.021,-275.6526 385.4274,-275.8107 393.8074,-282.2934 396.021,-275.6526"/>
</g>
<!-- key_signature_drill&#45;&gt;random -->
<g id="edge13" class="edge">
<title>key_signature_drill&#45;&gt;random</title>
<path fill="none" stroke="#000000" d="M569.4397,-324.1789C559.6627,-311.9758 546.6661,-295.295 535.9954,-280 519.191,-255.9133 501.5579,-227.3964 489.4115,-207.1699"/>
<polygon fill="#000000" stroke="#000000" points="492.3704,-205.2982 484.2395,-198.5057 486.3599,-208.8862 492.3704,-205.2982"/>
</g>
<!-- key_signature_drill&#45;&gt;scale -->
<g id="edge14" class="edge">
<title>key_signature_drill&#45;&gt;scale</title>
<path fill="none" stroke="#000000" d="M515.1869,-333.0353C427.7992,-320.9505 286.4218,-298.7819 270.9954,-280 248.6398,-252.7818 285.3938,-219.5408 314.3702,-199.3362"/>
<polygon fill="#000000" stroke="#000000" points="316.6948,-201.9908 323.0391,-193.5055 312.788,-196.1824 316.6948,-201.9908"/>
</g>
<!-- key_signature_drill&#45;&gt;pitch -->
<g id="edge12" class="edge">
<title>key_signature_drill&#45;&gt;pitch</title>
<path fill="none" stroke="#000000" d="M579.921,-323.8717C572.8639,-287.1573 563.1778,-204.0258 608.9954,-163 653.7398,-122.9351 834.5907,-107.7942 915.0584,-102.9613"/>
<polygon fill="#000000" stroke="#000000" points="915.487,-106.4425 925.2684,-102.3713 915.0831,-99.4541 915.487,-106.4425"/>
</g>
<!-- key_signature_drill&#45;&gt;sound_io_interface -->
<g id="edge15" class="edge">
<title>key_signature_drill&#45;&gt;sound_io_interface</title>
<path fill="none" stroke="#000000" d="M643.2806,-330.0232C715.0366,-315.527 835.6387,-291.163 911.3565,-275.8664"/>
<polygon fill="#000000" stroke="#000000" points="912.1665,-279.2736 921.2753,-273.8626 910.7803,-272.4122 912.1665,-279.2736"/>
</g>
<!-- key_signature_drill&#45;&gt;incoming_pitch_listener_interface -->
<g id="edge11" class="edge">
<title>key_signature_drill&#45;&gt;incoming_pitch_listener_interface</title>
<path fill="none" stroke="#000000" d="M582.9338,-323.7556C582.709,-301.7668 585.8766,-265.144 606.9954,-244 629.6386,-221.3297 702.2378,-205.0865 766.0248,-194.7769"/>
<polygon fill="#000000" stroke="#000000" points="766.8461,-198.1906 776.1775,-193.1731 765.7539,-191.2764 766.8461,-198.1906"/>
</g>
<!-- wrap_qt_trace_category -->
<g id="node14" class="node">
<title>wrap_qt_trace_category</title>
<ellipse fill="none" stroke="#000000" cx="711.9954" cy="-262" rx="95.5831" ry="18"/>
<text text-anchor="middle" x="711.9954" y="-258.3" font-family="Times,serif" font-size="14.00" fill="#000000">wrap_qt_trace_category</text>
</g>
<!-- key_signature_drill&#45;&gt;wrap_qt_trace_category -->
<g id="edge16" class="edge">
<title>key_signature_drill&#45;&gt;wrap_qt_trace_category</title>
<path fill="none" stroke="#000000" d="M611.1409,-325.0341C629.8071,-313.3677 654.8182,-297.7357 675.2631,-284.9577"/>
<polygon fill="#000000" stroke="#000000" points="677.3791,-287.7626 684.0041,-279.4945 673.6691,-281.8266 677.3791,-287.7626"/>
</g>
<!-- null_stream -->
<g id="node27" class="node">
<title>null_stream</title>
<ellipse fill="none" stroke="#000000" cx="670.9954" cy="-181" rx="52.7911" ry="18"/>
<text text-anchor="middle" x="670.9954" y="-177.3" font-family="Times,serif" font-size="14.00" fill="#000000">null_stream</text>
</g>
<!-- wrap_qt_trace_category&#45;&gt;null_stream -->
<g id="edge49" class="edge">
<title>wrap_qt_trace_category&#45;&gt;null_stream</title>
<path fill="none" stroke="#000000" d="M702.8962,-244.0235C697.535,-233.4318 690.6484,-219.8267 684.6467,-207.9696"/>
<polygon fill="#000000" stroke="#000000" points="687.7081,-206.2677 680.0692,-198.9263 681.4626,-209.4291 687.7081,-206.2677"/>
</g>
<!-- main -->
<g id="node15" class="node">
<title>main</title>
<ellipse fill="none" stroke="#000000" cx="433.9954" cy="-825" rx="28.6953" ry="18"/>
<text text-anchor="middle" x="433.9954" y="-821.3" font-family="Times,serif" font-size="14.00" fill="#000000">main</text>
</g>
<!-- view_model_collection -->
<g id="node16" class="node">
<title>view_model_collection</title>
<ellipse fill="none" stroke="#000000" cx="490.9954" cy="-745" rx="93.6835" ry="18"/>
<text text-anchor="middle" x="490.9954" y="-741.3" font-family="Times,serif" font-size="14.00" fill="#000000">view_model_collection</text>
</g>
<!-- main&#45;&gt;view_model_collection -->
<g id="edge17" class="edge">
<title>main&#45;&gt;view_model_collection</title>
<path fill="none" stroke="#000000" d="M445.8058,-808.4239C453.4154,-797.7439 463.4758,-783.6239 472.1723,-771.4184"/>
<polygon fill="#000000" stroke="#000000" points="475.2567,-773.121 478.209,-762.9458 469.5558,-769.059 475.2567,-773.121"/>
</g>
<!-- view_model_collection&#45;&gt;fsynth -->
<g id="edge44" class="edge">
<title>view_model_collection&#45;&gt;fsynth</title>
<path fill="none" stroke="#000000" d="M555.3645,-731.7604C664.2316,-707.5003 872.9954,-652.1007 872.9954,-584 872.9954,-584 872.9954,-584 872.9954,-503 872.9954,-446.8288 917.0595,-393.5974 946.0936,-364.6198"/>
<polygon fill="#000000" stroke="#000000" points="948.742,-366.9265 953.475,-357.4476 943.8639,-361.9061 948.742,-366.9265"/>
</g>
<!-- view_model_collection&#45;&gt;gui_tests -->
<g id="edge45" class="edge">
<title>view_model_collection&#45;&gt;gui_tests</title>
<path fill="none" stroke="#000000" d="M443.5641,-729.3824C398.6175,-714.5829 331.6906,-692.546 288.1929,-678.2236"/>
<polygon fill="#000000" stroke="#000000" points="289.0692,-674.8273 278.4761,-675.0242 286.8799,-681.4762 289.0692,-674.8273"/>
</g>
<!-- view_model_collection&#45;&gt;music_notes -->
<g id="edge46" class="edge">
<title>view_model_collection&#45;&gt;music_notes</title>
<path fill="none" stroke="#000000" d="M501.2589,-726.9602C516.6679,-699.8582 546.6751,-647.0107 571.9954,-602 602.306,-548.1183 637.5143,-484.962 657.025,-449.9131"/>
<polygon fill="#000000" stroke="#000000" points="660.2898,-451.244 662.0946,-440.804 654.1733,-447.8398 660.2898,-451.244"/>
</g>
<!-- random_concrete -->
<g id="node23" class="node">
<title>random_concrete</title>
<ellipse fill="none" stroke="#000000" cx="490.9954" cy="-584" rx="72.2875" ry="18"/>
<text text-anchor="middle" x="490.9954" y="-580.3" font-family="Times,serif" font-size="14.00" fill="#000000">random_concrete</text>
</g>
<!-- view_model_collection&#45;&gt;random_concrete -->
<g id="edge48" class="edge">
<title>view_model_collection&#45;&gt;random_concrete</title>
<path fill="none" stroke="#000000" d="M490.9954,-726.8442C490.9954,-699.0634 490.9954,-645.7582 490.9954,-612.7038"/>
<polygon fill="#000000" stroke="#000000" points="494.4955,-612.3364 490.9954,-602.3365 487.4955,-612.3365 494.4955,-612.3364"/>
</g>
<!-- qml_message_interceptor -->
<g id="node26" class="node">
<title>qml_message_interceptor</title>
<ellipse fill="none" stroke="#000000" cx="305.9954" cy="-342" rx="102.0819" ry="18"/>
<text text-anchor="middle" x="305.9954" y="-338.3" font-family="Times,serif" font-size="14.00" fill="#000000">qml_message_interceptor</text>
</g>
<!-- view_model_collection&#45;&gt;qml_message_interceptor -->
<g id="edge47" class="edge">
<title>view_model_collection&#45;&gt;qml_message_interceptor</title>
<path fill="none" stroke="#000000" d="M470.2753,-726.9761C440.9847,-699.3793 390.9954,-643.5567 390.9954,-584 390.9954,-584 390.9954,-584 390.9954,-503 390.9954,-457.9376 386.8354,-444.4161 364.9954,-405 357.2062,-390.9424 345.5881,-377.606 334.7164,-366.8539"/>
<polygon fill="#000000" stroke="#000000" points="337.0184,-364.2129 327.3654,-359.846 332.1883,-369.2794 337.0184,-364.2129"/>
</g>
<!-- music_notes&#45;&gt;fsynth -->
<g id="edge18" class="edge">
<title>music_notes&#45;&gt;fsynth</title>
<path fill="none" stroke="#000000" d="M716.135,-412.0987C764.5876,-399.984 844.5926,-379.544 912.9954,-360 919.5341,-358.1318 926.4598,-356.0623 933.1623,-354.0116"/>
<polygon fill="#000000" stroke="#000000" points="934.2321,-357.3444 942.7517,-351.0461 932.164,-350.6568 934.2321,-357.3444"/>
</g>
<!-- music_notes&#45;&gt;key_signature_drill -->
<g id="edge19" class="edge">
<title>music_notes&#45;&gt;key_signature_drill</title>
<path fill="none" stroke="#000000" d="M653.3328,-405.822C641.0177,-394.4865 624.6855,-379.4534 610.9655,-366.8248"/>
<polygon fill="#000000" stroke="#000000" points="612.9674,-363.9104 603.2394,-359.7132 608.2267,-369.0608 612.9674,-363.9104"/>
</g>
<!-- music_notes&#45;&gt;wrap_qt_trace_category -->
<g id="edge21" class="edge">
<title>music_notes&#45;&gt;wrap_qt_trace_category</title>
<path fill="none" stroke="#000000" d="M676.5061,-404.8442C683.4382,-376.9426 696.767,-323.2942 704.9708,-290.2738"/>
<polygon fill="#000000" stroke="#000000" points="708.4252,-290.8854 707.4397,-280.3365 701.6318,-289.1975 708.4252,-290.8854"/>
</g>
<!-- pitch_training -->
<g id="node18" class="node">
<title>pitch_training</title>
<ellipse fill="none" stroke="#000000" cx="843.9954" cy="-342" rx="59.5901" ry="18"/>
<text text-anchor="middle" x="843.9954" y="-338.3" font-family="Times,serif" font-size="14.00" fill="#000000">pitch_training</text>
</g>
<!-- music_notes&#45;&gt;pitch_training -->
<g id="edge20" class="edge">
<title>music_notes&#45;&gt;pitch_training</title>
<path fill="none" stroke="#000000" d="M703.5428,-408.1434C731.404,-395.0227 772.2181,-375.8021 802.678,-361.4576"/>
<polygon fill="#000000" stroke="#000000" points="804.217,-364.6016 811.7728,-357.1746 801.2346,-358.2687 804.217,-364.6016"/>
</g>
<!-- pitch_training&#45;&gt;random -->
<g id="edge27" class="edge">
<title>pitch_training&#45;&gt;random</title>
<path fill="none" stroke="#000000" d="M844.4104,-323.8945C843.8697,-301.697 839.3741,-264.5079 816.9954,-244 806.0891,-234.0055 611.8698,-202.5447 520.6302,-188.2251"/>
<polygon fill="#000000" stroke="#000000" points="520.9775,-184.737 510.5565,-186.6481 519.8948,-191.6527 520.9775,-184.737"/>
</g>
<!-- pitch_training&#45;&gt;pitch -->
<g id="edge26" class="edge">
<title>pitch_training&#45;&gt;pitch</title>
<path fill="none" stroke="#000000" d="M893.1147,-331.6279C955.4824,-317.9667 1056.3283,-294.0375 1066.9954,-280 1108.8781,-224.8842 1027.9522,-153.9686 982.2642,-120.342"/>
<polygon fill="#000000" stroke="#000000" points="984.0703,-117.3293 973.912,-114.3192 979.976,-123.0071 984.0703,-117.3293"/>
</g>
<!-- pitch_training&#45;&gt;sound_io_interface -->
<g id="edge28" class="edge">
<title>pitch_training&#45;&gt;sound_io_interface</title>
<path fill="none" stroke="#000000" d="M871.517,-325.8108C891.9362,-313.7995 920.0116,-297.2846 942.4843,-284.0653"/>
<polygon fill="#000000" stroke="#000000" points="944.2617,-287.0805 951.1065,-278.9935 940.7125,-281.0469 944.2617,-287.0805"/>
</g>
<!-- pitch_training&#45;&gt;incoming_pitch_listener_interface -->
<g id="edge25" class="edge">
<title>pitch_training&#45;&gt;incoming_pitch_listener_interface</title>
<path fill="none" stroke="#000000" d="M847.3785,-323.8442C852.5775,-295.9426 862.5741,-242.2942 868.727,-209.2738"/>
<polygon fill="#000000" stroke="#000000" points="872.1875,-209.8084 870.5787,-199.3365 865.306,-208.5261 872.1875,-209.8084"/>
</g>
<!-- pitch_training&#45;&gt;wrap_qt_trace_category -->
<g id="edge29" class="edge">
<title>pitch_training&#45;&gt;wrap_qt_trace_category</title>
<path fill="none" stroke="#000000" d="M817.2832,-325.8108C797.6847,-313.9329 770.8193,-297.6509 749.1319,-284.507"/>
<polygon fill="#000000" stroke="#000000" points="750.8613,-281.4625 740.4952,-279.2726 747.2331,-287.4489 750.8613,-281.4625"/>
</g>
<!-- task_runner&#45;&gt;task -->
<g id="edge39" class="edge">
<title>task_runner&#45;&gt;task</title>
<path fill="none" stroke="#000000" d="M95.9954,-323.8468C95.9954,-313.9251 95.9954,-301.4167 95.9954,-290.2492"/>
<polygon fill="#000000" stroke="#000000" points="99.4955,-290.0814 95.9954,-280.0814 92.4955,-290.0814 99.4955,-290.0814"/>
</g>
<!-- qmlscene_main -->
<g id="node22" class="node">
<title>qmlscene_main</title>
<ellipse fill="none" stroke="#000000" cx="547.9954" cy="-825" rx="66.8882" ry="18"/>
<text text-anchor="middle" x="547.9954" y="-821.3" font-family="Times,serif" font-size="14.00" fill="#000000">qmlscene_main</text>
</g>
<!-- qmlscene_main&#45;&gt;view_model_collection -->
<g id="edge30" class="edge">
<title>qmlscene_main&#45;&gt;view_model_collection</title>
<path fill="none" stroke="#000000" d="M535.3452,-807.2454C527.797,-796.6515 518.0739,-783.005 509.6562,-771.1906"/>
<polygon fill="#000000" stroke="#000000" points="512.4605,-769.0948 503.8073,-762.9816 506.7596,-773.1568 512.4605,-769.0948"/>
</g>
<!-- random_concrete&#45;&gt;random -->
<g id="edge31" class="edge">
<title>random_concrete&#45;&gt;random</title>
<path fill="none" stroke="#000000" d="M487.7978,-565.716C482.8733,-535.9217 473.9954,-474.9975 473.9954,-423 473.9954,-423 473.9954,-423 473.9954,-342 473.9954,-295.5417 473.9954,-241.5426 473.9954,-209.3786"/>
<polygon fill="#000000" stroke="#000000" points="477.4955,-209.3503 473.9954,-199.3503 470.4955,-209.3504 477.4955,-209.3503"/>
</g>
<!-- task_queue&#45;&gt;task -->
<g id="edge37" class="edge">
<title>task_queue&#45;&gt;task</title>
<path fill="none" stroke="#000000" d="M275.4525,-408.4387C252.3719,-396.7918 220.4301,-379.2665 194.9954,-360 186.6693,-353.6931 144.4959,-311.269 117.9495,-284.3462"/>
<polygon fill="#000000" stroke="#000000" points="120.4284,-281.8752 110.9176,-277.2065 115.4411,-286.7872 120.4284,-281.8752"/>
</g>
<!-- task_queue&#45;&gt;task_runner -->
<g id="edge38" class="edge">
<title>task_queue&#45;&gt;task_runner</title>
<path fill="none" stroke="#000000" d="M271.7879,-409.8057C236.0022,-396.0026 179.6814,-374.2789 140.4665,-359.1531"/>
<polygon fill="#000000" stroke="#000000" points="141.4777,-355.7919 130.8881,-355.4586 138.9585,-362.3229 141.4777,-355.7919"/>
</g>
<!-- task_queue&#45;&gt;qml_message_interceptor -->
<g id="edge36" class="edge">
<title>task_queue&#45;&gt;qml_message_interceptor</title>
<path fill="none" stroke="#000000" d="M305.9954,-404.6198C305.9954,-394.5034 305.9954,-381.7309 305.9954,-370.3637"/>
<polygon fill="#000000" stroke="#000000" points="309.4955,-370.0284 305.9954,-360.0284 302.4955,-370.0284 309.4955,-370.0284"/>
</g>
</g>
</svg>
