<?xml version="1.0" encoding="UTF-8" standalone="no"?>
<!DOCTYPE svg PUBLIC "-//W3C//DTD SVG 1.1//EN"
 "http://www.w3.org/Graphics/SVG/1.1/DTD/svg11.dtd">
<!-- Generated by graphviz version 2.40.1 (20161225.0304)
 -->
<!-- Title: source tree Pages: 1 -->
<svg width="1169pt" height="936pt"
 viewBox="0.00 0.00 1168.84 936.00" xmlns="http://www.w3.org/2000/svg" xmlns:xlink="http://www.w3.org/1999/xlink">
<g id="graph0" class="graph" transform="scale(1 1) rotate(0) translate(4 932)">
<title>source tree</title>
<polygon fill="#ffffff" stroke="transparent" points="-4,4 -4,-932 1164.8414,-932 1164.8414,4 -4,4"/>
<!-- collection -->
<g id="node1" class="node">
<title>collection</title>
<ellipse fill="none" stroke="#000000" cx="250.9954" cy="-641" rx="45.4919" ry="18"/>
<text text-anchor="middle" x="250.9954" y="-637.3" font-family="Times,serif" font-size="14.00" fill="#000000">collection</text>
</g>
<!-- test_interface -->
<g id="node2" class="node">
<title>test_interface</title>
<ellipse fill="none" stroke="#000000" cx="179.9954" cy="-464" rx="57.6901" ry="18"/>
<text text-anchor="middle" x="179.9954" y="-460.3" font-family="Times,serif" font-size="14.00" fill="#000000">test_interface</text>
</g>
<!-- collection&#45;&gt;test_interface -->
<g id="edge1" class="edge">
<title>collection&#45;&gt;test_interface</title>
<path fill="none" stroke="#000000" d="M243.7968,-623.0542C231.3581,-592.045 205.7646,-528.2416 191.0537,-491.5679"/>
<polygon fill="#000000" stroke="#000000" points="194.1844,-489.9714 187.213,-481.9933 187.6876,-492.5775 194.1844,-489.9714"/>
</g>
<!-- test_pitch_train -->
<g id="node3" class="node">
<title>test_pitch_train</title>
<ellipse fill="none" stroke="#000000" cx="305.9954" cy="-552" rx="65.7887" ry="18"/>
<text text-anchor="middle" x="305.9954" y="-548.3" font-family="Times,serif" font-size="14.00" fill="#000000">test_pitch_train</text>
</g>
<!-- collection&#45;&gt;test_pitch_train -->
<g id="edge2" class="edge">
<title>collection&#45;&gt;test_pitch_train</title>
<path fill="none" stroke="#000000" d="M261.8616,-623.4165C269.7948,-610.5792 280.6861,-592.955 289.6642,-578.4269"/>
<polygon fill="#000000" stroke="#000000" points="292.6838,-580.1983 294.9635,-569.8516 286.7291,-576.5184 292.6838,-580.1983"/>
</g>
<!-- test_pitch_train&#45;&gt;test_interface -->
<g id="edge33" class="edge">
<title>test_pitch_train&#45;&gt;test_interface</title>
<path fill="none" stroke="#000000" d="M281.9992,-535.2407C262.2064,-521.4172 233.9456,-501.6795 212.188,-486.4837"/>
<polygon fill="#000000" stroke="#000000" points="214.1048,-483.5533 203.9023,-480.6969 210.0966,-489.2923 214.1048,-483.5533"/>
</g>
<!-- music_notes -->
<g id="node12" class="node">
<title>music_notes</title>
<ellipse fill="none" stroke="#000000" cx="651.9954" cy="-464" rx="55.4913" ry="18"/>
<text text-anchor="middle" x="651.9954" y="-460.3" font-family="Times,serif" font-size="14.00" fill="#000000">music_notes</text>
</g>
<!-- test_pitch_train&#45;&gt;music_notes -->
<g id="edge30" class="edge">
<title>test_pitch_train&#45;&gt;music_notes</title>
<path fill="none" stroke="#000000" d="M354.4695,-539.6713C418.6854,-523.339 531.597,-494.6216 598.3234,-477.6507"/>
<polygon fill="#000000" stroke="#000000" points="599.3928,-480.9902 608.2215,-475.1332 597.6673,-474.2062 599.3928,-480.9902"/>
</g>
<!-- random -->
<g id="node19" class="node">
<title>random</title>
<ellipse fill="none" stroke="#000000" cx="410.9954" cy="-287" rx="38.1938" ry="18"/>
<text text-anchor="middle" x="410.9954" y="-283.3" font-family="Times,serif" font-size="14.00" fill="#000000">random</text>
</g>
<!-- test_pitch_train&#45;&gt;random -->
<g id="edge31" class="edge">
<title>test_pitch_train&#45;&gt;random</title>
<path fill="none" stroke="#000000" d="M324.0683,-534.408C336.9519,-521.0364 353.8903,-501.6479 364.9954,-482 395.4886,-428.0494 405.8183,-354.7439 409.2807,-315.1552"/>
<polygon fill="#000000" stroke="#000000" points="412.7721,-315.4019 410.0702,-305.1574 405.7938,-314.8508 412.7721,-315.4019"/>
</g>
<!-- task_queue -->
<g id="node22" class="node">
<title>task_queue</title>
<ellipse fill="none" stroke="#000000" cx="305.9954" cy="-464" rx="50.0912" ry="18"/>
<text text-anchor="middle" x="305.9954" y="-460.3" font-family="Times,serif" font-size="14.00" fill="#000000">task_queue</text>
</g>
<!-- test_pitch_train&#45;&gt;task_queue -->
<g id="edge32" class="edge">
<title>test_pitch_train&#45;&gt;task_queue</title>
<path fill="none" stroke="#000000" d="M305.9954,-533.7663C305.9954,-521.8492 305.9954,-506.0384 305.9954,-492.4817"/>
<polygon fill="#000000" stroke="#000000" points="309.4955,-492.2103 305.9954,-482.2103 302.4955,-492.2103 309.4955,-492.2103"/>
</g>
<!-- fsynth -->
<g id="node4" class="node">
<title>fsynth</title>
<ellipse fill="none" stroke="#000000" cx="819.9954" cy="-376" rx="32.4942" ry="18"/>
<text text-anchor="middle" x="819.9954" y="-372.3" font-family="Times,serif" font-size="14.00" fill="#000000">fsynth</text>
</g>
<!-- pitch -->
<g id="node5" class="node">
<title>pitch</title>
<ellipse fill="none" stroke="#000000" cx="1023.9954" cy="-110" rx="28.6953" ry="18"/>
<text text-anchor="middle" x="1023.9954" y="-106.3" font-family="Times,serif" font-size="14.00" fill="#000000">pitch</text>
</g>
<!-- fsynth&#45;&gt;pitch -->
<g id="edge3" class="edge">
<title>fsynth&#45;&gt;pitch</title>
<path fill="none" stroke="#000000" d="M844.8594,-364.3577C888.0803,-342.5447 975.7238,-290.9535 1009.9954,-217 1021.5036,-192.1667 1024.4363,-160.83 1024.8332,-138.5001"/>
<polygon fill="#000000" stroke="#000000" points="1028.3334,-138.3357 1024.8509,-128.3296 1021.3334,-138.3235 1028.3334,-138.3357"/>
</g>
<!-- sound_io_interface -->
<g id="node6" class="node">
<title>sound_io_interface</title>
<ellipse fill="none" stroke="#000000" cx="842.9954" cy="-287" rx="77.9862" ry="18"/>
<text text-anchor="middle" x="842.9954" y="-283.3" font-family="Times,serif" font-size="14.00" fill="#000000">sound_io_interface</text>
</g>
<!-- fsynth&#45;&gt;sound_io_interface -->
<g id="edge4" class="edge">
<title>fsynth&#45;&gt;sound_io_interface</title>
<path fill="none" stroke="#000000" d="M824.6498,-357.9895C827.8608,-345.5643 832.1914,-328.8069 835.8387,-314.6935"/>
<polygon fill="#000000" stroke="#000000" points="839.2344,-315.5414 838.3479,-304.9837 832.4571,-313.7899 839.2344,-315.5414"/>
</g>
<!-- notation_strings -->
<g id="node17" class="node">
<title>notation_strings</title>
<ellipse fill="none" stroke="#000000" cx="1051.9954" cy="-22" rx="67.6881" ry="18"/>
<text text-anchor="middle" x="1051.9954" y="-18.3" font-family="Times,serif" font-size="14.00" fill="#000000">notation_strings</text>
</g>
<!-- pitch&#45;&gt;notation_strings -->
<g id="edge14" class="edge">
<title>pitch&#45;&gt;notation_strings</title>
<path fill="none" stroke="#000000" d="M1029.6616,-92.1919C1033.545,-79.9871 1038.7733,-63.555 1043.1951,-49.6581"/>
<polygon fill="#000000" stroke="#000000" points="1046.5446,-50.6742 1046.2415,-40.0837 1039.8741,-48.5517 1046.5446,-50.6742"/>
</g>
<!-- sound_io_interface&#45;&gt;pitch -->
<g id="edge25" class="edge">
<title>sound_io_interface&#45;&gt;pitch</title>
<path fill="none" stroke="#000000" d="M893.0157,-273.1704C923.5981,-262.3898 961.4309,-244.5368 985.9954,-217 1005.7963,-194.8032 1015.4569,-161.5996 1020.0518,-138.0759"/>
<polygon fill="#000000" stroke="#000000" points="1023.5347,-138.4791 1021.8248,-128.0231 1016.6411,-137.2632 1023.5347,-138.4791"/>
</g>
<!-- incoming_pitch_listener_interface -->
<g id="node9" class="node">
<title>incoming_pitch_listener_interface</title>
<ellipse fill="none" stroke="#000000" cx="844.9954" cy="-199" rx="131.8766" ry="18"/>
<text text-anchor="middle" x="844.9954" y="-195.3" font-family="Times,serif" font-size="14.00" fill="#000000">incoming_pitch_listener_interface</text>
</g>
<!-- sound_io_interface&#45;&gt;incoming_pitch_listener_interface -->
<g id="edge24" class="edge">
<title>sound_io_interface&#45;&gt;incoming_pitch_listener_interface</title>
<path fill="none" stroke="#000000" d="M843.4098,-268.7663C843.6806,-256.8492 844.04,-241.0384 844.3481,-227.4817"/>
<polygon fill="#000000" stroke="#000000" points="847.8533,-227.2873 844.5815,-217.2103 840.8551,-227.1282 847.8533,-227.2873"/>
</g>
<!-- gui_tests -->
<g id="node7" class="node">
<title>gui_tests</title>
<ellipse fill="none" stroke="#000000" cx="250.9954" cy="-729" rx="42.4939" ry="18"/>
<text text-anchor="middle" x="250.9954" y="-725.3" font-family="Times,serif" font-size="14.00" fill="#000000">gui_tests</text>
</g>
<!-- gui_tests&#45;&gt;collection -->
<g id="edge5" class="edge">
<title>gui_tests&#45;&gt;collection</title>
<path fill="none" stroke="#000000" d="M250.9954,-710.7663C250.9954,-698.8492 250.9954,-683.0384 250.9954,-669.4817"/>
<polygon fill="#000000" stroke="#000000" points="254.4955,-669.2103 250.9954,-659.2103 247.4955,-669.2103 254.4955,-669.2103"/>
</g>
<!-- note_player -->
<g id="node8" class="node">
<title>note_player</title>
<ellipse fill="none" stroke="#000000" cx="51.9954" cy="-464" rx="51.9908" ry="18"/>
<text text-anchor="middle" x="51.9954" y="-460.3" font-family="Times,serif" font-size="14.00" fill="#000000">note_player</text>
</g>
<!-- gui_tests&#45;&gt;note_player -->
<g id="edge6" class="edge">
<title>gui_tests&#45;&gt;note_player</title>
<path fill="none" stroke="#000000" d="M237.5951,-711.8049C226.6161,-697.6747 210.7108,-677.1081 196.9954,-659 151.3651,-598.7553 98.594,-527.3397 71.0193,-489.8868"/>
<polygon fill="#000000" stroke="#000000" points="73.6358,-487.5372 64.8899,-481.5573 67.9978,-491.686 73.6358,-487.5372"/>
</g>
<!-- task -->
<g id="node15" class="node">
<title>task</title>
<ellipse fill="none" stroke="#000000" cx="73.9954" cy="-287" rx="27" ry="18"/>
<text text-anchor="middle" x="73.9954" y="-283.3" font-family="Times,serif" font-size="14.00" fill="#000000">task</text>
</g>
<!-- note_player&#45;&gt;task -->
<g id="edge12" class="edge">
<title>note_player&#45;&gt;task</title>
<path fill="none" stroke="#000000" d="M37.5542,-446.3605C22.1649,-425.316 1.48,-389.0738 12.9954,-358 20.2179,-338.5105 35.4494,-320.7732 48.8845,-307.9019"/>
<polygon fill="#000000" stroke="#000000" points="51.5065,-310.2465 56.5132,-300.9093 46.7765,-305.0863 51.5065,-310.2465"/>
</g>
<!-- task_runner -->
<g id="node16" class="node">
<title>task_runner</title>
<ellipse fill="none" stroke="#000000" cx="73.9954" cy="-376" rx="51.9908" ry="18"/>
<text text-anchor="middle" x="73.9954" y="-372.3" font-family="Times,serif" font-size="14.00" fill="#000000">task_runner</text>
</g>
<!-- note_player&#45;&gt;task_runner -->
<g id="edge13" class="edge">
<title>note_player&#45;&gt;task_runner</title>
<path fill="none" stroke="#000000" d="M56.5538,-445.7663C59.5626,-433.7312 63.5642,-417.7249 66.9755,-404.0797"/>
<polygon fill="#000000" stroke="#000000" points="70.4129,-404.7606 69.4428,-394.2103 63.6219,-403.0628 70.4129,-404.7606"/>
</g>
<!-- incoming_pitch_listener_interface&#45;&gt;pitch -->
<g id="edge7" class="edge">
<title>incoming_pitch_listener_interface&#45;&gt;pitch</title>
<path fill="none" stroke="#000000" d="M879.9333,-181.6286C912.4814,-165.4455 960.5976,-141.5218 992.1208,-125.8483"/>
<polygon fill="#000000" stroke="#000000" points="993.9395,-128.8528 1001.3355,-121.2666 990.823,-122.5848 993.9395,-128.8528"/>
</g>
<!-- main -->
<g id="node10" class="node">
<title>main</title>
<ellipse fill="none" stroke="#000000" cx="494.9954" cy="-906" rx="28.6953" ry="18"/>
<text text-anchor="middle" x="494.9954" y="-902.3" font-family="Times,serif" font-size="14.00" fill="#000000">main</text>
</g>
<!-- view_model_collection -->
<g id="node11" class="node">
<title>view_model_collection</title>
<ellipse fill="none" stroke="#000000" cx="551.9954" cy="-818" rx="93.6835" ry="18"/>
<text text-anchor="middle" x="551.9954" y="-814.3" font-family="Times,serif" font-size="14.00" fill="#000000">view_model_collection</text>
</g>
<!-- main&#45;&gt;view_model_collection -->
<g id="edge8" class="edge">
<title>main&#45;&gt;view_model_collection</title>
<path fill="none" stroke="#000000" d="M505.9856,-889.0327C514.1298,-876.4591 525.3888,-859.0769 534.7304,-844.6548"/>
<polygon fill="#000000" stroke="#000000" points="537.7552,-846.4229 540.2541,-836.127 531.8799,-842.6173 537.7552,-846.4229"/>
</g>
<!-- view_model_collection&#45;&gt;fsynth -->
<g id="edge34" class="edge">
<title>view_model_collection&#45;&gt;fsynth</title>
<path fill="none" stroke="#000000" d="M606.9636,-803.4273C676.9759,-781.1499 788.9954,-731.3835 788.9954,-641 788.9954,-641 788.9954,-641 788.9954,-552 788.9954,-498.8584 802.8726,-438.0408 812.0574,-403.6077"/>
<polygon fill="#000000" stroke="#000000" points="815.4759,-404.3753 814.7367,-393.8063 808.7236,-402.5295 815.4759,-404.3753"/>
</g>
<!-- view_model_collection&#45;&gt;gui_tests -->
<g id="edge35" class="edge">
<title>view_model_collection&#45;&gt;gui_tests</title>
<path fill="none" stroke="#000000" d="M500.9348,-802.9024C443.3013,-785.8612 350.4527,-758.4076 295.6142,-742.1929"/>
<polygon fill="#000000" stroke="#000000" points="296.4161,-738.7803 285.8341,-739.3011 294.4312,-745.493 296.4161,-738.7803"/>
</g>
<!-- view_model_collection&#45;&gt;music_notes -->
<g id="edge36" class="edge">
<title>view_model_collection&#45;&gt;music_notes</title>
<path fill="none" stroke="#000000" d="M564.1213,-799.862C582.5401,-771.2854 617.1021,-713.4196 632.9954,-659 649.7456,-601.646 652.4546,-531.1891 652.5052,-492.6151"/>
<polygon fill="#000000" stroke="#000000" points="656.003,-492.1497 652.4534,-482.1672 649.0031,-492.1845 656.003,-492.1497"/>
</g>
<!-- random_concrete -->
<g id="node21" class="node">
<title>random_concrete</title>
<ellipse fill="none" stroke="#000000" cx="551.9954" cy="-641" rx="72.2875" ry="18"/>
<text text-anchor="middle" x="551.9954" y="-637.3" font-family="Times,serif" font-size="14.00" fill="#000000">random_concrete</text>
</g>
<!-- view_model_collection&#45;&gt;random_concrete -->
<g id="edge38" class="edge">
<title>view_model_collection&#45;&gt;random_concrete</title>
<path fill="none" stroke="#000000" d="M551.9954,-799.7246C551.9954,-768.774 551.9954,-705.8423 551.9954,-669.202"/>
<polygon fill="#000000" stroke="#000000" points="555.4955,-669.176 551.9954,-659.176 548.4955,-669.1761 555.4955,-669.176"/>
</g>
<!-- qml_message_interceptor -->
<g id="node23" class="node">
<title>qml_message_interceptor</title>
<ellipse fill="none" stroke="#000000" cx="283.9954" cy="-376" rx="102.0819" ry="18"/>
<text text-anchor="middle" x="283.9954" y="-372.3" font-family="Times,serif" font-size="14.00" fill="#000000">qml_message_interceptor</text>
</g>
<!-- view_model_collection&#45;&gt;qml_message_interceptor -->
<g id="edge37" class="edge">
<title>view_model_collection&#45;&gt;qml_message_interceptor</title>
<path fill="none" stroke="#000000" d="M533.6538,-800.2605C504.7847,-770.338 451.9954,-706.6475 451.9954,-641 451.9954,-641 451.9954,-641 451.9954,-552 451.9954,-480.2218 377.9773,-426.1885 328.2023,-397.9676"/>
<polygon fill="#000000" stroke="#000000" points="329.659,-394.7737 319.2137,-393.0001 326.2731,-400.9004 329.659,-394.7737"/>
</g>
<!-- music_notes&#45;&gt;fsynth -->
<g id="edge9" class="edge">
<title>music_notes&#45;&gt;fsynth</title>
<path fill="none" stroke="#000000" d="M681.2588,-448.6716C710.822,-433.1861 756.4066,-409.3084 787.1797,-393.1892"/>
<polygon fill="#000000" stroke="#000000" points="788.986,-396.1941 796.2203,-388.4536 785.7379,-389.9933 788.986,-396.1941"/>
</g>
<!-- pitch_training -->
<g id="node13" class="node">
<title>pitch_training</title>
<ellipse fill="none" stroke="#000000" cx="671.9954" cy="-376" rx="59.5901" ry="18"/>
<text text-anchor="middle" x="671.9954" y="-372.3" font-family="Times,serif" font-size="14.00" fill="#000000">pitch_training</text>
</g>
<!-- music_notes&#45;&gt;pitch_training -->
<g id="edge10" class="edge">
<title>music_notes&#45;&gt;pitch_training</title>
<path fill="none" stroke="#000000" d="M656.1394,-445.7663C658.8747,-433.7312 662.5125,-417.7249 665.6136,-404.0797"/>
<polygon fill="#000000" stroke="#000000" points="669.0534,-404.7373 667.8567,-394.2103 662.2274,-403.1859 669.0534,-404.7373"/>
</g>
<!-- wrap_qt_trace_category -->
<g id="node14" class="node">
<title>wrap_qt_trace_category</title>
<ellipse fill="none" stroke="#000000" cx="562.9954" cy="-287" rx="95.5831" ry="18"/>
<text text-anchor="middle" x="562.9954" y="-283.3" font-family="Times,serif" font-size="14.00" fill="#000000">wrap_qt_trace_category</text>
</g>
<!-- music_notes&#45;&gt;wrap_qt_trace_category -->
<g id="edge11" class="edge">
<title>music_notes&#45;&gt;wrap_qt_trace_category</title>
<path fill="none" stroke="#000000" d="M637.7755,-446.3842C627.2007,-432.6908 612.9398,-412.9056 602.9954,-394 589.4461,-368.2412 578.286,-336.8514 571.2287,-314.7522"/>
<polygon fill="#000000" stroke="#000000" points="574.5094,-313.5156 568.1911,-305.0109 567.8267,-315.5995 574.5094,-313.5156"/>
</g>
<!-- pitch_training&#45;&gt;pitch -->
<g id="edge18" class="edge">
<title>pitch_training&#45;&gt;pitch</title>
<path fill="none" stroke="#000000" d="M672.4545,-357.9602C673.9363,-314.6225 680.0089,-206.3608 703.9954,-181 742.229,-140.5758 908.7732,-120.4808 985.2917,-113.2448"/>
<polygon fill="#000000" stroke="#000000" points="985.8314,-116.71 995.4686,-112.3083 985.1899,-109.7395 985.8314,-116.71"/>
</g>
<!-- pitch_training&#45;&gt;sound_io_interface -->
<g id="edge20" class="edge">
<title>pitch_training&#45;&gt;sound_io_interface</title>
<path fill="none" stroke="#000000" d="M702.1731,-360.2935C729.8915,-345.8669 771.2044,-324.3649 801.9229,-308.3769"/>
<polygon fill="#000000" stroke="#000000" points="803.8347,-311.3276 811.0893,-303.6061 800.6029,-305.1183 803.8347,-311.3276"/>
</g>
<!-- pitch_training&#45;&gt;incoming_pitch_listener_interface -->
<g id="edge17" class="edge">
<title>pitch_training&#45;&gt;incoming_pitch_listener_interface</title>
<path fill="none" stroke="#000000" d="M683.9188,-358.2812C699.2353,-336.1598 727.2851,-297.7364 755.9954,-269 772.831,-252.1491 793.6685,-235.5675 810.9477,-222.7755"/>
<polygon fill="#000000" stroke="#000000" points="813.0984,-225.5389 819.1113,-216.8156 808.9709,-219.8852 813.0984,-225.5389"/>
</g>
<!-- pitch_training&#45;&gt;wrap_qt_trace_category -->
<g id="edge21" class="edge">
<title>pitch_training&#45;&gt;wrap_qt_trace_category</title>
<path fill="none" stroke="#000000" d="M651.2368,-359.0503C634.6645,-345.5188 611.23,-326.3842 592.6757,-311.2344"/>
<polygon fill="#000000" stroke="#000000" points="594.7569,-308.4152 584.7973,-304.8016 590.3296,-313.8373 594.7569,-308.4152"/>
</g>
<!-- pitch_training&#45;&gt;random -->
<g id="edge19" class="edge">
<title>pitch_training&#45;&gt;random</title>
<path fill="none" stroke="#000000" d="M630.7806,-362.9393C587.548,-349.0961 517.7141,-326.3297 457.9954,-305 455.4227,-304.0811 452.7773,-303.1182 450.1155,-302.1357"/>
<polygon fill="#000000" stroke="#000000" points="451.0965,-298.7657 440.5041,-298.5358 448.6412,-305.321 451.0965,-298.7657"/>
</g>
<!-- null_stream -->
<g id="node24" class="node">
<title>null_stream</title>
<ellipse fill="none" stroke="#000000" cx="562.9954" cy="-199" rx="52.7911" ry="18"/>
<text text-anchor="middle" x="562.9954" y="-195.3" font-family="Times,serif" font-size="14.00" fill="#000000">null_stream</text>
</g>
<!-- wrap_qt_trace_category&#45;&gt;null_stream -->
<g id="edge39" class="edge">
<title>wrap_qt_trace_category&#45;&gt;null_stream</title>
<path fill="none" stroke="#000000" d="M562.9954,-268.7663C562.9954,-256.8492 562.9954,-241.0384 562.9954,-227.4817"/>
<polygon fill="#000000" stroke="#000000" points="566.4955,-227.2103 562.9954,-217.2103 559.4955,-227.2103 566.4955,-227.2103"/>
</g>
<!-- task_runner&#45;&gt;task -->
<g id="edge29" class="edge">
<title>task_runner&#45;&gt;task</title>
<path fill="none" stroke="#000000" d="M73.9954,-357.9895C73.9954,-345.7658 73.9954,-329.3495 73.9954,-315.3824"/>
<polygon fill="#000000" stroke="#000000" points="77.4955,-315.2891 73.9954,-305.2892 70.4955,-315.2892 77.4955,-315.2891"/>
</g>
<!-- pitch_test -->
<g id="node18" class="node">
<title>pitch_test</title>
<ellipse fill="none" stroke="#000000" cx="1115.9954" cy="-199" rx="44.6926" ry="18"/>
<text text-anchor="middle" x="1115.9954" y="-195.3" font-family="Times,serif" font-size="14.00" fill="#000000">pitch_test</text>
</g>
<!-- pitch_test&#45;&gt;pitch -->
<g id="edge16" class="edge">
<title>pitch_test&#45;&gt;pitch</title>
<path fill="none" stroke="#000000" d="M1098.6909,-182.2598C1084.1085,-168.1529 1063.1202,-147.849 1047.1024,-132.3535"/>
<polygon fill="#000000" stroke="#000000" points="1049.3091,-129.6185 1039.6883,-125.1812 1044.4421,-134.6497 1049.3091,-129.6185"/>
</g>
<!-- pitch_test&#45;&gt;notation_strings -->
<g id="edge15" class="edge">
<title>pitch_test&#45;&gt;notation_strings</title>
<path fill="none" stroke="#000000" d="M1109.5065,-181.0542C1098.2941,-150.045 1075.224,-86.2416 1061.9634,-49.5679"/>
<polygon fill="#000000" stroke="#000000" points="1065.1933,-48.2072 1058.5014,-39.9933 1058.6104,-50.5875 1065.1933,-48.2072"/>
</g>
<!-- qmlscene_main -->
<g id="node20" class="node">
<title>qmlscene_main</title>
<ellipse fill="none" stroke="#000000" cx="608.9954" cy="-906" rx="66.8882" ry="18"/>
<text text-anchor="middle" x="608.9954" y="-902.3" font-family="Times,serif" font-size="14.00" fill="#000000">qmlscene_main</text>
</g>
<!-- qmlscene_main&#45;&gt;view_model_collection -->
<g id="edge22" class="edge">
<title>qmlscene_main&#45;&gt;view_model_collection</title>
<path fill="none" stroke="#000000" d="M597.4606,-888.1919C589.4017,-875.7501 578.4973,-858.9153 569.3878,-844.8514"/>
<polygon fill="#000000" stroke="#000000" points="572.0828,-842.574 563.7087,-836.0837 566.2076,-846.3796 572.0828,-842.574"/>
</g>
<!-- random_concrete&#45;&gt;random -->
<g id="edge23" class="edge">
<title>random_concrete&#45;&gt;random</title>
<path fill="none" stroke="#000000" d="M544.8093,-622.9584C521.7557,-565.0791 449.5535,-383.8055 421.9109,-314.4049"/>
<polygon fill="#000000" stroke="#000000" points="425.1189,-313.0003 418.167,-305.0053 418.6158,-315.5906 425.1189,-313.0003"/>
</g>
<!-- task_queue&#45;&gt;task -->
<g id="edge27" class="edge">
<title>task_queue&#45;&gt;task</title>
<path fill="none" stroke="#000000" d="M273.0039,-450.4348C244.913,-438.0258 204.2577,-417.9808 172.9954,-394 155.907,-380.8917 117.7814,-337.9179 94.1447,-310.5842"/>
<polygon fill="#000000" stroke="#000000" points="96.7814,-308.2823 87.6027,-302.9906 91.4781,-312.8513 96.7814,-308.2823"/>
</g>
<!-- task_queue&#45;&gt;task_runner -->
<g id="edge28" class="edge">
<title>task_queue&#45;&gt;task_runner</title>
<path fill="none" stroke="#000000" d="M271.5132,-450.9205C230.8243,-435.4868 163.078,-409.79 118.4724,-392.8706"/>
<polygon fill="#000000" stroke="#000000" points="119.6384,-389.5696 109.0471,-389.2955 117.1558,-396.1146 119.6384,-389.5696"/>
</g>
<!-- task_queue&#45;&gt;qml_message_interceptor -->
<g id="edge26" class="edge">
<title>task_queue&#45;&gt;qml_message_interceptor</title>
<path fill="none" stroke="#000000" d="M301.437,-445.7663C298.4282,-433.7312 294.4266,-417.7249 291.0153,-404.0797"/>
<polygon fill="#000000" stroke="#000000" points="294.3689,-403.0628 288.548,-394.2103 287.5779,-404.7606 294.3689,-403.0628"/>
</g>
</g>
</svg>
