<?xml version="1.0" encoding="UTF-8" standalone="no"?>
<!DOCTYPE svg PUBLIC "-//W3C//DTD SVG 1.1//EN"
 "http://www.w3.org/Graphics/SVG/1.1/DTD/svg11.dtd">
<!-- Generated by graphviz version 2.40.1 (20161225.0304)
 -->
<!-- Title: source tree Pages: 1 -->
<svg width="1445pt" height="1014pt"
 viewBox="0.00 0.00 1445.49 1013.90" xmlns="http://www.w3.org/2000/svg" xmlns:xlink="http://www.w3.org/1999/xlink">
<g id="graph0" class="graph" transform="scale(1 1) rotate(0) translate(4 1009.9)">
<title>source tree</title>
<polygon fill="#ffffff" stroke="transparent" points="-4,4 -4,-1009.9 1441.4856,-1009.9 1441.4856,4 -4,4"/>
<!-- collection_active -->
<g id="node1" class="node">
<title>collection_active</title>
<ellipse fill="none" stroke="#000000" cx="89.6442" cy="-972" rx="70.6878" ry="18"/>
<text text-anchor="middle" x="89.6442" y="-968.3" font-family="Times,serif" font-size="14.00" fill="#000000">collection_active</text>
</g>
<!-- collection -->
<g id="node2" class="node">
<title>collection</title>
<ellipse fill="none" stroke="#000000" cx="65.6442" cy="-570" rx="45.4919" ry="18"/>
<text text-anchor="middle" x="65.6442" y="-566.3" font-family="Times,serif" font-size="14.00" fill="#000000">collection</text>
</g>
<!-- collection_active&#45;&gt;collection -->
<g id="edge1" class="edge">
<title>collection_active&#45;&gt;collection</title>
<path fill="none" stroke="#000000" d="M85.5541,-953.9459C77.0038,-890.3116 63.9945,-676.1182 63.6651,-598.4403"/>
<polygon fill="#000000" stroke="#000000" points="67.1669,-598.0195 63.7106,-588.0043 60.1669,-597.9889 67.1669,-598.0195"/>
</g>
<!-- interface -->
<g id="node3" class="node">
<title>interface</title>
<ellipse fill="none" stroke="#000000" cx="144.6442" cy="-704" rx="41.6928" ry="18"/>
<text text-anchor="middle" x="144.6442" y="-700.3" font-family="Times,serif" font-size="14.00" fill="#000000">interface</text>
</g>
<!-- collection_active&#45;&gt;interface -->
<g id="edge2" class="edge">
<title>collection_active&#45;&gt;interface</title>
<path fill="none" stroke="#000000" d="M93.3383,-953.9996C102.7285,-908.2437 127.5671,-787.2121 138.8822,-732.0764"/>
<polygon fill="#000000" stroke="#000000" points="142.3118,-732.7744 140.8937,-722.2749 135.4548,-731.3671 142.3118,-732.7744"/>
</g>
<!-- test_pitch_train -->
<g id="node4" class="node">
<title>test_pitch_train</title>
<ellipse fill="none" stroke="#000000" cx="343.6442" cy="-838" rx="65.7887" ry="18"/>
<text text-anchor="middle" x="343.6442" y="-834.3" font-family="Times,serif" font-size="14.00" fill="#000000">test_pitch_train</text>
</g>
<!-- collection_active&#45;&gt;test_pitch_train -->
<g id="edge3" class="edge">
<title>collection_active&#45;&gt;test_pitch_train</title>
<path fill="none" stroke="#000000" d="M120.5356,-955.7029C166.7115,-931.3425 253.7088,-885.4462 304.3476,-858.7312"/>
<polygon fill="#000000" stroke="#000000" points="306.1504,-861.7375 313.3619,-853.9757 302.8841,-855.5462 306.1504,-861.7375"/>
</g>
<!-- collection&#45;&gt;collection_active -->
<g id="edge4" class="edge">
<title>collection&#45;&gt;collection_active</title>
<path fill="none" stroke="#000000" d="M69.7276,-588.0043C78.2756,-651.5601 91.287,-865.7498 91.623,-943.4989"/>
<polygon fill="#000000" stroke="#000000" points="88.1212,-943.9311 91.5785,-953.9459 95.1211,-943.9609 88.1212,-943.9311"/>
</g>
<!-- collection_inert -->
<g id="node5" class="node">
<title>collection_inert</title>
<ellipse fill="none" stroke="#000000" cx="65.6442" cy="-436" rx="65.7887" ry="18"/>
<text text-anchor="middle" x="65.6442" y="-432.3" font-family="Times,serif" font-size="14.00" fill="#000000">collection_inert</text>
</g>
<!-- collection&#45;&gt;collection_inert -->
<g id="edge5" class="edge">
<title>collection&#45;&gt;collection_inert</title>
<path fill="none" stroke="#000000" d="M60.8556,-551.9282C58.5613,-529.4503 58.2797,-490.8174 60.011,-464.3748"/>
<polygon fill="#000000" stroke="#000000" points="63.5152,-464.4653 60.8412,-454.2135 56.5384,-463.8952 63.5152,-464.4653"/>
</g>
<!-- test_pitch_train&#45;&gt;interface -->
<g id="edge36" class="edge">
<title>test_pitch_train&#45;&gt;interface</title>
<path fill="none" stroke="#000000" d="M318.8431,-821.2997C282.6157,-796.9055 215.2546,-751.5467 175.7537,-724.9481"/>
<polygon fill="#000000" stroke="#000000" points="177.5446,-721.9345 167.2949,-719.2522 173.6348,-727.7409 177.5446,-721.9345"/>
</g>
<!-- music_notes -->
<g id="node15" class="node">
<title>music_notes</title>
<ellipse fill="none" stroke="#000000" cx="779.6442" cy="-704" rx="55.4913" ry="18"/>
<text text-anchor="middle" x="779.6442" y="-700.3" font-family="Times,serif" font-size="14.00" fill="#000000">music_notes</text>
</g>
<!-- test_pitch_train&#45;&gt;music_notes -->
<g id="edge37" class="edge">
<title>test_pitch_train&#45;&gt;music_notes</title>
<path fill="none" stroke="#000000" d="M387.4458,-824.538C468.9759,-799.4806 643.5287,-745.8336 729.5802,-719.3866"/>
<polygon fill="#000000" stroke="#000000" points="730.8435,-722.66 739.374,-716.3766 728.787,-715.9689 730.8435,-722.66"/>
</g>
<!-- random -->
<g id="node22" class="node">
<title>random</title>
<ellipse fill="none" stroke="#000000" cx="585.6442" cy="-436" rx="38.1938" ry="18"/>
<text text-anchor="middle" x="585.6442" y="-432.3" font-family="Times,serif" font-size="14.00" fill="#000000">random</text>
</g>
<!-- test_pitch_train&#45;&gt;random -->
<g id="edge38" class="edge">
<title>test_pitch_train&#45;&gt;random</title>
<path fill="none" stroke="#000000" d="M376.0264,-822.2031C412.3074,-803.0344 470.7298,-767.5483 506.6442,-722 568.5399,-643.501 581.992,-519.6655 584.8782,-464.3382"/>
<polygon fill="#000000" stroke="#000000" points="588.3803,-464.3649 585.3258,-454.2199 581.3872,-464.0555 588.3803,-464.3649"/>
</g>
<!-- task_queue -->
<g id="node25" class="node">
<title>task_queue</title>
<ellipse fill="none" stroke="#000000" cx="447.6442" cy="-704" rx="50.0912" ry="18"/>
<text text-anchor="middle" x="447.6442" y="-700.3" font-family="Times,serif" font-size="14.00" fill="#000000">task_queue</text>
</g>
<!-- test_pitch_train&#45;&gt;task_queue -->
<g id="edge39" class="edge">
<title>test_pitch_train&#45;&gt;task_queue</title>
<path fill="none" stroke="#000000" d="M357.4546,-820.2058C375.5032,-796.9509 407.2317,-756.0699 427.8388,-729.5185"/>
<polygon fill="#000000" stroke="#000000" points="430.7409,-731.4877 434.1072,-721.4419 425.2109,-727.1958 430.7409,-731.4877"/>
</g>
<!-- helpers -->
<g id="node27" class="node">
<title>helpers</title>
<ellipse fill="none" stroke="#000000" cx="240.6442" cy="-704" rx="36.2938" ry="18"/>
<text text-anchor="middle" x="240.6442" y="-700.3" font-family="Times,serif" font-size="14.00" fill="#000000">helpers</text>
</g>
<!-- test_pitch_train&#45;&gt;helpers -->
<g id="edge35" class="edge">
<title>test_pitch_train&#45;&gt;helpers</title>
<path fill="none" stroke="#000000" d="M329.9666,-820.2058C311.9927,-796.8224 280.3204,-755.6176 259.9219,-729.0797"/>
<polygon fill="#000000" stroke="#000000" points="262.596,-726.8155 253.7268,-721.0201 257.0461,-731.0815 262.596,-726.8155"/>
</g>
<!-- collection_inert&#45;&gt;collection -->
<g id="edge6" class="edge">
<title>collection_inert&#45;&gt;collection</title>
<path fill="none" stroke="#000000" d="M70.4471,-454.2135C72.733,-476.759 73.0061,-515.4001 71.2664,-541.7914"/>
<polygon fill="#000000" stroke="#000000" points="67.7643,-541.6749 70.4327,-551.9282 74.7407,-542.2487 67.7643,-541.6749"/>
</g>
<!-- fsynth -->
<g id="node6" class="node">
<title>fsynth</title>
<ellipse fill="none" stroke="#000000" cx="1017.6442" cy="-570" rx="32.4942" ry="18"/>
<text text-anchor="middle" x="1017.6442" y="-566.3" font-family="Times,serif" font-size="14.00" fill="#000000">fsynth</text>
</g>
<!-- native_onIncomingMidi -->
<g id="node7" class="node">
<title>native_onIncomingMidi</title>
<ellipse fill="none" stroke="#000000" cx="1340.6442" cy="-436" rx="96.6831" ry="18"/>
<text text-anchor="middle" x="1340.6442" y="-432.3" font-family="Times,serif" font-size="14.00" fill="#000000">native_onIncomingMidi</text>
</g>
<!-- fsynth&#45;&gt;native_onIncomingMidi -->
<g id="edge7" class="edge">
<title>fsynth&#45;&gt;native_onIncomingMidi</title>
<path fill="none" stroke="#000000" d="M1043.803,-559.1477C1097.7362,-536.773 1222.042,-485.2034 1291.4718,-456.3997"/>
<polygon fill="#000000" stroke="#000000" points="1292.9959,-459.5567 1300.8914,-452.4919 1290.3135,-453.091 1292.9959,-459.5567"/>
</g>
<!-- pitch -->
<g id="node8" class="node">
<title>pitch</title>
<ellipse fill="none" stroke="#000000" cx="1196.6442" cy="-168" rx="28.6953" ry="18"/>
<text text-anchor="middle" x="1196.6442" y="-164.3" font-family="Times,serif" font-size="14.00" fill="#000000">pitch</text>
</g>
<!-- fsynth&#45;&gt;pitch -->
<g id="edge8" class="edge">
<title>fsynth&#45;&gt;pitch</title>
<path fill="none" stroke="#000000" d="M1032.8316,-553.7923C1066.9005,-516.2433 1148.9133,-418.921 1180.6442,-320 1193.9841,-278.4127 1196.7844,-227.4687 1197.0835,-196.3909"/>
<polygon fill="#000000" stroke="#000000" points="1200.5835,-196.2798 1197.0981,-186.2747 1193.5835,-196.2696 1200.5835,-196.2798"/>
</g>
<!-- sound_io_interface -->
<g id="node9" class="node">
<title>sound_io_interface</title>
<ellipse fill="none" stroke="#000000" cx="1017.6442" cy="-436" rx="77.9862" ry="18"/>
<text text-anchor="middle" x="1017.6442" y="-432.3" font-family="Times,serif" font-size="14.00" fill="#000000">sound_io_interface</text>
</g>
<!-- fsynth&#45;&gt;sound_io_interface -->
<g id="edge9" class="edge">
<title>fsynth&#45;&gt;sound_io_interface</title>
<path fill="none" stroke="#000000" d="M1017.6442,-551.9282C1017.6442,-529.4503 1017.6442,-490.8174 1017.6442,-464.3748"/>
<polygon fill="#000000" stroke="#000000" points="1021.1443,-464.2134 1017.6442,-454.2135 1014.1443,-464.2135 1021.1443,-464.2134"/>
</g>
<!-- notation_strings -->
<g id="node20" class="node">
<title>notation_strings</title>
<ellipse fill="none" stroke="#000000" cx="1224.6442" cy="-34" rx="67.6881" ry="18"/>
<text text-anchor="middle" x="1224.6442" y="-30.3" font-family="Times,serif" font-size="14.00" fill="#000000">notation_strings</text>
</g>
<!-- pitch&#45;&gt;notation_strings -->
<g id="edge19" class="edge">
<title>pitch&#45;&gt;notation_strings</title>
<path fill="none" stroke="#000000" d="M1200.4204,-149.9282C1205.1381,-127.3504 1213.2616,-88.4737 1218.7886,-62.0229"/>
<polygon fill="#000000" stroke="#000000" points="1222.2189,-62.718 1220.8384,-52.2135 1215.3669,-61.2862 1222.2189,-62.718"/>
</g>
<!-- sound_io_interface&#45;&gt;pitch -->
<g id="edge30" class="edge">
<title>sound_io_interface&#45;&gt;pitch</title>
<path fill="none" stroke="#000000" d="M1047.8339,-419.2074C1080.2026,-399.6203 1130.699,-364.2114 1158.6442,-320 1182.9308,-281.5766 1191.7024,-228.5478 1194.8657,-196.3542"/>
<polygon fill="#000000" stroke="#000000" points="1198.3617,-196.5511 1195.7378,-186.2863 1191.3878,-195.947 1198.3617,-196.5511"/>
</g>
<!-- incoming_pitch_listener_interface -->
<g id="node12" class="node">
<title>incoming_pitch_listener_interface</title>
<ellipse fill="none" stroke="#000000" cx="1017.6442" cy="-302" rx="131.8766" ry="18"/>
<text text-anchor="middle" x="1017.6442" y="-298.3" font-family="Times,serif" font-size="14.00" fill="#000000">incoming_pitch_listener_interface</text>
</g>
<!-- sound_io_interface&#45;&gt;incoming_pitch_listener_interface -->
<g id="edge29" class="edge">
<title>sound_io_interface&#45;&gt;incoming_pitch_listener_interface</title>
<path fill="none" stroke="#000000" d="M1017.6442,-417.9282C1017.6442,-395.4503 1017.6442,-356.8174 1017.6442,-330.3748"/>
<polygon fill="#000000" stroke="#000000" points="1021.1443,-330.2134 1017.6442,-320.2135 1014.1443,-330.2135 1021.1443,-330.2134"/>
</g>
<!-- gui_tests -->
<g id="node10" class="node">
<title>gui_tests</title>
<ellipse fill="none" stroke="#000000" cx="337.6442" cy="-704" rx="42.4939" ry="18"/>
<text text-anchor="middle" x="337.6442" y="-700.3" font-family="Times,serif" font-size="14.00" fill="#000000">gui_tests</text>
</g>
<!-- gui_tests&#45;&gt;collection -->
<g id="edge10" class="edge">
<title>gui_tests&#45;&gt;collection</title>
<path fill="none" stroke="#000000" d="M309.8137,-690.2894C260.7923,-666.1391 159.0051,-615.994 103.5904,-588.6941"/>
<polygon fill="#000000" stroke="#000000" points="104.9751,-585.4746 94.4578,-584.1949 101.8815,-591.754 104.9751,-585.4746"/>
</g>
<!-- note_player -->
<g id="node11" class="node">
<title>note_player</title>
<ellipse fill="none" stroke="#000000" cx="239.6442" cy="-570" rx="51.9908" ry="18"/>
<text text-anchor="middle" x="239.6442" y="-566.3" font-family="Times,serif" font-size="14.00" fill="#000000">note_player</text>
</g>
<!-- gui_tests&#45;&gt;note_player -->
<g id="edge11" class="edge">
<title>gui_tests&#45;&gt;note_player</title>
<path fill="none" stroke="#000000" d="M325.033,-686.7562C308.1467,-663.6667 278.0514,-622.516 258.4746,-595.7477"/>
<polygon fill="#000000" stroke="#000000" points="261.2465,-593.6087 252.5181,-587.6032 255.5962,-597.741 261.2465,-593.6087"/>
</g>
<!-- task -->
<g id="node18" class="node">
<title>task</title>
<ellipse fill="none" stroke="#000000" cx="218.6442" cy="-302" rx="27" ry="18"/>
<text text-anchor="middle" x="218.6442" y="-298.3" font-family="Times,serif" font-size="14.00" fill="#000000">task</text>
</g>
<!-- note_player&#45;&gt;task -->
<g id="edge17" class="edge">
<title>note_player&#45;&gt;task</title>
<path fill="none" stroke="#000000" d="M238.2337,-551.9996C234.6558,-506.3388 225.2039,-385.7151 220.8712,-330.4211"/>
<polygon fill="#000000" stroke="#000000" points="224.3467,-329.9709 220.0762,-320.2749 217.3681,-330.5178 224.3467,-329.9709"/>
</g>
<!-- task_runner -->
<g id="node19" class="node">
<title>task_runner</title>
<ellipse fill="none" stroke="#000000" cx="298.6442" cy="-436" rx="51.9908" ry="18"/>
<text text-anchor="middle" x="298.6442" y="-432.3" font-family="Times,serif" font-size="14.00" fill="#000000">task_runner</text>
</g>
<!-- note_player&#45;&gt;task_runner -->
<g id="edge18" class="edge">
<title>note_player&#45;&gt;task_runner</title>
<path fill="none" stroke="#000000" d="M247.6012,-551.9282C257.5861,-529.2505 274.8111,-490.1293 286.46,-463.6725"/>
<polygon fill="#000000" stroke="#000000" points="289.7983,-464.776 290.6248,-454.2135 283.3918,-461.9552 289.7983,-464.776"/>
</g>
<!-- incoming_pitch_listener_interface&#45;&gt;pitch -->
<g id="edge12" class="edge">
<title>incoming_pitch_listener_interface&#45;&gt;pitch</title>
<path fill="none" stroke="#000000" d="M1041.414,-284.2058C1074.7289,-259.2662 1135.1241,-214.0541 1169.9469,-187.9857"/>
<polygon fill="#000000" stroke="#000000" points="1172.3092,-190.5893 1178.2171,-181.7946 1168.1142,-184.9856 1172.3092,-190.5893"/>
</g>
<!-- main -->
<g id="node13" class="node">
<title>main</title>
<ellipse fill="none" stroke="#000000" cx="736.6442" cy="-972" rx="28.6953" ry="18"/>
<text text-anchor="middle" x="736.6442" y="-968.3" font-family="Times,serif" font-size="14.00" fill="#000000">main</text>
</g>
<!-- view_model_collection -->
<g id="node14" class="node">
<title>view_model_collection</title>
<ellipse fill="none" stroke="#000000" cx="679.6442" cy="-838" rx="93.6835" ry="18"/>
<text text-anchor="middle" x="679.6442" y="-834.3" font-family="Times,serif" font-size="14.00" fill="#000000">view_model_collection</text>
</g>
<!-- main&#45;&gt;view_model_collection -->
<g id="edge13" class="edge">
<title>main&#45;&gt;view_model_collection</title>
<path fill="none" stroke="#000000" d="M729.1924,-954.4818C719.5594,-931.8358 702.6779,-892.1494 691.3309,-865.474"/>
<polygon fill="#000000" stroke="#000000" points="694.4148,-863.7822 687.2797,-855.9502 687.9733,-866.5223 694.4148,-863.7822"/>
</g>
<!-- view_model_collection&#45;&gt;fsynth -->
<g id="edge40" class="edge">
<title>view_model_collection&#45;&gt;fsynth</title>
<path fill="none" stroke="#000000" d="M705.8037,-820.7114C738.6793,-798.7109 796.5088,-759.0997 843.6442,-722 899.086,-678.3624 960.4866,-622.931 993.4827,-592.5147"/>
<polygon fill="#000000" stroke="#000000" points="995.8863,-595.0592 1000.8531,-585.7007 991.1343,-589.9193 995.8863,-595.0592"/>
</g>
<!-- view_model_collection&#45;&gt;gui_tests -->
<g id="edge41" class="edge">
<title>view_model_collection&#45;&gt;gui_tests</title>
<path fill="none" stroke="#000000" d="M638.391,-821.8365C572.487,-796.0144 444.2081,-745.7531 378.5341,-720.0212"/>
<polygon fill="#000000" stroke="#000000" points="379.5196,-716.6483 368.9319,-716.2589 376.9659,-723.1659 379.5196,-716.6483"/>
</g>
<!-- view_model_collection&#45;&gt;music_notes -->
<g id="edge42" class="edge">
<title>view_model_collection&#45;&gt;music_notes</title>
<path fill="none" stroke="#000000" d="M693.1306,-819.9282C710.4487,-796.722 740.6167,-756.2969 760.3578,-729.8437"/>
<polygon fill="#000000" stroke="#000000" points="763.1955,-731.8932 766.3714,-721.7855 757.5855,-727.7066 763.1955,-731.8932"/>
</g>
<!-- random_concrete -->
<g id="node24" class="node">
<title>random_concrete</title>
<ellipse fill="none" stroke="#000000" cx="679.6442" cy="-570" rx="72.2875" ry="18"/>
<text text-anchor="middle" x="679.6442" y="-566.3" font-family="Times,serif" font-size="14.00" fill="#000000">random_concrete</text>
</g>
<!-- view_model_collection&#45;&gt;random_concrete -->
<g id="edge44" class="edge">
<title>view_model_collection&#45;&gt;random_concrete</title>
<path fill="none" stroke="#000000" d="M679.6442,-819.9996C679.6442,-774.3388 679.6442,-653.7151 679.6442,-598.4211"/>
<polygon fill="#000000" stroke="#000000" points="683.1443,-598.2749 679.6442,-588.2749 676.1443,-598.275 683.1443,-598.2749"/>
</g>
<!-- qml_message_interceptor -->
<g id="node26" class="node">
<title>qml_message_interceptor</title>
<ellipse fill="none" stroke="#000000" cx="449.6442" cy="-570" rx="102.0819" ry="18"/>
<text text-anchor="middle" x="449.6442" y="-566.3" font-family="Times,serif" font-size="14.00" fill="#000000">qml_message_interceptor</text>
</g>
<!-- view_model_collection&#45;&gt;qml_message_interceptor -->
<g id="edge43" class="edge">
<title>view_model_collection&#45;&gt;qml_message_interceptor</title>
<path fill="none" stroke="#000000" d="M664.1961,-819.9996C624.3423,-773.5613 517.945,-649.5853 471.6606,-595.654"/>
<polygon fill="#000000" stroke="#000000" points="474.1936,-593.2312 465.025,-587.922 468.8816,-597.79 474.1936,-593.2312"/>
</g>
<!-- music_notes&#45;&gt;fsynth -->
<g id="edge14" class="edge">
<title>music_notes&#45;&gt;fsynth</title>
<path fill="none" stroke="#000000" d="M807.4116,-688.3662C851.8999,-663.3182 938.9039,-614.3328 985.8294,-587.9125"/>
<polygon fill="#000000" stroke="#000000" points="987.659,-590.8991 994.6557,-582.9431 984.2247,-584.7994 987.659,-590.8991"/>
</g>
<!-- pitch_training -->
<g id="node16" class="node">
<title>pitch_training</title>
<ellipse fill="none" stroke="#000000" cx="867.6442" cy="-570" rx="59.5901" ry="18"/>
<text text-anchor="middle" x="867.6442" y="-566.3" font-family="Times,serif" font-size="14.00" fill="#000000">pitch_training</text>
</g>
<!-- music_notes&#45;&gt;pitch_training -->
<g id="edge15" class="edge">
<title>music_notes&#45;&gt;pitch_training</title>
<path fill="none" stroke="#000000" d="M791.3299,-686.2058C806.4517,-663.1795 832.9223,-622.8719 850.3689,-596.3056"/>
<polygon fill="#000000" stroke="#000000" points="853.3463,-598.1477 855.9101,-587.8678 847.4952,-594.3052 853.3463,-598.1477"/>
</g>
<!-- wrap_qt_trace_category -->
<g id="node17" class="node">
<title>wrap_qt_trace_category</title>
<ellipse fill="none" stroke="#000000" cx="737.6442" cy="-436" rx="95.5831" ry="18"/>
<text text-anchor="middle" x="737.6442" y="-432.3" font-family="Times,serif" font-size="14.00" fill="#000000">wrap_qt_trace_category</text>
</g>
<!-- music_notes&#45;&gt;wrap_qt_trace_category -->
<g id="edge16" class="edge">
<title>music_notes&#45;&gt;wrap_qt_trace_category</title>
<path fill="none" stroke="#000000" d="M777.7824,-685.69C774.7765,-657.0732 768.4,-600.0455 760.6442,-552 755.764,-521.7682 748.7627,-487.3863 743.7688,-463.9532"/>
<polygon fill="#000000" stroke="#000000" points="747.155,-463.0517 741.6303,-454.0114 740.3115,-464.5238 747.155,-463.0517"/>
</g>
<!-- pitch_training&#45;&gt;pitch -->
<g id="edge23" class="edge">
<title>pitch_training&#45;&gt;pitch</title>
<path fill="none" stroke="#000000" d="M865.6521,-551.7347C859.915,-495.5857 845.6655,-326.735 876.6442,-284 910.8454,-236.8195 1082.2766,-193.4865 1159.1933,-176.0754"/>
<polygon fill="#000000" stroke="#000000" points="1160.4006,-179.3919 1169.3951,-173.7929 1158.8722,-172.5608 1160.4006,-179.3919"/>
</g>
<!-- pitch_training&#45;&gt;sound_io_interface -->
<g id="edge25" class="edge">
<title>pitch_training&#45;&gt;sound_io_interface</title>
<path fill="none" stroke="#000000" d="M886.947,-552.7562C913.241,-529.2669 960.459,-487.0854 990.3641,-460.3702"/>
<polygon fill="#000000" stroke="#000000" points="992.8133,-462.8755 997.9392,-453.6032 988.1498,-457.6551 992.8133,-462.8755"/>
</g>
<!-- pitch_training&#45;&gt;incoming_pitch_listener_interface -->
<g id="edge22" class="edge">
<title>pitch_training&#45;&gt;incoming_pitch_listener_interface</title>
<path fill="none" stroke="#000000" d="M873.4536,-552.0037C883.2239,-522.844 904.4678,-463.9082 930.6442,-418 949.5233,-384.8897 976.5028,-350.3687 995.3973,-327.6872"/>
<polygon fill="#000000" stroke="#000000" points="998.1983,-329.7947 1001.9626,-319.8911 992.844,-325.2856 998.1983,-329.7947"/>
</g>
<!-- pitch_training&#45;&gt;wrap_qt_trace_category -->
<g id="edge26" class="edge">
<title>pitch_training&#45;&gt;wrap_qt_trace_category</title>
<path fill="none" stroke="#000000" d="M850.6489,-552.4818C828.0982,-529.2373 788.1303,-488.0395 762.273,-461.3866"/>
<polygon fill="#000000" stroke="#000000" points="764.5338,-458.6905 755.0585,-453.9502 759.5096,-463.5647 764.5338,-458.6905"/>
</g>
<!-- pitch_training&#45;&gt;random -->
<g id="edge24" class="edge">
<title>pitch_training&#45;&gt;random</title>
<path fill="none" stroke="#000000" d="M835.5697,-554.759C782.6215,-529.5991 677.2761,-479.5414 621.7773,-453.1696"/>
<polygon fill="#000000" stroke="#000000" points="623.1999,-449.9706 612.6655,-448.8399 620.1955,-456.2931 623.1999,-449.9706"/>
</g>
<!-- null_stream -->
<g id="node28" class="node">
<title>null_stream</title>
<ellipse fill="none" stroke="#000000" cx="737.6442" cy="-302" rx="52.7911" ry="18"/>
<text text-anchor="middle" x="737.6442" y="-298.3" font-family="Times,serif" font-size="14.00" fill="#000000">null_stream</text>
</g>
<!-- wrap_qt_trace_category&#45;&gt;null_stream -->
<g id="edge45" class="edge">
<title>wrap_qt_trace_category&#45;&gt;null_stream</title>
<path fill="none" stroke="#000000" d="M737.6442,-417.9282C737.6442,-395.4503 737.6442,-356.8174 737.6442,-330.3748"/>
<polygon fill="#000000" stroke="#000000" points="741.1443,-330.2134 737.6442,-320.2135 734.1443,-330.2135 741.1443,-330.2134"/>
</g>
<!-- task_runner&#45;&gt;task -->
<g id="edge34" class="edge">
<title>task_runner&#45;&gt;task</title>
<path fill="none" stroke="#000000" d="M288.0208,-418.2058C274.1814,-395.0248 249.8858,-354.3298 234.0306,-327.7723"/>
<polygon fill="#000000" stroke="#000000" points="236.9367,-325.8121 228.8054,-319.0201 230.9264,-329.4004 236.9367,-325.8121"/>
</g>
<!-- pitch_test -->
<g id="node21" class="node">
<title>pitch_test</title>
<ellipse fill="none" stroke="#000000" cx="1288.6442" cy="-302" rx="44.6926" ry="18"/>
<text text-anchor="middle" x="1288.6442" y="-298.3" font-family="Times,serif" font-size="14.00" fill="#000000">pitch_test</text>
</g>
<!-- pitch_test&#45;&gt;pitch -->
<g id="edge21" class="edge">
<title>pitch_test&#45;&gt;pitch</title>
<path fill="none" stroke="#000000" d="M1276.6168,-284.4818C1260.6007,-261.1541 1232.1703,-219.7446 1213.8778,-193.1012"/>
<polygon fill="#000000" stroke="#000000" points="1216.6411,-190.9421 1208.0955,-184.6792 1210.8702,-194.9042 1216.6411,-190.9421"/>
</g>
<!-- pitch_test&#45;&gt;notation_strings -->
<g id="edge20" class="edge">
<title>pitch_test&#45;&gt;notation_strings</title>
<path fill="none" stroke="#000000" d="M1284.3456,-283.9996C1273.4188,-238.2437 1244.5157,-117.2121 1231.349,-62.0764"/>
<polygon fill="#000000" stroke="#000000" points="1234.7354,-61.1885 1229.0083,-52.2749 1227.9269,-62.8144 1234.7354,-61.1885"/>
</g>
<!-- qmlscene_main -->
<g id="node23" class="node">
<title>qmlscene_main</title>
<ellipse fill="none" stroke="#000000" cx="622.6442" cy="-972" rx="66.8882" ry="18"/>
<text text-anchor="middle" x="622.6442" y="-968.3" font-family="Times,serif" font-size="14.00" fill="#000000">qmlscene_main</text>
</g>
<!-- qmlscene_main&#45;&gt;view_model_collection -->
<g id="edge27" class="edge">
<title>qmlscene_main&#45;&gt;view_model_collection</title>
<path fill="none" stroke="#000000" d="M630.3314,-953.9282C639.9779,-931.2505 656.619,-892.1293 667.873,-865.6725"/>
<polygon fill="#000000" stroke="#000000" points="671.203,-866.7856 671.8967,-856.2135 664.7616,-864.0455 671.203,-866.7856"/>
</g>
<!-- random_concrete&#45;&gt;random -->
<g id="edge28" class="edge">
<title>random_concrete&#45;&gt;random</title>
<path fill="none" stroke="#000000" d="M667.1617,-552.2058C650.9191,-529.0515 622.4189,-488.4235 603.7876,-461.8641"/>
<polygon fill="#000000" stroke="#000000" points="606.4877,-459.6185 597.8795,-453.4419 600.7571,-463.6385 606.4877,-459.6185"/>
</g>
<!-- task_queue&#45;&gt;task -->
<g id="edge32" class="edge">
<title>task_queue&#45;&gt;task</title>
<path fill="none" stroke="#000000" d="M412.2305,-691.2039C342.3632,-665.6113 192.322,-608.7936 178.6442,-588 124.5632,-505.7838 176.9284,-381.5103 204.3016,-328.0058"/>
<polygon fill="#000000" stroke="#000000" points="207.55,-329.3472 209.0906,-318.865 201.3495,-326.0986 207.55,-329.3472"/>
</g>
<!-- task_queue&#45;&gt;task_runner -->
<g id="edge33" class="edge">
<title>task_queue&#45;&gt;task_runner</title>
<path fill="none" stroke="#000000" d="M426.7121,-687.4361C402.0042,-666.7652 361.4063,-629.0964 338.6442,-588 316.6692,-548.3247 306.3676,-496.0945 301.8446,-464.337"/>
<polygon fill="#000000" stroke="#000000" points="305.3109,-463.8513 300.5237,-454.3996 298.3719,-464.7737 305.3109,-463.8513"/>
</g>
<!-- task_queue&#45;&gt;qml_message_interceptor -->
<g id="edge31" class="edge">
<title>task_queue&#45;&gt;qml_message_interceptor</title>
<path fill="none" stroke="#000000" d="M447.9139,-685.9282C448.2494,-663.4503 448.826,-624.8174 449.2207,-598.3748"/>
<polygon fill="#000000" stroke="#000000" points="452.7226,-598.2646 449.3723,-588.2135 445.7234,-598.1601 452.7226,-598.2646"/>
</g>
</g>
</svg>
