<?xml version="1.0" encoding="UTF-8" standalone="no"?>
<!DOCTYPE svg PUBLIC "-//W3C//DTD SVG 1.1//EN"
 "http://www.w3.org/Graphics/SVG/1.1/DTD/svg11.dtd">
<!-- Generated by graphviz version 2.40.1 (20161225.0304)
 -->
<!-- Title: source tree Pages: 1 -->
<svg width="1585pt" height="1111pt"
 viewBox="0.00 0.00 1584.98 1111.20" xmlns="http://www.w3.org/2000/svg" xmlns:xlink="http://www.w3.org/1999/xlink">
<g id="graph0" class="graph" transform="scale(1 1) rotate(0) translate(4 1107.2)">
<title>source tree</title>
<polygon fill="#ffffff" stroke="transparent" points="-4,4 -4,-1107.2 1580.9827,-1107.2 1580.9827,4 -4,4"/>
<!-- collection_active -->
<g id="node1" class="node">
<title>collection_active</title>
<ellipse fill="none" stroke="#000000" cx="727.5963" cy="-1066" rx="70.6878" ry="18"/>
<text text-anchor="middle" x="727.5963" y="-1062.3" font-family="Times,serif" font-size="14.00" fill="#000000">collection_active</text>
</g>
<!-- collection -->
<g id="node2" class="node">
<title>collection</title>
<ellipse fill="none" stroke="#000000" cx="1160.5963" cy="-625" rx="45.4919" ry="18"/>
<text text-anchor="middle" x="1160.5963" y="-621.3" font-family="Times,serif" font-size="14.00" fill="#000000">collection</text>
</g>
<!-- collection_active&#45;&gt;collection -->
<g id="edge1" class="edge">
<title>collection_active&#45;&gt;collection</title>
<path fill="none" stroke="#000000" d="M768.9733,-1051.387C854.8173,-1020.2593 1049.8105,-937.8981 1123.5963,-790 1145.7174,-745.6599 1150.7915,-687.17 1154.375,-653.0612"/>
<polygon fill="#000000" stroke="#000000" points="1157.879,-653.2181 1155.5058,-642.8925 1150.9219,-652.4443 1157.879,-653.2181"/>
</g>
<!-- interface -->
<g id="node3" class="node">
<title>interface</title>
<ellipse fill="none" stroke="#000000" cx="41.5963" cy="-772" rx="41.6928" ry="18"/>
<text text-anchor="middle" x="41.5963" y="-768.3" font-family="Times,serif" font-size="14.00" fill="#000000">interface</text>
</g>
<!-- collection_active&#45;&gt;interface -->
<g id="edge2" class="edge">
<title>collection_active&#45;&gt;interface</title>
<path fill="none" stroke="#000000" d="M660.1499,-1060.2942C557.7002,-1049.2478 359.2884,-1018.3787 212.5963,-937 147.6379,-900.9638 89.4596,-833.9897 60.6609,-797.4283"/>
<polygon fill="#000000" stroke="#000000" points="63.2104,-795.0048 54.3128,-789.253 57.6815,-799.298 63.2104,-795.0048"/>
</g>
<!-- test_pitch_train -->
<g id="node4" class="node">
<title>test_pitch_train</title>
<ellipse fill="none" stroke="#000000" cx="287.5963" cy="-919" rx="65.7887" ry="18"/>
<text text-anchor="middle" x="287.5963" y="-915.3" font-family="Times,serif" font-size="14.00" fill="#000000">test_pitch_train</text>
</g>
<!-- collection_active&#45;&gt;test_pitch_train -->
<g id="edge3" class="edge">
<title>collection_active&#45;&gt;test_pitch_train</title>
<path fill="none" stroke="#000000" d="M684.6061,-1051.6374C603.1935,-1024.4381 426.8428,-965.521 339.1971,-936.2394"/>
<polygon fill="#000000" stroke="#000000" points="340.0632,-932.8386 329.4694,-932.9894 337.845,-939.4779 340.0632,-932.8386"/>
</g>
<!-- collection&#45;&gt;collection_active -->
<g id="edge4" class="edge">
<title>collection&#45;&gt;collection_active</title>
<path fill="none" stroke="#000000" d="M1166.2625,-642.8925C1169.6901,-674.3441 1166.1115,-740.8612 1141.5963,-790 1069.3423,-934.8276 880.8613,-1016.8113 785.0746,-1049.3819"/>
<polygon fill="#000000" stroke="#000000" points="783.9197,-1046.0775 775.5421,-1052.5634 786.1359,-1052.7175 783.9197,-1046.0775"/>
</g>
<!-- collection_inert -->
<g id="node5" class="node">
<title>collection_inert</title>
<ellipse fill="none" stroke="#000000" cx="1324.5963" cy="-478" rx="65.7887" ry="18"/>
<text text-anchor="middle" x="1324.5963" y="-474.3" font-family="Times,serif" font-size="14.00" fill="#000000">collection_inert</text>
</g>
<!-- collection&#45;&gt;collection_inert -->
<g id="edge5" class="edge">
<title>collection&#45;&gt;collection_inert</title>
<path fill="none" stroke="#000000" d="M1175.2058,-607.8495C1201.7107,-581.6264 1257.4471,-531.4875 1292.9487,-501.7715"/>
<polygon fill="#000000" stroke="#000000" points="1295.6043,-504.1165 1301.0715,-495.0412 1291.1382,-498.7264 1295.6043,-504.1165"/>
</g>
<!-- test_pitch_train&#45;&gt;interface -->
<g id="edge36" class="edge">
<title>test_pitch_train&#45;&gt;interface</title>
<path fill="none" stroke="#000000" d="M259.8552,-902.423C214.3127,-875.2086 123.8763,-821.1673 74.9281,-791.9178"/>
<polygon fill="#000000" stroke="#000000" points="76.6709,-788.882 66.2914,-786.7568 73.0802,-794.8909 76.6709,-788.882"/>
</g>
<!-- music_notes -->
<g id="node19" class="node">
<title>music_notes</title>
<ellipse fill="none" stroke="#000000" cx="807.5963" cy="-772" rx="55.4913" ry="18"/>
<text text-anchor="middle" x="807.5963" y="-768.3" font-family="Times,serif" font-size="14.00" fill="#000000">music_notes</text>
</g>
<!-- test_pitch_train&#45;&gt;music_notes -->
<g id="edge37" class="edge">
<title>test_pitch_train&#45;&gt;music_notes</title>
<path fill="none" stroke="#000000" d="M333.7428,-905.9547C430.5647,-878.5839 654.3359,-815.3255 755.8488,-786.6286"/>
<polygon fill="#000000" stroke="#000000" points="756.9032,-789.9678 765.5739,-783.8794 754.9989,-783.2318 756.9032,-789.9678"/>
</g>
<!-- random -->
<g id="node24" class="node">
<title>random</title>
<ellipse fill="none" stroke="#000000" cx="406.5963" cy="-478" rx="38.1938" ry="18"/>
<text text-anchor="middle" x="406.5963" y="-474.3" font-family="Times,serif" font-size="14.00" fill="#000000">random</text>
</g>
<!-- test_pitch_train&#45;&gt;random -->
<g id="edge38" class="edge">
<title>test_pitch_train&#45;&gt;random</title>
<path fill="none" stroke="#000000" d="M289.5241,-900.6359C292.1321,-875.624 296.8848,-829.4421 300.5963,-790 308.2451,-708.7155 288.74,-683.7444 316.5963,-607 331.3292,-566.4107 362.1989,-526.747 383.6498,-502.3511"/>
<polygon fill="#000000" stroke="#000000" points="386.4552,-504.4652 390.5265,-494.6838 381.2441,-499.7914 386.4552,-504.4652"/>
</g>
<!-- task_queue -->
<g id="node27" class="node">
<title>task_queue</title>
<ellipse fill="none" stroke="#000000" cx="151.5963" cy="-772" rx="50.0912" ry="18"/>
<text text-anchor="middle" x="151.5963" y="-768.3" font-family="Times,serif" font-size="14.00" fill="#000000">task_queue</text>
</g>
<!-- test_pitch_train&#45;&gt;task_queue -->
<g id="edge39" class="edge">
<title>test_pitch_train&#45;&gt;task_queue</title>
<path fill="none" stroke="#000000" d="M271.1915,-901.2684C247.0663,-875.1918 201.9218,-826.3959 174.5279,-796.7864"/>
<polygon fill="#000000" stroke="#000000" points="176.9972,-794.3016 167.637,-789.338 171.8589,-799.0553 176.9972,-794.3016"/>
</g>
<!-- helpers -->
<g id="node31" class="node">
<title>helpers</title>
<ellipse fill="none" stroke="#000000" cx="255.5963" cy="-772" rx="36.2938" ry="18"/>
<text text-anchor="middle" x="255.5963" y="-768.3" font-family="Times,serif" font-size="14.00" fill="#000000">helpers</text>
</g>
<!-- test_pitch_train&#45;&gt;helpers -->
<g id="edge35" class="edge">
<title>test_pitch_train&#45;&gt;helpers</title>
<path fill="none" stroke="#000000" d="M283.6725,-900.9749C278.2026,-875.8475 268.2307,-830.0393 261.7621,-800.324"/>
<polygon fill="#000000" stroke="#000000" points="265.0993,-799.1992 259.5522,-790.1725 258.2595,-800.6882 265.0993,-799.1992"/>
</g>
<!-- collection_inert&#45;&gt;collection -->
<g id="edge6" class="edge">
<title>collection_inert&#45;&gt;collection</title>
<path fill="none" stroke="#000000" d="M1309.3128,-495.8163C1282.1982,-522.5585 1226.0062,-573.0576 1190.8776,-602.3703"/>
<polygon fill="#000000" stroke="#000000" points="1188.3443,-599.9231 1182.8609,-608.9886 1192.8008,-605.3212 1188.3443,-599.9231"/>
</g>
<!-- event_filter -->
<g id="node6" class="node">
<title>event_filter</title>
<ellipse fill="none" stroke="#000000" cx="969.5963" cy="-772" rx="51.1914" ry="18"/>
<text text-anchor="middle" x="969.5963" y="-768.3" font-family="Times,serif" font-size="14.00" fill="#000000">event_filter</text>
</g>
<!-- every_so_often -->
<g id="node7" class="node">
<title>every_so_often</title>
<ellipse fill="none" stroke="#000000" cx="1032.5963" cy="-625" rx="64.9885" ry="18"/>
<text text-anchor="middle" x="1032.5963" y="-621.3" font-family="Times,serif" font-size="14.00" fill="#000000">every_so_often</text>
</g>
<!-- event_filter&#45;&gt;every_so_often -->
<g id="edge7" class="edge">
<title>event_filter&#45;&gt;every_so_often</title>
<path fill="none" stroke="#000000" d="M977.3213,-753.9749C988.1847,-728.6271 1008.0674,-682.2341 1020.791,-652.5458"/>
<polygon fill="#000000" stroke="#000000" points="1024.0858,-653.7427 1024.8081,-643.1725 1017.6518,-650.9852 1024.0858,-653.7427"/>
</g>
<!-- fsynth -->
<g id="node8" class="node">
<title>fsynth</title>
<ellipse fill="none" stroke="#000000" cx="917.5963" cy="-625" rx="32.4942" ry="18"/>
<text text-anchor="middle" x="917.5963" y="-621.3" font-family="Times,serif" font-size="14.00" fill="#000000">fsynth</text>
</g>
<!-- native_onIncomingMidi -->
<g id="node9" class="node">
<title>native_onIncomingMidi</title>
<ellipse fill="none" stroke="#000000" cx="1144.5963" cy="-478" rx="96.6831" ry="18"/>
<text text-anchor="middle" x="1144.5963" y="-474.3" font-family="Times,serif" font-size="14.00" fill="#000000">native_onIncomingMidi</text>
</g>
<!-- fsynth&#45;&gt;native_onIncomingMidi -->
<g id="edge8" class="edge">
<title>fsynth&#45;&gt;native_onIncomingMidi</title>
<path fill="none" stroke="#000000" d="M938.9519,-611.1706C978.0188,-585.8718 1061.3577,-531.9034 1109.0818,-500.9984"/>
<polygon fill="#000000" stroke="#000000" points="1111.0685,-503.8817 1117.5598,-495.5082 1107.2636,-498.0061 1111.0685,-503.8817"/>
</g>
<!-- pitch -->
<g id="node10" class="node">
<title>pitch</title>
<ellipse fill="none" stroke="#000000" cx="1000.5963" cy="-184" rx="28.6953" ry="18"/>
<text text-anchor="middle" x="1000.5963" y="-180.3" font-family="Times,serif" font-size="14.00" fill="#000000">pitch</text>
</g>
<!-- fsynth&#45;&gt;pitch -->
<g id="edge9" class="edge">
<title>fsynth&#45;&gt;pitch</title>
<path fill="none" stroke="#000000" d="M932.6329,-608.648C952.7151,-585.5792 987.3043,-541.2241 1000.5963,-496 1030.238,-395.1487 1014.9395,-267.9086 1005.8017,-212.2423"/>
<polygon fill="#000000" stroke="#000000" points="1009.2022,-211.362 1004.0714,-202.0924 1002.3017,-212.5384 1009.2022,-211.362"/>
</g>
<!-- sound_io_interface -->
<g id="node11" class="node">
<title>sound_io_interface</title>
<ellipse fill="none" stroke="#000000" cx="913.5963" cy="-478" rx="77.9862" ry="18"/>
<text text-anchor="middle" x="913.5963" y="-474.3" font-family="Times,serif" font-size="14.00" fill="#000000">sound_io_interface</text>
</g>
<!-- fsynth&#45;&gt;sound_io_interface -->
<g id="edge10" class="edge">
<title>fsynth&#45;&gt;sound_io_interface</title>
<path fill="none" stroke="#000000" d="M917.1058,-606.9749C916.4221,-581.8475 915.1756,-536.0393 914.367,-506.324"/>
<polygon fill="#000000" stroke="#000000" points="917.8616,-506.0736 914.0908,-496.1725 910.8642,-506.2641 917.8616,-506.0736"/>
</g>
<!-- notation_strings -->
<g id="node22" class="node">
<title>notation_strings</title>
<ellipse fill="none" stroke="#000000" cx="1028.5963" cy="-37" rx="67.6881" ry="18"/>
<text text-anchor="middle" x="1028.5963" y="-33.3" font-family="Times,serif" font-size="14.00" fill="#000000">notation_strings</text>
</g>
<!-- pitch&#45;&gt;notation_strings -->
<g id="edge19" class="edge">
<title>pitch&#45;&gt;notation_strings</title>
<path fill="none" stroke="#000000" d="M1004.0297,-165.9749C1008.8158,-140.8475 1017.5412,-95.0393 1023.2013,-65.324"/>
<polygon fill="#000000" stroke="#000000" points="1026.7019,-65.6508 1025.1349,-55.1725 1019.8255,-64.341 1026.7019,-65.6508"/>
</g>
<!-- sound_io_interface&#45;&gt;pitch -->
<g id="edge30" class="edge">
<title>sound_io_interface&#45;&gt;pitch</title>
<path fill="none" stroke="#000000" d="M921.3733,-459.901C931.7823,-435.1895 950.3502,-389.3469 962.5963,-349 977.0025,-301.5363 988.9269,-244.957 995.3822,-211.8998"/>
<polygon fill="#000000" stroke="#000000" points="998.8277,-212.5164 997.2822,-202.0349 991.9541,-211.1925 998.8277,-212.5164"/>
</g>
<!-- incoming_pitch_listener_interface -->
<g id="node13" class="node">
<title>incoming_pitch_listener_interface</title>
<ellipse fill="none" stroke="#000000" cx="821.5963" cy="-331" rx="131.8766" ry="18"/>
<text text-anchor="middle" x="821.5963" y="-327.3" font-family="Times,serif" font-size="14.00" fill="#000000">incoming_pitch_listener_interface</text>
</g>
<!-- sound_io_interface&#45;&gt;incoming_pitch_listener_interface -->
<g id="edge29" class="edge">
<title>sound_io_interface&#45;&gt;incoming_pitch_listener_interface</title>
<path fill="none" stroke="#000000" d="M902.3153,-459.9749C886.3134,-434.4066 856.9103,-387.4257 838.3535,-357.7751"/>
<polygon fill="#000000" stroke="#000000" points="841.2417,-355.7925 832.9696,-349.1725 835.3079,-359.5061 841.2417,-355.7925"/>
</g>
<!-- gui_tests -->
<g id="node12" class="node">
<title>gui_tests</title>
<ellipse fill="none" stroke="#000000" cx="1081.5963" cy="-772" rx="42.4939" ry="18"/>
<text text-anchor="middle" x="1081.5963" y="-768.3" font-family="Times,serif" font-size="14.00" fill="#000000">gui_tests</text>
</g>
<!-- gui_tests&#45;&gt;collection -->
<g id="edge11" class="edge">
<title>gui_tests&#45;&gt;collection</title>
<path fill="none" stroke="#000000" d="M1091.1256,-754.2684C1104.8269,-728.7735 1130.1993,-681.5615 1146.1957,-651.796"/>
<polygon fill="#000000" stroke="#000000" points="1149.3824,-653.26 1151.0333,-642.7945 1143.2164,-649.9462 1149.3824,-653.26"/>
</g>
<!-- incoming_pitch_listener_interface&#45;&gt;pitch -->
<g id="edge12" class="edge">
<title>incoming_pitch_listener_interface&#45;&gt;pitch</title>
<path fill="none" stroke="#000000" d="M843.5452,-312.9749C876.8196,-285.649 939.876,-233.8653 975.124,-204.9186"/>
<polygon fill="#000000" stroke="#000000" points="977.5287,-207.4728 983.0355,-198.4215 973.0862,-202.0631 977.5287,-207.4728"/>
</g>
<!-- lib -->
<g id="node14" class="node">
<title>lib</title>
<ellipse fill="none" stroke="#000000" cx="1423.5963" cy="-1066" rx="27" ry="18"/>
<text text-anchor="middle" x="1423.5963" y="-1062.3" font-family="Times,serif" font-size="14.00" fill="#000000">lib</text>
</g>
<!-- quarantined_awaiting_warning_fixes -->
<g id="node15" class="node">
<title>quarantined_awaiting_warning_fixes</title>
<ellipse fill="none" stroke="#000000" cx="1423.5963" cy="-919" rx="141.8751" ry="18"/>
<text text-anchor="middle" x="1423.5963" y="-915.3" font-family="Times,serif" font-size="14.00" fill="#000000">quarantined_awaiting_warning_fixes</text>
</g>
<!-- lib&#45;&gt;quarantined_awaiting_warning_fixes -->
<g id="edge13" class="edge">
<title>lib&#45;&gt;quarantined_awaiting_warning_fixes</title>
<path fill="none" stroke="#000000" d="M1423.5963,-1047.9749C1423.5963,-1022.8475 1423.5963,-977.0393 1423.5963,-947.324"/>
<polygon fill="#000000" stroke="#000000" points="1427.0964,-947.1725 1423.5963,-937.1725 1420.0964,-947.1726 1427.0964,-947.1725"/>
</g>
<!-- sample_header_exempt_from_warnings -->
<g id="node25" class="node">
<title>sample_header_exempt_from_warnings</title>
<ellipse fill="none" stroke="#000000" cx="1423.5963" cy="-772" rx="153.2729" ry="18"/>
<text text-anchor="middle" x="1423.5963" y="-768.3" font-family="Times,serif" font-size="14.00" fill="#000000">sample_header_exempt_from_warnings</text>
</g>
<!-- quarantined_awaiting_warning_fixes&#45;&gt;sample_header_exempt_from_warnings -->
<g id="edge27" class="edge">
<title>quarantined_awaiting_warning_fixes&#45;&gt;sample_header_exempt_from_warnings</title>
<path fill="none" stroke="#000000" d="M1423.5963,-900.9749C1423.5963,-875.8475 1423.5963,-830.0393 1423.5963,-800.324"/>
<polygon fill="#000000" stroke="#000000" points="1427.0964,-800.1725 1423.5963,-790.1725 1420.0964,-800.1726 1427.0964,-800.1725"/>
</g>
<!-- main -->
<g id="node16" class="node">
<title>main</title>
<ellipse fill="none" stroke="#000000" cx="1060.5963" cy="-1066" rx="28.6953" ry="18"/>
<text text-anchor="middle" x="1060.5963" y="-1062.3" font-family="Times,serif" font-size="14.00" fill="#000000">main</text>
</g>
<!-- logger -->
<g id="node17" class="node">
<title>logger</title>
<ellipse fill="none" stroke="#000000" cx="1230.5963" cy="-919" rx="33.2948" ry="18"/>
<text text-anchor="middle" x="1230.5963" y="-915.3" font-family="Times,serif" font-size="14.00" fill="#000000">logger</text>
</g>
<!-- main&#45;&gt;logger -->
<g id="edge14" class="edge">
<title>main&#45;&gt;logger</title>
<path fill="none" stroke="#000000" d="M1077.5181,-1051.3677C1107.3742,-1025.5509 1169.5693,-971.7704 1204.8015,-941.3049"/>
<polygon fill="#000000" stroke="#000000" points="1207.4497,-943.6421 1212.7246,-934.4537 1202.8711,-938.3471 1207.4497,-943.6421"/>
</g>
<!-- view_model_collection -->
<g id="node18" class="node">
<title>view_model_collection</title>
<ellipse fill="none" stroke="#000000" cx="890.5963" cy="-919" rx="93.6835" ry="18"/>
<text text-anchor="middle" x="890.5963" y="-915.3" font-family="Times,serif" font-size="14.00" fill="#000000">view_model_collection</text>
</g>
<!-- main&#45;&gt;view_model_collection -->
<g id="edge15" class="edge">
<title>main&#45;&gt;view_model_collection</title>
<path fill="none" stroke="#000000" d="M1043.6746,-1051.3677C1014.4733,-1026.1171 954.3359,-974.116 918.7475,-943.3425"/>
<polygon fill="#000000" stroke="#000000" points="920.9717,-940.6387 911.1181,-936.7453 916.3931,-945.9337 920.9717,-940.6387"/>
</g>
<!-- view_model_collection&#45;&gt;event_filter -->
<g id="edge40" class="edge">
<title>view_model_collection&#45;&gt;event_filter</title>
<path fill="none" stroke="#000000" d="M900.2833,-900.9749C914.0392,-875.3785 939.3279,-828.3222 955.2596,-798.6773"/>
<polygon fill="#000000" stroke="#000000" points="958.426,-800.1788 960.0769,-789.7134 952.26,-796.8651 958.426,-800.1788"/>
</g>
<!-- view_model_collection&#45;&gt;fsynth -->
<g id="edge41" class="edge">
<title>view_model_collection&#45;&gt;fsynth</title>
<path fill="none" stroke="#000000" d="M892.2853,-900.609C896.8609,-850.7859 909.5193,-712.9501 915.0051,-653.2148"/>
<polygon fill="#000000" stroke="#000000" points="918.5132,-653.2869 915.9425,-643.0087 911.5425,-652.6467 918.5132,-653.2869"/>
</g>
<!-- view_model_collection&#45;&gt;gui_tests -->
<g id="edge42" class="edge">
<title>view_model_collection&#45;&gt;gui_tests</title>
<path fill="none" stroke="#000000" d="M913.6354,-901.2684C948.5954,-874.362 1014.9838,-823.2672 1052.9863,-794.0192"/>
<polygon fill="#000000" stroke="#000000" points="1055.3058,-796.6507 1061.0958,-787.7779 1051.0364,-791.1034 1055.3058,-796.6507"/>
</g>
<!-- view_model_collection&#45;&gt;music_notes -->
<g id="edge43" class="edge">
<title>view_model_collection&#45;&gt;music_notes</title>
<path fill="none" stroke="#000000" d="M880.4189,-900.9749C865.9665,-875.3785 839.3973,-828.3222 822.659,-798.6773"/>
<polygon fill="#000000" stroke="#000000" points="825.5622,-796.7004 817.5977,-789.7134 819.4667,-800.1421 825.5622,-796.7004"/>
</g>
<!-- random_concrete -->
<g id="node26" class="node">
<title>random_concrete</title>
<ellipse fill="none" stroke="#000000" cx="619.5963" cy="-625" rx="72.2875" ry="18"/>
<text text-anchor="middle" x="619.5963" y="-621.3" font-family="Times,serif" font-size="14.00" fill="#000000">random_concrete</text>
</g>
<!-- view_model_collection&#45;&gt;random_concrete -->
<g id="edge45" class="edge">
<title>view_model_collection&#45;&gt;random_concrete</title>
<path fill="none" stroke="#000000" d="M867.8912,-901.517C837.8512,-877.8585 783.9902,-833.5781 743.5963,-790 701.3332,-744.4054 659.4015,-684.8264 636.7636,-651.1598"/>
<polygon fill="#000000" stroke="#000000" points="639.6344,-649.1563 631.1705,-642.7835 633.8129,-653.0435 639.6344,-649.1563"/>
</g>
<!-- qml_message_interceptor -->
<g id="node28" class="node">
<title>qml_message_interceptor</title>
<ellipse fill="none" stroke="#000000" cx="427.5963" cy="-625" rx="102.0819" ry="18"/>
<text text-anchor="middle" x="427.5963" y="-621.3" font-family="Times,serif" font-size="14.00" fill="#000000">qml_message_interceptor</text>
</g>
<!-- view_model_collection&#45;&gt;qml_message_interceptor -->
<g id="edge44" class="edge">
<title>view_model_collection&#45;&gt;qml_message_interceptor</title>
<path fill="none" stroke="#000000" d="M863.3621,-901.7066C784.0096,-851.3186 552.9747,-704.614 463.5401,-647.8239"/>
<polygon fill="#000000" stroke="#000000" points="465.4056,-644.8625 455.0875,-642.4566 461.6532,-650.7718 465.4056,-644.8625"/>
</g>
<!-- music_notes&#45;&gt;fsynth -->
<g id="edge16" class="edge">
<title>music_notes&#45;&gt;fsynth</title>
<path fill="none" stroke="#000000" d="M820.8649,-754.2684C840.3159,-728.2747 876.6598,-679.706 898.8369,-650.0694"/>
<polygon fill="#000000" stroke="#000000" points="901.7713,-651.9898 904.9603,-641.8863 896.1667,-647.7959 901.7713,-651.9898"/>
</g>
<!-- pitch_training -->
<g id="node20" class="node">
<title>pitch_training</title>
<ellipse fill="none" stroke="#000000" cx="807.5963" cy="-625" rx="59.5901" ry="18"/>
<text text-anchor="middle" x="807.5963" y="-621.3" font-family="Times,serif" font-size="14.00" fill="#000000">pitch_training</text>
</g>
<!-- music_notes&#45;&gt;pitch_training -->
<g id="edge17" class="edge">
<title>music_notes&#45;&gt;pitch_training</title>
<path fill="none" stroke="#000000" d="M807.5963,-753.9749C807.5963,-728.8475 807.5963,-683.0393 807.5963,-653.324"/>
<polygon fill="#000000" stroke="#000000" points="811.0964,-653.1725 807.5963,-643.1725 804.0964,-653.1726 811.0964,-653.1725"/>
</g>
<!-- wrap_qt_trace_category -->
<g id="node21" class="node">
<title>wrap_qt_trace_category</title>
<ellipse fill="none" stroke="#000000" cx="558.5963" cy="-478" rx="95.5831" ry="18"/>
<text text-anchor="middle" x="558.5963" y="-474.3" font-family="Times,serif" font-size="14.00" fill="#000000">wrap_qt_trace_category</text>
</g>
<!-- music_notes&#45;&gt;wrap_qt_trace_category -->
<g id="edge18" class="edge">
<title>music_notes&#45;&gt;wrap_qt_trace_category</title>
<path fill="none" stroke="#000000" d="M798.0312,-754.1147C780.7884,-722.6741 742.3793,-656.1737 700.5963,-607 666.2953,-566.6317 619.8053,-526.6311 589.5114,-502.1229"/>
<polygon fill="#000000" stroke="#000000" points="591.411,-499.1598 581.4201,-495.6337 587.0314,-504.6206 591.411,-499.1598"/>
</g>
<!-- pitch_training&#45;&gt;pitch -->
<g id="edge23" class="edge">
<title>pitch_training&#45;&gt;pitch</title>
<path fill="none" stroke="#000000" d="M789.4105,-607.556C740.133,-558.1519 612.2081,-414.305 680.5963,-313 744.6718,-218.0835 891.5179,-192.9896 961.768,-186.3672"/>
<polygon fill="#000000" stroke="#000000" points="962.2982,-189.8345 971.9597,-185.4864 961.6955,-182.8605 962.2982,-189.8345"/>
</g>
<!-- pitch_training&#45;&gt;sound_io_interface -->
<g id="edge25" class="edge">
<title>pitch_training&#45;&gt;sound_io_interface</title>
<path fill="none" stroke="#000000" d="M820.3824,-607.2684C838.9256,-581.5528 873.4011,-533.7424 894.8287,-504.0268"/>
<polygon fill="#000000" stroke="#000000" points="897.7549,-505.9528 900.7649,-495.7945 892.0771,-501.8586 897.7549,-505.9528"/>
</g>
<!-- pitch_training&#45;&gt;incoming_pitch_listener_interface -->
<g id="edge22" class="edge">
<title>pitch_training&#45;&gt;incoming_pitch_listener_interface</title>
<path fill="none" stroke="#000000" d="M808.4721,-606.609C810.8446,-556.7859 817.4082,-418.9501 820.2527,-359.2148"/>
<polygon fill="#000000" stroke="#000000" points="823.759,-359.1639 820.7388,-349.0087 816.767,-358.8309 823.759,-359.1639"/>
</g>
<!-- pitch_training&#45;&gt;wrap_qt_trace_category -->
<g id="edge26" class="edge">
<title>pitch_training&#45;&gt;wrap_qt_trace_category</title>
<path fill="none" stroke="#000000" d="M779.9976,-608.7068C735.3234,-582.3329 647.086,-530.2409 596.5373,-500.3989"/>
<polygon fill="#000000" stroke="#000000" points="598.2482,-497.3446 587.8575,-495.2747 594.6895,-503.3725 598.2482,-497.3446"/>
</g>
<!-- pitch_training&#45;&gt;random -->
<g id="edge24" class="edge">
<title>pitch_training&#45;&gt;random</title>
<path fill="none" stroke="#000000" d="M769.0192,-611.1748C703.8883,-587.7812 568.0252,-538.758 453.5963,-496 451.0743,-495.0576 448.4786,-494.0813 445.8633,-493.093"/>
<polygon fill="#000000" stroke="#000000" points="446.9958,-489.7792 436.4046,-489.4998 444.5099,-496.3229 446.9958,-489.7792"/>
</g>
<!-- null_stream -->
<g id="node32" class="node">
<title>null_stream</title>
<ellipse fill="none" stroke="#000000" cx="558.5963" cy="-331" rx="52.7911" ry="18"/>
<text text-anchor="middle" x="558.5963" y="-327.3" font-family="Times,serif" font-size="14.00" fill="#000000">null_stream</text>
</g>
<!-- wrap_qt_trace_category&#45;&gt;null_stream -->
<g id="edge46" class="edge">
<title>wrap_qt_trace_category&#45;&gt;null_stream</title>
<path fill="none" stroke="#000000" d="M558.5963,-459.9749C558.5963,-434.8475 558.5963,-389.0393 558.5963,-359.324"/>
<polygon fill="#000000" stroke="#000000" points="562.0964,-359.1725 558.5963,-349.1725 555.0964,-359.1726 562.0964,-359.1725"/>
</g>
<!-- pitch_test -->
<g id="node23" class="node">
<title>pitch_test</title>
<ellipse fill="none" stroke="#000000" cx="1092.5963" cy="-331" rx="44.6926" ry="18"/>
<text text-anchor="middle" x="1092.5963" y="-327.3" font-family="Times,serif" font-size="14.00" fill="#000000">pitch_test</text>
</g>
<!-- pitch_test&#45;&gt;pitch -->
<g id="edge21" class="edge">
<title>pitch_test&#45;&gt;pitch</title>
<path fill="none" stroke="#000000" d="M1081.499,-313.2684C1065.3007,-287.3863 1035.0948,-239.1225 1016.5255,-209.4521"/>
<polygon fill="#000000" stroke="#000000" points="1019.4367,-207.5062 1011.1646,-200.8863 1013.503,-211.2199 1019.4367,-207.5062"/>
</g>
<!-- pitch_test&#45;&gt;notation_strings -->
<g id="edge20" class="edge">
<title>pitch_test&#45;&gt;notation_strings</title>
<path fill="none" stroke="#000000" d="M1088.6892,-313.0516C1077.9107,-263.5378 1047.696,-124.7392 1034.6835,-64.9632"/>
<polygon fill="#000000" stroke="#000000" points="1038.0807,-64.1138 1032.5336,-55.0871 1031.2409,-65.6028 1038.0807,-64.1138"/>
</g>
<!-- random_concrete&#45;&gt;random -->
<g id="edge28" class="edge">
<title>random_concrete&#45;&gt;random</title>
<path fill="none" stroke="#000000" d="M594.7456,-607.8495C555.4241,-580.7121 478.9904,-527.9621 436.6475,-498.7396"/>
<polygon fill="#000000" stroke="#000000" points="438.6231,-495.8504 428.4048,-493.0509 434.647,-501.6116 438.6231,-495.8504"/>
</g>
<!-- task_queue&#45;&gt;qml_message_interceptor -->
<g id="edge31" class="edge">
<title>task_queue&#45;&gt;qml_message_interceptor</title>
<path fill="none" stroke="#000000" d="M179.8361,-756.9592C228.7702,-730.8965 329.5201,-677.2362 386.3143,-646.9872"/>
<polygon fill="#000000" stroke="#000000" points="388.1934,-649.9519 395.3743,-642.1617 384.9027,-643.7735 388.1934,-649.9519"/>
</g>
<!-- task -->
<g id="node29" class="node">
<title>task</title>
<ellipse fill="none" stroke="#000000" cx="133.5963" cy="-478" rx="27" ry="18"/>
<text text-anchor="middle" x="133.5963" y="-474.3" font-family="Times,serif" font-size="14.00" fill="#000000">task</text>
</g>
<!-- task_queue&#45;&gt;task -->
<g id="edge32" class="edge">
<title>task_queue&#45;&gt;task</title>
<path fill="none" stroke="#000000" d="M144.3155,-754.0149C134.7943,-729.4325 118.6194,-683.7358 112.5963,-643 105.4692,-594.7977 116.8611,-538.4534 125.4555,-505.6424"/>
<polygon fill="#000000" stroke="#000000" points="128.8698,-506.4248 128.1205,-495.8565 122.1158,-504.5854 128.8698,-506.4248"/>
</g>
<!-- task_runner -->
<g id="node30" class="node">
<title>task_runner</title>
<ellipse fill="none" stroke="#000000" cx="173.5963" cy="-625" rx="51.9908" ry="18"/>
<text text-anchor="middle" x="173.5963" y="-621.3" font-family="Times,serif" font-size="14.00" fill="#000000">task_runner</text>
</g>
<!-- task_queue&#45;&gt;task_runner -->
<g id="edge33" class="edge">
<title>task_queue&#45;&gt;task_runner</title>
<path fill="none" stroke="#000000" d="M154.2939,-753.9749C158.0545,-728.8475 164.9102,-683.0393 169.3573,-653.324"/>
<polygon fill="#000000" stroke="#000000" points="172.8579,-653.5804 170.8766,-643.1725 165.935,-652.5443 172.8579,-653.5804"/>
</g>
<!-- task_runner&#45;&gt;task -->
<g id="edge34" class="edge">
<title>task_runner&#45;&gt;task</title>
<path fill="none" stroke="#000000" d="M168.6915,-606.9749C161.7868,-581.6001 149.1434,-535.1354 141.066,-505.4511"/>
<polygon fill="#000000" stroke="#000000" points="144.4192,-504.4435 138.4163,-495.7134 137.6648,-506.2815 144.4192,-504.4435"/>
</g>
</g>
</svg>
