<?xml version="1.0" encoding="UTF-8" standalone="no"?>
<!DOCTYPE svg PUBLIC "-//W3C//DTD SVG 1.1//EN"
 "http://www.w3.org/Graphics/SVG/1.1/DTD/svg11.dtd">
<!-- Generated by graphviz version 2.40.1 (20161225.0304)
 -->
<!-- Title: source tree Pages: 1 -->
<svg width="1559pt" height="1094pt"
 viewBox="0.00 0.00 1559.03 1093.70" xmlns="http://www.w3.org/2000/svg" xmlns:xlink="http://www.w3.org/1999/xlink">
<g id="graph0" class="graph" transform="scale(1 1) rotate(0) translate(4 1089.7)">
<title>source tree</title>
<polygon fill="#ffffff" stroke="transparent" points="-4,4 -4,-1089.7 1555.0306,-1089.7 1555.0306,4 -4,4"/>
<!-- collection_active -->
<g id="node1" class="node">
<title>collection_active</title>
<ellipse fill="none" stroke="#000000" cx="427.6442" cy="-1050" rx="70.6878" ry="18"/>
<text text-anchor="middle" x="427.6442" y="-1046.3" font-family="Times,serif" font-size="14.00" fill="#000000">collection_active</text>
</g>
<!-- collection -->
<g id="node2" class="node">
<title>collection</title>
<ellipse fill="none" stroke="#000000" cx="265.6442" cy="-615" rx="45.4919" ry="18"/>
<text text-anchor="middle" x="265.6442" y="-611.3" font-family="Times,serif" font-size="14.00" fill="#000000">collection</text>
</g>
<!-- collection_active&#45;&gt;collection -->
<g id="edge1" class="edge">
<title>collection_active&#45;&gt;collection</title>
<path fill="none" stroke="#000000" d="M415.4067,-1032.0166C392.5198,-988.6726 344.7513,-874.8508 309.6442,-778 292.6979,-731.25 275.2919,-676.0781 267.7507,-643.4002"/>
<polygon fill="#000000" stroke="#000000" points="271.0904,-642.278 265.5863,-633.2251 264.2435,-643.7345 271.0904,-642.278"/>
</g>
<!-- interface -->
<g id="node3" class="node">
<title>interface</title>
<ellipse fill="none" stroke="#000000" cx="1184.6442" cy="-760" rx="41.6928" ry="18"/>
<text text-anchor="middle" x="1184.6442" y="-756.3" font-family="Times,serif" font-size="14.00" fill="#000000">interface</text>
</g>
<!-- collection_active&#45;&gt;interface -->
<g id="edge2" class="edge">
<title>collection_active&#45;&gt;interface</title>
<path fill="none" stroke="#000000" d="M496.9275,-1045.8243C606.0121,-1036.7643 821.8223,-1008.6299 981.6442,-923 1002.1507,-912.0129 1001.9587,-902.1148 1019.6442,-887 1065.1768,-848.0859 1120.89,-806.3426 1154.5308,-781.7342"/>
<polygon fill="#000000" stroke="#000000" points="1156.9787,-784.281 1162.9976,-775.5619 1152.8551,-778.6246 1156.9787,-784.281"/>
</g>
<!-- test_pitch_train -->
<g id="node4" class="node">
<title>test_pitch_train</title>
<ellipse fill="none" stroke="#000000" cx="906.6442" cy="-905" rx="65.7887" ry="18"/>
<text text-anchor="middle" x="906.6442" y="-901.3" font-family="Times,serif" font-size="14.00" fill="#000000">test_pitch_train</text>
</g>
<!-- collection_active&#45;&gt;test_pitch_train -->
<g id="edge3" class="edge">
<title>collection_active&#45;&gt;test_pitch_train</title>
<path fill="none" stroke="#000000" d="M473.5727,-1036.0968C562.4521,-1009.1917 757.5626,-950.1291 852.5498,-921.3751"/>
<polygon fill="#000000" stroke="#000000" points="853.692,-924.6863 862.249,-918.439 851.6638,-917.9865 853.692,-924.6863"/>
</g>
<!-- collection&#45;&gt;collection_active -->
<g id="edge4" class="edge">
<title>collection&#45;&gt;collection_active</title>
<path fill="none" stroke="#000000" d="M276.4787,-632.7396C289.1418,-662.8249 308.6808,-725.6854 327.6442,-778 360.42,-868.4193 404.2314,-973.6304 421.2796,-1022.4749"/>
<polygon fill="#000000" stroke="#000000" points="417.9854,-1023.6595 424.4977,-1032.0166 424.6183,-1021.4224 417.9854,-1023.6595"/>
</g>
<!-- collection_inert -->
<g id="node5" class="node">
<title>collection_inert</title>
<ellipse fill="none" stroke="#000000" cx="65.6442" cy="-470" rx="65.7887" ry="18"/>
<text text-anchor="middle" x="65.6442" y="-466.3" font-family="Times,serif" font-size="14.00" fill="#000000">collection_inert</text>
</g>
<!-- collection&#45;&gt;collection_inert -->
<g id="edge5" class="edge">
<title>collection&#45;&gt;collection_inert</title>
<path fill="none" stroke="#000000" d="M240.2797,-599.7565C202.4901,-574.4746 132.1715,-523.6889 93.1852,-493.6988"/>
<polygon fill="#000000" stroke="#000000" points="94.9504,-490.6383 84.9048,-487.2712 90.658,-496.1679 94.9504,-490.6383"/>
</g>
<!-- test_pitch_train&#45;&gt;interface -->
<g id="edge37" class="edge">
<title>test_pitch_train&#45;&gt;interface</title>
<path fill="none" stroke="#000000" d="M937.4572,-888.9284C989.3086,-861.8837 1093.7232,-807.4228 1148.7823,-778.7049"/>
<polygon fill="#000000" stroke="#000000" points="1150.5749,-781.7175 1157.8227,-773.9896 1147.3377,-775.511 1150.5749,-781.7175"/>
</g>
<!-- music_notes -->
<g id="node19" class="node">
<title>music_notes</title>
<ellipse fill="none" stroke="#000000" cx="703.6442" cy="-760" rx="55.4913" ry="18"/>
<text text-anchor="middle" x="703.6442" y="-756.3" font-family="Times,serif" font-size="14.00" fill="#000000">music_notes</text>
</g>
<!-- test_pitch_train&#45;&gt;music_notes -->
<g id="edge38" class="edge">
<title>test_pitch_train&#45;&gt;music_notes</title>
<path fill="none" stroke="#000000" d="M882.9602,-888.0829C846.3441,-861.9285 775.9618,-811.6555 735.1112,-782.4765"/>
<polygon fill="#000000" stroke="#000000" points="737.0369,-779.5508 726.8652,-776.5864 732.9682,-785.2469 737.0369,-779.5508"/>
</g>
<!-- random -->
<g id="node24" class="node">
<title>random</title>
<ellipse fill="none" stroke="#000000" cx="928.6442" cy="-470" rx="38.1938" ry="18"/>
<text text-anchor="middle" x="928.6442" y="-466.3" font-family="Times,serif" font-size="14.00" fill="#000000">random</text>
</g>
<!-- test_pitch_train&#45;&gt;random -->
<g id="edge39" class="edge">
<title>test_pitch_train&#45;&gt;random</title>
<path fill="none" stroke="#000000" d="M907.5615,-886.8624C910.9859,-819.1526 923.0383,-580.8436 927.2102,-498.354"/>
<polygon fill="#000000" stroke="#000000" points="930.7133,-498.3791 927.723,-488.215 923.7222,-498.0254 930.7133,-498.3791"/>
</g>
<!-- task_queue -->
<g id="node28" class="node">
<title>task_queue</title>
<ellipse fill="none" stroke="#000000" cx="1074.6442" cy="-760" rx="50.0912" ry="18"/>
<text text-anchor="middle" x="1074.6442" y="-756.3" font-family="Times,serif" font-size="14.00" fill="#000000">task_queue</text>
</g>
<!-- test_pitch_train&#45;&gt;task_queue -->
<g id="edge40" class="edge">
<title>test_pitch_train&#45;&gt;task_queue</title>
<path fill="none" stroke="#000000" d="M926.5757,-887.7972C956.67,-861.8229 1013.7762,-812.5349 1047.5977,-783.3437"/>
<polygon fill="#000000" stroke="#000000" points="1049.9737,-785.9164 1055.2571,-776.7329 1045.4,-780.6172 1049.9737,-785.9164"/>
</g>
<!-- helpers -->
<g id="node32" class="node">
<title>helpers</title>
<ellipse fill="none" stroke="#000000" cx="970.6442" cy="-760" rx="36.2938" ry="18"/>
<text text-anchor="middle" x="970.6442" y="-756.3" font-family="Times,serif" font-size="14.00" fill="#000000">helpers</text>
</g>
<!-- test_pitch_train&#45;&gt;helpers -->
<g id="edge36" class="edge">
<title>test_pitch_train&#45;&gt;helpers</title>
<path fill="none" stroke="#000000" d="M914.6204,-886.9288C925.6991,-861.8286 945.8313,-816.2166 958.7046,-787.0506"/>
<polygon fill="#000000" stroke="#000000" points="961.9324,-788.4052 962.7685,-777.8434 955.5285,-785.5786 961.9324,-788.4052"/>
</g>
<!-- collection_inert&#45;&gt;collection -->
<g id="edge6" class="edge">
<title>collection_inert&#45;&gt;collection</title>
<path fill="none" stroke="#000000" d="M92.7921,-486.4394C131.3072,-512.3212 200.9233,-562.6449 239.1002,-592.0689"/>
<polygon fill="#000000" stroke="#000000" points="237.1536,-594.9889 247.1956,-598.3667 241.4518,-589.4639 237.1536,-594.9889"/>
</g>
<!-- event_filter -->
<g id="node6" class="node">
<title>event_filter</title>
<ellipse fill="none" stroke="#000000" cx="492.6442" cy="-760" rx="51.1914" ry="18"/>
<text text-anchor="middle" x="492.6442" y="-756.3" font-family="Times,serif" font-size="14.00" fill="#000000">event_filter</text>
</g>
<!-- every_so_often -->
<g id="node7" class="node">
<title>every_so_often</title>
<ellipse fill="none" stroke="#000000" cx="393.6442" cy="-615" rx="64.9885" ry="18"/>
<text text-anchor="middle" x="393.6442" y="-611.3" font-family="Times,serif" font-size="14.00" fill="#000000">every_so_often</text>
</g>
<!-- event_filter&#45;&gt;every_so_often -->
<g id="edge7" class="edge">
<title>event_filter&#45;&gt;every_so_often</title>
<path fill="none" stroke="#000000" d="M480.5048,-742.2202C463.2854,-716.9998 431.6451,-670.658 411.6764,-641.4108"/>
<polygon fill="#000000" stroke="#000000" points="414.4121,-639.2104 405.8828,-632.9253 408.631,-643.1575 414.4121,-639.2104"/>
</g>
<!-- fsynth -->
<g id="node8" class="node">
<title>fsynth</title>
<ellipse fill="none" stroke="#000000" cx="508.6442" cy="-615" rx="32.4942" ry="18"/>
<text text-anchor="middle" x="508.6442" y="-611.3" font-family="Times,serif" font-size="14.00" fill="#000000">fsynth</text>
</g>
<!-- native_onIncomingMidi -->
<g id="node9" class="node">
<title>native_onIncomingMidi</title>
<ellipse fill="none" stroke="#000000" cx="245.6442" cy="-470" rx="96.6831" ry="18"/>
<text text-anchor="middle" x="245.6442" y="-466.3" font-family="Times,serif" font-size="14.00" fill="#000000">native_onIncomingMidi</text>
</g>
<!-- fsynth&#45;&gt;native_onIncomingMidi -->
<g id="edge8" class="edge">
<title>fsynth&#45;&gt;native_onIncomingMidi</title>
<path fill="none" stroke="#000000" d="M485.3047,-602.1322C440.4095,-577.3801 341.5472,-522.8743 285.8434,-492.1631"/>
<polygon fill="#000000" stroke="#000000" points="287.4054,-489.0276 276.9583,-487.2644 284.0257,-495.1577 287.4054,-489.0276"/>
</g>
<!-- pitch -->
<g id="node10" class="node">
<title>pitch</title>
<ellipse fill="none" stroke="#000000" cx="631.6442" cy="-181" rx="28.6953" ry="18"/>
<text text-anchor="middle" x="631.6442" y="-177.3" font-family="Times,serif" font-size="14.00" fill="#000000">pitch</text>
</g>
<!-- fsynth&#45;&gt;pitch -->
<g id="edge9" class="edge">
<title>fsynth&#45;&gt;pitch</title>
<path fill="none" stroke="#000000" d="M493.4857,-598.7226C451.2307,-551.3044 339.0921,-410.178 399.6442,-308 441.9792,-236.5622 540.2775,-202.6777 594.3447,-188.9394"/>
<polygon fill="#000000" stroke="#000000" points="595.3353,-192.3004 604.2205,-186.5295 593.6758,-185.5 595.3353,-192.3004"/>
</g>
<!-- sound_io_interface -->
<g id="node11" class="node">
<title>sound_io_interface</title>
<ellipse fill="none" stroke="#000000" cx="508.6442" cy="-470" rx="77.9862" ry="18"/>
<text text-anchor="middle" x="508.6442" y="-466.3" font-family="Times,serif" font-size="14.00" fill="#000000">sound_io_interface</text>
</g>
<!-- fsynth&#45;&gt;sound_io_interface -->
<g id="edge10" class="edge">
<title>fsynth&#45;&gt;sound_io_interface</title>
<path fill="none" stroke="#000000" d="M508.6442,-596.9288C508.6442,-572.2906 508.6442,-527.8889 508.6442,-498.6777"/>
<polygon fill="#000000" stroke="#000000" points="512.1443,-498.2989 508.6442,-488.2989 505.1443,-498.2989 512.1443,-498.2989"/>
</g>
<!-- notation_strings -->
<g id="node22" class="node">
<title>notation_strings</title>
<ellipse fill="none" stroke="#000000" cx="659.6442" cy="-36" rx="67.6881" ry="18"/>
<text text-anchor="middle" x="659.6442" y="-32.3" font-family="Times,serif" font-size="14.00" fill="#000000">notation_strings</text>
</g>
<!-- pitch&#45;&gt;notation_strings -->
<g id="edge19" class="edge">
<title>pitch&#45;&gt;notation_strings</title>
<path fill="none" stroke="#000000" d="M635.1338,-162.9288C639.9125,-138.1821 648.5413,-93.4973 654.1808,-64.2926"/>
<polygon fill="#000000" stroke="#000000" points="657.651,-64.7812 656.1106,-54.2989 650.778,-63.4539 657.651,-64.7812"/>
</g>
<!-- sound_io_interface&#45;&gt;pitch -->
<g id="edge31" class="edge">
<title>sound_io_interface&#45;&gt;pitch</title>
<path fill="none" stroke="#000000" d="M484.4138,-452.6326C446.3389,-423.12 379.8563,-361.2021 410.6442,-308 450.4368,-239.2376 543.1075,-204.4602 594.9196,-189.8192"/>
<polygon fill="#000000" stroke="#000000" points="595.9792,-193.1582 604.7094,-187.1553 594.1413,-186.4037 595.9792,-193.1582"/>
</g>
<!-- incoming_pitch_listener_interface -->
<g id="node13" class="node">
<title>incoming_pitch_listener_interface</title>
<ellipse fill="none" stroke="#000000" cx="551.6442" cy="-326" rx="131.8766" ry="18"/>
<text text-anchor="middle" x="551.6442" y="-322.3" font-family="Times,serif" font-size="14.00" fill="#000000">incoming_pitch_listener_interface</text>
</g>
<!-- sound_io_interface&#45;&gt;incoming_pitch_listener_interface -->
<g id="edge30" class="edge">
<title>sound_io_interface&#45;&gt;incoming_pitch_listener_interface</title>
<path fill="none" stroke="#000000" d="M514.0902,-451.7623C521.4567,-427.0928 534.6652,-382.8598 543.2911,-353.9731"/>
<polygon fill="#000000" stroke="#000000" points="546.7348,-354.673 546.2424,-344.0896 540.0274,-352.6701 546.7348,-354.673"/>
</g>
<!-- gui_tests -->
<g id="node12" class="node">
<title>gui_tests</title>
<ellipse fill="none" stroke="#000000" cx="369.6442" cy="-760" rx="42.4939" ry="18"/>
<text text-anchor="middle" x="369.6442" y="-756.3" font-family="Times,serif" font-size="14.00" fill="#000000">gui_tests</text>
</g>
<!-- gui_tests&#45;&gt;collection -->
<g id="edge11" class="edge">
<title>gui_tests&#45;&gt;collection</title>
<path fill="none" stroke="#000000" d="M357.0993,-742.5096C338.9841,-717.2527 305.371,-670.3884 284.3291,-641.0511"/>
<polygon fill="#000000" stroke="#000000" points="286.9059,-638.6385 278.2335,-632.5524 281.2177,-642.7183 286.9059,-638.6385"/>
</g>
<!-- incoming_pitch_listener_interface&#45;&gt;pitch -->
<g id="edge12" class="edge">
<title>incoming_pitch_listener_interface&#45;&gt;pitch</title>
<path fill="none" stroke="#000000" d="M561.6145,-307.9288C575.5987,-282.5824 601.1227,-236.3201 617.1904,-207.1974"/>
<polygon fill="#000000" stroke="#000000" points="620.282,-208.839 622.0483,-198.3924 614.153,-205.4574 620.282,-208.839"/>
</g>
<!-- lib -->
<g id="node14" class="node">
<title>lib</title>
<ellipse fill="none" stroke="#000000" cx="1397.6442" cy="-1050" rx="27" ry="18"/>
<text text-anchor="middle" x="1397.6442" y="-1046.3" font-family="Times,serif" font-size="14.00" fill="#000000">lib</text>
</g>
<!-- quarantined_awaiting_warning_fixes -->
<g id="node15" class="node">
<title>quarantined_awaiting_warning_fixes</title>
<ellipse fill="none" stroke="#000000" cx="1397.6442" cy="-905" rx="141.8751" ry="18"/>
<text text-anchor="middle" x="1397.6442" y="-901.3" font-family="Times,serif" font-size="14.00" fill="#000000">quarantined_awaiting_warning_fixes</text>
</g>
<!-- lib&#45;&gt;quarantined_awaiting_warning_fixes -->
<g id="edge13" class="edge">
<title>lib&#45;&gt;quarantined_awaiting_warning_fixes</title>
<path fill="none" stroke="#000000" d="M1397.6442,-1031.9288C1397.6442,-1007.2906 1397.6442,-962.8889 1397.6442,-933.6777"/>
<polygon fill="#000000" stroke="#000000" points="1401.1443,-933.2989 1397.6442,-923.2989 1394.1443,-933.2989 1401.1443,-933.2989"/>
</g>
<!-- sample_header_exempt_from_warnings -->
<g id="node26" class="node">
<title>sample_header_exempt_from_warnings</title>
<ellipse fill="none" stroke="#000000" cx="1397.6442" cy="-760" rx="153.2729" ry="18"/>
<text text-anchor="middle" x="1397.6442" y="-756.3" font-family="Times,serif" font-size="14.00" fill="#000000">sample_header_exempt_from_warnings</text>
</g>
<!-- quarantined_awaiting_warning_fixes&#45;&gt;sample_header_exempt_from_warnings -->
<g id="edge28" class="edge">
<title>quarantined_awaiting_warning_fixes&#45;&gt;sample_header_exempt_from_warnings</title>
<path fill="none" stroke="#000000" d="M1397.6442,-886.9288C1397.6442,-862.2906 1397.6442,-817.8889 1397.6442,-788.6777"/>
<polygon fill="#000000" stroke="#000000" points="1401.1443,-788.2989 1397.6442,-778.2989 1394.1443,-788.2989 1401.1443,-788.2989"/>
</g>
<!-- main -->
<g id="node16" class="node">
<title>main</title>
<ellipse fill="none" stroke="#000000" cx="941.6442" cy="-1050" rx="28.6953" ry="18"/>
<text text-anchor="middle" x="941.6442" y="-1046.3" font-family="Times,serif" font-size="14.00" fill="#000000">main</text>
</g>
<!-- logger -->
<g id="node17" class="node">
<title>logger</title>
<ellipse fill="none" stroke="#000000" cx="1061.6442" cy="-905" rx="33.2948" ry="18"/>
<text text-anchor="middle" x="1061.6442" y="-901.3" font-family="Times,serif" font-size="14.00" fill="#000000">logger</text>
</g>
<!-- main&#45;&gt;logger -->
<g id="edge14" class="edge">
<title>main&#45;&gt;logger</title>
<path fill="none" stroke="#000000" d="M954.9448,-1033.9284C975.9174,-1008.5865 1016.812,-959.1722 1041.4326,-929.4224"/>
<polygon fill="#000000" stroke="#000000" points="1044.2359,-931.5246 1047.9152,-921.5892 1038.8431,-927.0616 1044.2359,-931.5246"/>
</g>
<!-- view_model_collection -->
<g id="node18" class="node">
<title>view_model_collection</title>
<ellipse fill="none" stroke="#000000" cx="703.6442" cy="-905" rx="93.6835" ry="18"/>
<text text-anchor="middle" x="703.6442" y="-901.3" font-family="Times,serif" font-size="14.00" fill="#000000">view_model_collection</text>
</g>
<!-- main&#45;&gt;view_model_collection -->
<g id="edge15" class="edge">
<title>main&#45;&gt;view_model_collection</title>
<path fill="none" stroke="#000000" d="M920.9396,-1037.3859C880.7182,-1012.8813 791.5292,-958.5434 740.8073,-927.6414"/>
<polygon fill="#000000" stroke="#000000" points="742.4669,-924.5541 732.106,-922.3402 738.8249,-930.5321 742.4669,-924.5541"/>
</g>
<!-- view_model_collection&#45;&gt;event_filter -->
<g id="edge41" class="edge">
<title>view_model_collection&#45;&gt;event_filter</title>
<path fill="none" stroke="#000000" d="M678.1926,-887.5096C639.7166,-861.0687 566.781,-810.9471 524.7232,-782.0448"/>
<polygon fill="#000000" stroke="#000000" points="526.4646,-778.9948 516.2407,-776.2156 522.5,-784.7639 526.4646,-778.9948"/>
</g>
<!-- view_model_collection&#45;&gt;fsynth -->
<g id="edge42" class="edge">
<title>view_model_collection&#45;&gt;fsynth</title>
<path fill="none" stroke="#000000" d="M691.4461,-886.8592C657.9676,-837.0707 564.5752,-698.1795 525.8292,-640.5573"/>
<polygon fill="#000000" stroke="#000000" points="528.582,-638.3786 520.0975,-632.0331 522.773,-642.2846 528.582,-638.3786"/>
</g>
<!-- view_model_collection&#45;&gt;gui_tests -->
<g id="edge43" class="edge">
<title>view_model_collection&#45;&gt;gui_tests</title>
<path fill="none" stroke="#000000" d="M665.6553,-888.5078C601.7416,-860.7609 473.3676,-805.0296 408.7268,-776.967"/>
<polygon fill="#000000" stroke="#000000" points="409.8597,-773.6433 399.293,-772.8715 407.0721,-780.0643 409.8597,-773.6433"/>
</g>
<!-- view_model_collection&#45;&gt;music_notes -->
<g id="edge44" class="edge">
<title>view_model_collection&#45;&gt;music_notes</title>
<path fill="none" stroke="#000000" d="M703.6442,-886.9288C703.6442,-862.2906 703.6442,-817.8889 703.6442,-788.6777"/>
<polygon fill="#000000" stroke="#000000" points="707.1443,-788.2989 703.6442,-778.2989 700.1443,-788.2989 707.1443,-788.2989"/>
</g>
<!-- random_concrete -->
<g id="node27" class="node">
<title>random_concrete</title>
<ellipse fill="none" stroke="#000000" cx="806.6442" cy="-615" rx="72.2875" ry="18"/>
<text text-anchor="middle" x="806.6442" y="-611.3" font-family="Times,serif" font-size="14.00" fill="#000000">random_concrete</text>
</g>
<!-- view_model_collection&#45;&gt;random_concrete -->
<g id="edge46" class="edge">
<title>view_model_collection&#45;&gt;random_concrete</title>
<path fill="none" stroke="#000000" d="M714.3515,-887.0893C728.3403,-863.0241 752.7951,-818.5758 767.6442,-778 784.4447,-732.0918 795.991,-676.2361 801.9435,-643.2625"/>
<polygon fill="#000000" stroke="#000000" points="805.4624,-643.4599 803.7472,-633.0048 798.5682,-642.2475 805.4624,-643.4599"/>
</g>
<!-- qml_message_interceptor -->
<g id="node29" class="node">
<title>qml_message_interceptor</title>
<ellipse fill="none" stroke="#000000" cx="1036.6442" cy="-615" rx="102.0819" ry="18"/>
<text text-anchor="middle" x="1036.6442" y="-611.3" font-family="Times,serif" font-size="14.00" fill="#000000">qml_message_interceptor</text>
</g>
<!-- view_model_collection&#45;&gt;qml_message_interceptor -->
<g id="edge45" class="edge">
<title>view_model_collection&#45;&gt;qml_message_interceptor</title>
<path fill="none" stroke="#000000" d="M723.9735,-887.2957C780.9844,-837.6467 942.5017,-696.986 1008.2613,-639.7178"/>
<polygon fill="#000000" stroke="#000000" points="1010.9152,-642.0479 1016.1578,-632.841 1006.318,-636.769 1010.9152,-642.0479"/>
</g>
<!-- music_notes&#45;&gt;fsynth -->
<g id="edge16" class="edge">
<title>music_notes&#45;&gt;fsynth</title>
<path fill="none" stroke="#000000" d="M681.2752,-743.3667C645.4681,-716.7409 575.3578,-664.6076 536.4052,-635.6428"/>
<polygon fill="#000000" stroke="#000000" points="538.2434,-632.6481 528.1302,-629.4896 534.0664,-638.2653 538.2434,-632.6481"/>
</g>
<!-- pitch_training -->
<g id="node20" class="node">
<title>pitch_training</title>
<ellipse fill="none" stroke="#000000" cx="618.6442" cy="-615" rx="59.5901" ry="18"/>
<text text-anchor="middle" x="618.6442" y="-611.3" font-family="Times,serif" font-size="14.00" fill="#000000">pitch_training</text>
</g>
<!-- music_notes&#45;&gt;pitch_training -->
<g id="edge17" class="edge">
<title>music_notes&#45;&gt;pitch_training</title>
<path fill="none" stroke="#000000" d="M693.2215,-742.2202C678.5009,-717.1085 651.5052,-671.0571 634.3487,-641.79"/>
<polygon fill="#000000" stroke="#000000" points="637.2288,-639.7822 629.1521,-632.9253 631.1899,-643.3223 637.2288,-639.7822"/>
</g>
<!-- wrap_qt_trace_category -->
<g id="node21" class="node">
<title>wrap_qt_trace_category</title>
<ellipse fill="none" stroke="#000000" cx="776.6442" cy="-470" rx="95.5831" ry="18"/>
<text text-anchor="middle" x="776.6442" y="-466.3" font-family="Times,serif" font-size="14.00" fill="#000000">wrap_qt_trace_category</text>
</g>
<!-- music_notes&#45;&gt;wrap_qt_trace_category -->
<g id="edge18" class="edge">
<title>music_notes&#45;&gt;wrap_qt_trace_category</title>
<path fill="none" stroke="#000000" d="M704.6395,-741.6223C706.6192,-711.1311 712.0921,-648.3546 725.6442,-597 735.0103,-561.5077 751.6457,-522.6009 763.3655,-497.3268"/>
<polygon fill="#000000" stroke="#000000" points="766.6529,-498.561 767.7443,-488.0225 760.3192,-495.5802 766.6529,-498.561"/>
</g>
<!-- pitch_training&#45;&gt;pitch -->
<g id="edge23" class="edge">
<title>pitch_training&#45;&gt;pitch</title>
<path fill="none" stroke="#000000" d="M625.3034,-596.7438C645.7707,-539.6541 705.6078,-364.9315 692.6442,-308 684.1208,-270.5683 663.1204,-231.2985 648.1455,-206.5139"/>
<polygon fill="#000000" stroke="#000000" points="650.9714,-204.4285 642.7399,-197.7582 645.0151,-208.1059 650.9714,-204.4285"/>
</g>
<!-- pitch_training&#45;&gt;sound_io_interface -->
<g id="edge25" class="edge">
<title>pitch_training&#45;&gt;sound_io_interface</title>
<path fill="none" stroke="#000000" d="M605.156,-597.2202C585.9408,-571.891 550.5641,-525.2581 528.3938,-496.0336"/>
<polygon fill="#000000" stroke="#000000" points="531.075,-493.7768 522.2427,-487.9253 525.4981,-498.0076 531.075,-493.7768"/>
</g>
<!-- pitch_training&#45;&gt;incoming_pitch_listener_interface -->
<g id="edge22" class="edge">
<title>pitch_training&#45;&gt;incoming_pitch_listener_interface</title>
<path fill="none" stroke="#000000" d="M617.2375,-596.6903C614.6413,-566.2968 608.1802,-503.6575 595.6442,-452 587.2023,-417.2132 572.9249,-378.5245 562.9299,-353.3126"/>
<polygon fill="#000000" stroke="#000000" points="566.1747,-352.0004 559.1996,-344.0255 559.6791,-354.6095 566.1747,-352.0004"/>
</g>
<!-- pitch_training&#45;&gt;wrap_qt_trace_category -->
<g id="edge26" class="edge">
<title>pitch_training&#45;&gt;wrap_qt_trace_category</title>
<path fill="none" stroke="#000000" d="M637.3893,-597.7972C665.2714,-572.2092 717.8077,-523.9955 749.7743,-494.6591"/>
<polygon fill="#000000" stroke="#000000" points="752.4295,-496.9728 757.4307,-487.6326 747.6965,-491.8154 752.4295,-496.9728"/>
</g>
<!-- pitch_training&#45;&gt;random -->
<g id="edge24" class="edge">
<title>pitch_training&#45;&gt;random</title>
<path fill="none" stroke="#000000" d="M651.2337,-599.7565C709.519,-572.494 831.2069,-515.5755 892.18,-487.0558"/>
<polygon fill="#000000" stroke="#000000" points="893.8504,-490.1385 901.4256,-482.7313 890.8845,-483.7979 893.8504,-490.1385"/>
</g>
<!-- null_stream -->
<g id="node33" class="node">
<title>null_stream</title>
<ellipse fill="none" stroke="#000000" cx="792.6442" cy="-326" rx="52.7911" ry="18"/>
<text text-anchor="middle" x="792.6442" y="-322.3" font-family="Times,serif" font-size="14.00" fill="#000000">null_stream</text>
</g>
<!-- wrap_qt_trace_category&#45;&gt;null_stream -->
<g id="edge47" class="edge">
<title>wrap_qt_trace_category&#45;&gt;null_stream</title>
<path fill="none" stroke="#000000" d="M778.6706,-451.7623C781.3996,-427.201 786.2834,-383.2474 789.4937,-354.3541"/>
<polygon fill="#000000" stroke="#000000" points="793.0084,-354.415 790.6342,-344.0896 786.0512,-353.6419 793.0084,-354.415"/>
</g>
<!-- pitch_test -->
<g id="node23" class="node">
<title>pitch_test</title>
<ellipse fill="none" stroke="#000000" cx="907.6442" cy="-326" rx="44.6926" ry="18"/>
<text text-anchor="middle" x="907.6442" y="-322.3" font-family="Times,serif" font-size="14.00" fill="#000000">pitch_test</text>
</g>
<!-- pitch_test&#45;&gt;pitch -->
<g id="edge21" class="edge">
<title>pitch_test&#45;&gt;pitch</title>
<path fill="none" stroke="#000000" d="M880.1712,-311.5667C828.5919,-284.4689 717.5627,-226.1384 663.0883,-197.5195"/>
<polygon fill="#000000" stroke="#000000" points="664.3933,-194.2516 653.9129,-192.6991 661.1377,-200.4485 664.3933,-194.2516"/>
</g>
<!-- pitch_test&#45;&gt;notation_strings -->
<g id="edge20" class="edge">
<title>pitch_test&#45;&gt;notation_strings</title>
<path fill="none" stroke="#000000" d="M892.8733,-308.7277C850.9448,-259.6983 731.0298,-119.4752 681.4773,-61.5306"/>
<polygon fill="#000000" stroke="#000000" points="684.1269,-59.2438 674.9676,-53.9185 678.8069,-63.7933 684.1269,-59.2438"/>
</g>
<!-- qmlscene_main -->
<g id="node25" class="node">
<title>qmlscene_main</title>
<ellipse fill="none" stroke="#000000" cx="703.6442" cy="-1050" rx="66.8882" ry="18"/>
<text text-anchor="middle" x="703.6442" y="-1046.3" font-family="Times,serif" font-size="14.00" fill="#000000">qmlscene_main</text>
</g>
<!-- qmlscene_main&#45;&gt;view_model_collection -->
<g id="edge27" class="edge">
<title>qmlscene_main&#45;&gt;view_model_collection</title>
<path fill="none" stroke="#000000" d="M703.6442,-1031.9288C703.6442,-1007.2906 703.6442,-962.8889 703.6442,-933.6777"/>
<polygon fill="#000000" stroke="#000000" points="707.1443,-933.2989 703.6442,-923.2989 700.1443,-933.2989 707.1443,-933.2989"/>
</g>
<!-- random_concrete&#45;&gt;random -->
<g id="edge29" class="edge">
<title>random_concrete&#45;&gt;random</title>
<path fill="none" stroke="#000000" d="M821.6038,-597.2202C843.2393,-571.5058 883.3487,-523.8348 907.8516,-494.7125"/>
<polygon fill="#000000" stroke="#000000" points="910.5605,-496.9293 914.3205,-487.024 905.2042,-492.4226 910.5605,-496.9293"/>
</g>
<!-- task_queue&#45;&gt;qml_message_interceptor -->
<g id="edge32" class="edge">
<title>task_queue&#45;&gt;qml_message_interceptor</title>
<path fill="none" stroke="#000000" d="M1069.9083,-741.9288C1063.4229,-717.1821 1051.7124,-672.4973 1044.0588,-643.2926"/>
<polygon fill="#000000" stroke="#000000" points="1047.3606,-642.0849 1041.4398,-633.2989 1040.5892,-643.8596 1047.3606,-642.0849"/>
</g>
<!-- task -->
<g id="node30" class="node">
<title>task</title>
<ellipse fill="none" stroke="#000000" cx="1248.6442" cy="-470" rx="27" ry="18"/>
<text text-anchor="middle" x="1248.6442" y="-466.3" font-family="Times,serif" font-size="14.00" fill="#000000">task</text>
</g>
<!-- task_queue&#45;&gt;task -->
<g id="edge33" class="edge">
<title>task_queue&#45;&gt;task</title>
<path fill="none" stroke="#000000" d="M1112.342,-747.9839C1158.9921,-730.8422 1236.3342,-694.4459 1269.6442,-633 1293.1592,-589.6226 1275.3226,-530.4703 1261.2709,-496.6486"/>
<polygon fill="#000000" stroke="#000000" points="1264.4548,-495.1934 1257.2637,-487.4128 1258.0332,-497.9797 1264.4548,-495.1934"/>
</g>
<!-- task_runner -->
<g id="node31" class="node">
<title>task_runner</title>
<ellipse fill="none" stroke="#000000" cx="1208.6442" cy="-615" rx="51.9908" ry="18"/>
<text text-anchor="middle" x="1208.6442" y="-611.3" font-family="Times,serif" font-size="14.00" fill="#000000">task_runner</text>
</g>
<!-- task_queue&#45;&gt;task_runner -->
<g id="edge34" class="edge">
<title>task_queue&#45;&gt;task_runner</title>
<path fill="none" stroke="#000000" d="M1090.5419,-742.7972C1114.2159,-717.1799 1158.8469,-668.8851 1185.9489,-639.5583"/>
<polygon fill="#000000" stroke="#000000" points="1188.5505,-641.9001 1192.7671,-632.1804 1183.4096,-637.1491 1188.5505,-641.9001"/>
</g>
<!-- task_runner&#45;&gt;task -->
<g id="edge35" class="edge">
<title>task_runner&#45;&gt;task</title>
<path fill="none" stroke="#000000" d="M1213.6293,-596.9288C1220.4933,-572.0468 1232.9177,-527.0083 1240.971,-497.8152"/>
<polygon fill="#000000" stroke="#000000" points="1244.4365,-498.4141 1243.7219,-487.8434 1237.6885,-496.5526 1244.4365,-498.4141"/>
</g>
</g>
</svg>
