<?xml version="1.0" encoding="UTF-8" standalone="no"?>
<!DOCTYPE svg PUBLIC "-//W3C//DTD SVG 1.1//EN"
 "http://www.w3.org/Graphics/SVG/1.1/DTD/svg11.dtd">
<!-- Generated by graphviz version 2.40.1 (20161225.0304)
 -->
<!-- Title: source tree Pages: 1 -->
<svg width="864pt" height="1293pt"
 viewBox="0.00 0.00 864.00 1292.52" xmlns="http://www.w3.org/2000/svg" xmlns:xlink="http://www.w3.org/1999/xlink">
<g id="graph0" class="graph" transform="scale(.6794 .6794) rotate(0) translate(4 1898.5)">
<title>source tree</title>
<polygon fill="#ffffff" stroke="transparent" points="-4,4 -4,-1898.5 1267.7434,-1898.5 1267.7434,4 -4,4"/>
<!-- collection_active -->
<g id="node1" class="node">
<title>collection_active</title>
<ellipse fill="none" stroke="#000000" cx="727.5963" cy="-1831" rx="70.6878" ry="18"/>
<text text-anchor="middle" x="727.5963" y="-1827.3" font-family="Times,serif" font-size="14.00" fill="#000000">collection_active</text>
</g>
<!-- collection -->
<g id="node2" class="node">
<title>collection</title>
<ellipse fill="none" stroke="#000000" cx="1160.5963" cy="-1074" rx="45.4919" ry="18"/>
<text text-anchor="middle" x="1160.5963" y="-1070.3" font-family="Times,serif" font-size="14.00" fill="#000000">collection</text>
</g>
<!-- collection_active&#45;&gt;collection -->
<g id="edge1" class="edge">
<title>collection_active&#45;&gt;collection</title>
<path fill="none" stroke="#000000" d="M747.5484,-1813.6883C793.9131,-1777.8085 909.3758,-1690.8122 984.5963,-1597 1064.8541,-1496.9054 1085.3313,-1466.4583 1123.5963,-1344 1150.1786,-1258.9296 1152.7665,-1152.1951 1155.9332,-1102.2345"/>
<polygon fill="#000000" stroke="#000000" points="1159.4296,-1102.4084 1156.6493,-1092.1848 1152.4473,-1101.9107 1159.4296,-1102.4084"/>
</g>
<!-- interface -->
<g id="node3" class="node">
<title>interface</title>
<ellipse fill="none" stroke="#000000" cx="41.5963" cy="-1326" rx="41.6928" ry="18"/>
<text text-anchor="middle" x="41.5963" y="-1322.3" font-family="Times,serif" font-size="14.00" fill="#000000">interface</text>
</g>
<!-- collection_active&#45;&gt;interface -->
<g id="edge2" class="edge">
<title>collection_active&#45;&gt;interface</title>
<path fill="none" stroke="#000000" d="M676.4892,-1818.4047C577.329,-1791.8564 355.9981,-1722.0617 212.5963,-1597 131.2584,-1526.0646 74.9975,-1407.0139 52.5162,-1353.5071"/>
<polygon fill="#000000" stroke="#000000" points="55.6455,-1351.9152 48.5927,-1344.0089 49.1757,-1354.5877 55.6455,-1351.9152"/>
</g>
<!-- test_pitch_train -->
<g id="node4" class="node">
<title>test_pitch_train</title>
<ellipse fill="none" stroke="#000000" cx="287.5963" cy="-1579" rx="65.7887" ry="18"/>
<text text-anchor="middle" x="287.5963" y="-1575.3" font-family="Times,serif" font-size="14.00" fill="#000000">test_pitch_train</text>
</g>
<!-- collection_active&#45;&gt;test_pitch_train -->
<g id="edge3" class="edge">
<title>collection_active&#45;&gt;test_pitch_train</title>
<path fill="none" stroke="#000000" d="M698.7267,-1814.4656C621.6197,-1770.3043 410.8903,-1649.6138 324.8916,-1600.36"/>
<polygon fill="#000000" stroke="#000000" points="326.4173,-1597.2005 316.0002,-1595.2677 322.9383,-1603.2748 326.4173,-1597.2005"/>
</g>
<!-- collection&#45;&gt;collection_active -->
<g id="edge4" class="edge">
<title>collection&#45;&gt;collection_active</title>
<path fill="none" stroke="#000000" d="M1165.6742,-1092.1848C1171.017,-1136.4151 1170.1291,-1252.6875 1141.5963,-1344 1103.3313,-1466.4583 1082.8541,-1496.9054 1002.5963,-1597 930.4998,-1686.9162 821.434,-1770.5708 764.6159,-1808.9567"/>
<polygon fill="#000000" stroke="#000000" points="762.671,-1806.0468 756.2908,-1814.5052 766.5531,-1811.8717 762.671,-1806.0468"/>
</g>
<!-- collection_inert -->
<g id="node5" class="node">
<title>collection_inert</title>
<ellipse fill="none" stroke="#000000" cx="1183.5963" cy="-821" rx="65.7887" ry="18"/>
<text text-anchor="middle" x="1183.5963" y="-817.3" font-family="Times,serif" font-size="14.00" fill="#000000">collection_inert</text>
</g>
<!-- collection&#45;&gt;collection_inert -->
<g id="edge5" class="edge">
<title>collection&#45;&gt;collection_inert</title>
<path fill="none" stroke="#000000" d="M1158.5475,-1055.8049C1158.7123,-1012.1331 1168.5613,-901.1417 1176.6301,-848.9408"/>
<polygon fill="#000000" stroke="#000000" points="1180.0905,-849.4673 1178.2687,-839.0303 1173.1843,-848.3254 1180.0905,-849.4673"/>
</g>
<!-- test_pitch_train&#45;&gt;interface -->
<g id="edge33" class="edge">
<title>test_pitch_train&#45;&gt;interface</title>
<path fill="none" stroke="#000000" d="M270.2981,-1561.2095C227.0237,-1516.7038 114.0417,-1400.5069 64.9421,-1350.0101"/>
<polygon fill="#000000" stroke="#000000" points="67.3843,-1347.5011 57.9037,-1342.7714 62.3656,-1352.3809 67.3843,-1347.5011"/>
</g>
<!-- music_notes -->
<g id="node16" class="node">
<title>music_notes</title>
<ellipse fill="none" stroke="#000000" cx="807.5963" cy="-1326" rx="55.4913" ry="18"/>
<text text-anchor="middle" x="807.5963" y="-1322.3" font-family="Times,serif" font-size="14.00" fill="#000000">music_notes</text>
</g>
<!-- test_pitch_train&#45;&gt;music_notes -->
<g id="edge34" class="edge">
<title>test_pitch_train&#45;&gt;music_notes</title>
<path fill="none" stroke="#000000" d="M320.1246,-1563.1737C411.1298,-1518.8962 668.1547,-1393.8437 767.6073,-1345.4562"/>
<polygon fill="#000000" stroke="#000000" points="769.268,-1348.5405 776.7289,-1341.0182 766.2055,-1342.246 769.268,-1348.5405"/>
</g>
<!-- random -->
<g id="node21" class="node">
<title>random</title>
<ellipse fill="none" stroke="#000000" cx="474.5963" cy="-821" rx="38.1938" ry="18"/>
<text text-anchor="middle" x="474.5963" y="-817.3" font-family="Times,serif" font-size="14.00" fill="#000000">random</text>
</g>
<!-- test_pitch_train&#45;&gt;random -->
<g id="edge35" class="edge">
<title>test_pitch_train&#45;&gt;random</title>
<path fill="none" stroke="#000000" d="M288.5946,-1560.9972C293.6939,-1469.0328 316.5963,-1056 316.5963,-1056 345.6196,-969.4801 415.6246,-884.8758 451.9203,-844.8984"/>
<polygon fill="#000000" stroke="#000000" points="454.5196,-847.2425 458.7079,-837.5106 449.3649,-842.5065 454.5196,-847.2425"/>
</g>
<!-- task_queue -->
<g id="node23" class="node">
<title>task_queue</title>
<ellipse fill="none" stroke="#000000" cx="151.5963" cy="-1326" rx="50.0912" ry="18"/>
<text text-anchor="middle" x="151.5963" y="-1322.3" font-family="Times,serif" font-size="14.00" fill="#000000">task_queue</text>
</g>
<!-- test_pitch_train&#45;&gt;task_queue -->
<g id="edge36" class="edge">
<title>test_pitch_train&#45;&gt;task_queue</title>
<path fill="none" stroke="#000000" d="M277.8155,-1560.8049C254.1355,-1516.753 193.6349,-1404.2042 165.8903,-1352.591"/>
<polygon fill="#000000" stroke="#000000" points="168.9248,-1350.8439 161.1072,-1343.6931 162.7592,-1354.1583 168.9248,-1350.8439"/>
</g>
<!-- helpers -->
<g id="node27" class="node">
<title>helpers</title>
<ellipse fill="none" stroke="#000000" cx="255.5963" cy="-1326" rx="36.2938" ry="18"/>
<text text-anchor="middle" x="255.5963" y="-1322.3" font-family="Times,serif" font-size="14.00" fill="#000000">helpers</text>
</g>
<!-- test_pitch_train&#45;&gt;helpers -->
<g id="edge32" class="edge">
<title>test_pitch_train&#45;&gt;helpers</title>
<path fill="none" stroke="#000000" d="M285.2949,-1560.8049C279.7828,-1517.2243 265.7914,-1406.6049 259.1718,-1354.2685"/>
<polygon fill="#000000" stroke="#000000" points="262.6041,-1353.512 257.8768,-1344.0303 255.6594,-1354.3904 262.6041,-1353.512"/>
</g>
<!-- collection_inert&#45;&gt;collection -->
<g id="edge6" class="edge">
<title>collection_inert&#45;&gt;collection</title>
<path fill="none" stroke="#000000" d="M1185.6457,-839.0303C1185.5054,-882.532 1175.6663,-993.5125 1167.593,-1045.8614"/>
<polygon fill="#000000" stroke="#000000" points="1164.1271,-1045.3686 1165.9534,-1055.8049 1171.0338,-1046.5076 1164.1271,-1045.3686"/>
</g>
<!-- event_filter -->
<g id="node6" class="node">
<title>event_filter</title>
<ellipse fill="none" stroke="#000000" cx="969.5963" cy="-1326" rx="51.1914" ry="18"/>
<text text-anchor="middle" x="969.5963" y="-1322.3" font-family="Times,serif" font-size="14.00" fill="#000000">event_filter</text>
</g>
<!-- every_so_often -->
<g id="node7" class="node">
<title>every_so_often</title>
<ellipse fill="none" stroke="#000000" cx="1032.5963" cy="-1074" rx="64.9885" ry="18"/>
<text text-anchor="middle" x="1032.5963" y="-1070.3" font-family="Times,serif" font-size="14.00" fill="#000000">every_so_often</text>
</g>
<!-- event_filter&#45;&gt;every_so_often -->
<g id="edge7" class="edge">
<title>event_filter&#45;&gt;every_so_often</title>
<path fill="none" stroke="#000000" d="M974.1271,-1307.8768C985.0019,-1264.3777 1012.6401,-1153.825 1025.6387,-1101.8304"/>
<polygon fill="#000000" stroke="#000000" points="1029.0766,-1102.5093 1028.1066,-1091.959 1022.2856,-1100.8115 1029.0766,-1102.5093"/>
</g>
<!-- fsynth -->
<g id="node8" class="node">
<title>fsynth</title>
<ellipse fill="none" stroke="#000000" cx="917.5963" cy="-1074" rx="32.4942" ry="18"/>
<text text-anchor="middle" x="917.5963" y="-1070.3" font-family="Times,serif" font-size="14.00" fill="#000000">fsynth</text>
</g>
<!-- pitch -->
<g id="node9" class="node">
<title>pitch</title>
<ellipse fill="none" stroke="#000000" cx="1070.5963" cy="-316" rx="28.6953" ry="18"/>
<text text-anchor="middle" x="1070.5963" y="-312.3" font-family="Times,serif" font-size="14.00" fill="#000000">pitch</text>
</g>
<!-- fsynth&#45;&gt;pitch -->
<g id="edge8" class="edge">
<title>fsynth&#45;&gt;pitch</title>
<path fill="none" stroke="#000000" d="M925.0922,-1056.3303C941.2743,-1017.6023 979.8514,-922.0622 1002.5963,-839 1032.8235,-728.6135 1035.6783,-699.4739 1050.5963,-586 1062.1305,-498.2655 1067.5164,-393.5519 1069.5592,-344.2797"/>
<polygon fill="#000000" stroke="#000000" points="1073.0644,-344.2147 1069.9665,-334.0829 1066.07,-343.9352 1073.0644,-344.2147"/>
</g>
<!-- sound_io_interface -->
<g id="node10" class="node">
<title>sound_io_interface</title>
<ellipse fill="none" stroke="#000000" cx="915.5963" cy="-821" rx="77.9862" ry="18"/>
<text text-anchor="middle" x="915.5963" y="-817.3" font-family="Times,serif" font-size="14.00" fill="#000000">sound_io_interface</text>
</g>
<!-- fsynth&#45;&gt;sound_io_interface -->
<g id="edge9" class="edge">
<title>fsynth&#45;&gt;sound_io_interface</title>
<path fill="none" stroke="#000000" d="M917.4525,-1055.8049C917.108,-1012.2243 916.2335,-901.6049 915.8198,-849.2685"/>
<polygon fill="#000000" stroke="#000000" points="919.3179,-849.0023 915.7388,-839.0303 912.3181,-849.0577 919.3179,-849.0023"/>
</g>
<!-- notation_strings -->
<g id="node19" class="node">
<title>notation_strings</title>
<ellipse fill="none" stroke="#000000" cx="1098.5963" cy="-63" rx="67.6881" ry="18"/>
<text text-anchor="middle" x="1098.5963" y="-59.3" font-family="Times,serif" font-size="14.00" fill="#000000">notation_strings</text>
</g>
<!-- pitch&#45;&gt;notation_strings -->
<g id="edge17" class="edge">
<title>pitch&#45;&gt;notation_strings</title>
<path fill="none" stroke="#000000" d="M1072.61,-297.8049C1077.4331,-254.2243 1089.6756,-143.6049 1095.4678,-91.2685"/>
<polygon fill="#000000" stroke="#000000" points="1098.9795,-91.3546 1096.6009,-81.0303 1092.022,-90.5846 1098.9795,-91.3546"/>
</g>
<!-- sound_io_interface&#45;&gt;pitch -->
<g id="edge27" class="edge">
<title>sound_io_interface&#45;&gt;pitch</title>
<path fill="none" stroke="#000000" d="M927.1354,-802.9709C951.0465,-764.6874 1005.9877,-671.7502 1032.5963,-586 1059.1283,-500.4968 1067.1979,-393.9689 1069.6033,-344.1459"/>
<polygon fill="#000000" stroke="#000000" points="1073.1012,-344.27 1070.0464,-334.1251 1066.108,-343.9607 1073.1012,-344.27"/>
</g>
<!-- incoming_pitch_listener_interface -->
<g id="node12" class="node">
<title>incoming_pitch_listener_interface</title>
<ellipse fill="none" stroke="#000000" cx="891.5963" cy="-568" rx="131.8766" ry="18"/>
<text text-anchor="middle" x="891.5963" y="-564.3" font-family="Times,serif" font-size="14.00" fill="#000000">incoming_pitch_listener_interface</text>
</g>
<!-- sound_io_interface&#45;&gt;incoming_pitch_listener_interface -->
<g id="edge26" class="edge">
<title>sound_io_interface&#45;&gt;incoming_pitch_listener_interface</title>
<path fill="none" stroke="#000000" d="M913.8703,-802.8049C909.7362,-759.2243 899.2426,-648.6049 894.2779,-596.2685"/>
<polygon fill="#000000" stroke="#000000" points="897.7355,-595.655 893.3067,-586.0303 890.7668,-596.3161 897.7355,-595.655"/>
</g>
<!-- gui_tests -->
<g id="node11" class="node">
<title>gui_tests</title>
<ellipse fill="none" stroke="#000000" cx="1081.5963" cy="-1326" rx="42.4939" ry="18"/>
<text text-anchor="middle" x="1081.5963" y="-1322.3" font-family="Times,serif" font-size="14.00" fill="#000000">gui_tests</text>
</g>
<!-- gui_tests&#45;&gt;collection -->
<g id="edge10" class="edge">
<title>gui_tests&#45;&gt;collection</title>
<path fill="none" stroke="#000000" d="M1087.2778,-1307.8768C1100.9429,-1264.2869 1135.7166,-1153.3631 1151.9735,-1101.5055"/>
<polygon fill="#000000" stroke="#000000" points="1155.3146,-1102.5481 1154.9663,-1091.959 1148.6351,-1100.4541 1155.3146,-1102.5481"/>
</g>
<!-- incoming_pitch_listener_interface&#45;&gt;pitch -->
<g id="edge11" class="edge">
<title>incoming_pitch_listener_interface&#45;&gt;pitch</title>
<path fill="none" stroke="#000000" d="M904.4695,-549.8768C935.9282,-505.5886 1016.76,-391.7919 1052.7962,-341.0593"/>
<polygon fill="#000000" stroke="#000000" points="1055.8448,-342.8113 1058.7824,-332.6319 1050.138,-338.7577 1055.8448,-342.8113"/>
</g>
<!-- main -->
<g id="node13" class="node">
<title>main</title>
<ellipse fill="none" stroke="#000000" cx="1060.5963" cy="-1831" rx="28.6953" ry="18"/>
<text text-anchor="middle" x="1060.5963" y="-1827.3" font-family="Times,serif" font-size="14.00" fill="#000000">main</text>
</g>
<!-- logger -->
<g id="node14" class="node">
<title>logger</title>
<ellipse fill="none" stroke="#000000" cx="1230.5963" cy="-1579" rx="33.2948" ry="18"/>
<text text-anchor="middle" x="1230.5963" y="-1575.3" font-family="Times,serif" font-size="14.00" fill="#000000">logger</text>
</g>
<!-- main&#45;&gt;logger -->
<g id="edge12" class="edge">
<title>main&#45;&gt;logger</title>
<path fill="none" stroke="#000000" d="M1072.0145,-1814.0743C1101.1595,-1770.8711 1178.4518,-1656.2966 1213.2208,-1604.7567"/>
<polygon fill="#000000" stroke="#000000" points="1216.313,-1606.4313 1219.004,-1596.1839 1210.51,-1602.5165 1216.313,-1606.4313"/>
</g>
<!-- view_model_collection -->
<g id="node15" class="node">
<title>view_model_collection</title>
<ellipse fill="none" stroke="#000000" cx="890.5963" cy="-1579" rx="93.6835" ry="18"/>
<text text-anchor="middle" x="890.5963" y="-1575.3" font-family="Times,serif" font-size="14.00" fill="#000000">view_model_collection</text>
</g>
<!-- main&#45;&gt;view_model_collection -->
<g id="edge13" class="edge">
<title>main&#45;&gt;view_model_collection</title>
<path fill="none" stroke="#000000" d="M1049.1782,-1814.0743C1020.1136,-1770.9903 943.167,-1656.9283 908.2606,-1605.1847"/>
<polygon fill="#000000" stroke="#000000" points="911.136,-1603.1886 902.642,-1596.8559 905.333,-1607.1033 911.136,-1603.1886"/>
</g>
<!-- view_model_collection&#45;&gt;event_filter -->
<g id="edge37" class="edge">
<title>view_model_collection&#45;&gt;event_filter</title>
<path fill="none" stroke="#000000" d="M896.2778,-1560.8049C909.9429,-1517.042 944.7166,-1405.678 960.9735,-1353.6147"/>
<polygon fill="#000000" stroke="#000000" points="964.3265,-1354.619 963.9663,-1344.0303 957.6447,-1352.5325 964.3265,-1354.619"/>
</g>
<!-- view_model_collection&#45;&gt;fsynth -->
<g id="edge38" class="edge">
<title>view_model_collection&#45;&gt;fsynth</title>
<path fill="none" stroke="#000000" d="M891.5732,-1560.7284C895.6292,-1484.8666 911.159,-1194.402 916.0866,-1102.2364"/>
<polygon fill="#000000" stroke="#000000" points="919.5817,-1102.4196 916.6207,-1092.247 912.5917,-1102.0458 919.5817,-1102.4196"/>
</g>
<!-- view_model_collection&#45;&gt;gui_tests -->
<g id="edge39" class="edge">
<title>view_model_collection&#45;&gt;gui_tests</title>
<path fill="none" stroke="#000000" d="M904.3326,-1560.8049C937.808,-1516.4631 1023.6773,-1402.7199 1062.2849,-1351.58"/>
<polygon fill="#000000" stroke="#000000" points="1065.2597,-1353.4485 1068.4916,-1343.3586 1059.673,-1349.2308 1065.2597,-1353.4485"/>
</g>
<!-- view_model_collection&#45;&gt;music_notes -->
<g id="edge40" class="edge">
<title>view_model_collection&#45;&gt;music_notes</title>
<path fill="none" stroke="#000000" d="M884.6272,-1560.8049C870.2702,-1517.042 833.7357,-1405.678 816.6557,-1353.6147"/>
<polygon fill="#000000" stroke="#000000" points="819.9542,-1352.441 813.5114,-1344.0303 813.303,-1354.6231 819.9542,-1352.441"/>
</g>
<!-- random_concrete -->
<g id="node22" class="node">
<title>random_concrete</title>
<ellipse fill="none" stroke="#000000" cx="619.5963" cy="-1074" rx="72.2875" ry="18"/>
<text text-anchor="middle" x="619.5963" y="-1070.3" font-family="Times,serif" font-size="14.00" fill="#000000">random_concrete</text>
</g>
<!-- view_model_collection&#45;&gt;random_concrete -->
<g id="edge42" class="edge">
<title>view_model_collection&#45;&gt;random_concrete</title>
<path fill="none" stroke="#000000" d="M878.1455,-1560.8977C851.7139,-1522.0981 788.7243,-1427.6462 743.5963,-1344 697.0821,-1257.7845 651.3378,-1150.8926 630.8205,-1101.4514"/>
<polygon fill="#000000" stroke="#000000" points="634.0005,-1099.9822 626.9471,-1092.0765 627.5309,-1102.6552 634.0005,-1099.9822"/>
</g>
<!-- qml_message_interceptor -->
<g id="node24" class="node">
<title>qml_message_interceptor</title>
<ellipse fill="none" stroke="#000000" cx="427.5963" cy="-1074" rx="102.0819" ry="18"/>
<text text-anchor="middle" x="427.5963" y="-1070.3" font-family="Times,serif" font-size="14.00" fill="#000000">qml_message_interceptor</text>
</g>
<!-- view_model_collection&#45;&gt;qml_message_interceptor -->
<g id="edge41" class="edge">
<title>view_model_collection&#45;&gt;qml_message_interceptor</title>
<path fill="none" stroke="#000000" d="M874.1179,-1561.0268C804.2981,-1484.8734 532.7095,-1188.6483 450.9881,-1099.5137"/>
<polygon fill="#000000" stroke="#000000" points="453.4562,-1097.0265 444.1184,-1092.0208 448.2965,-1101.7571 453.4562,-1097.0265"/>
</g>
<!-- music_notes&#45;&gt;fsynth -->
<g id="edge14" class="edge">
<title>music_notes&#45;&gt;fsynth</title>
<path fill="none" stroke="#000000" d="M815.5072,-1307.8768C834.6205,-1264.09 883.3916,-1152.3599 905.895,-1100.8066"/>
<polygon fill="#000000" stroke="#000000" points="909.1108,-1102.1883 909.9037,-1091.6231 902.6953,-1099.3878 909.1108,-1102.1883"/>
</g>
<!-- pitch_training -->
<g id="node17" class="node">
<title>pitch_training</title>
<ellipse fill="none" stroke="#000000" cx="807.5963" cy="-1074" rx="59.5901" ry="18"/>
<text text-anchor="middle" x="807.5963" y="-1070.3" font-family="Times,serif" font-size="14.00" fill="#000000">pitch_training</text>
</g>
<!-- music_notes&#45;&gt;pitch_training -->
<g id="edge15" class="edge">
<title>music_notes&#45;&gt;pitch_training</title>
<path fill="none" stroke="#000000" d="M807.5963,-1307.8768C807.5963,-1264.5739 807.5963,-1154.8207 807.5963,-1102.5374"/>
<polygon fill="#000000" stroke="#000000" points="811.0964,-1102.2976 807.5963,-1092.2976 804.0964,-1102.2976 811.0964,-1102.2976"/>
</g>
<!-- wrap_qt_trace_category -->
<g id="node18" class="node">
<title>wrap_qt_trace_category</title>
<ellipse fill="none" stroke="#000000" cx="626.5963" cy="-821" rx="95.5831" ry="18"/>
<text text-anchor="middle" x="626.5963" y="-817.3" font-family="Times,serif" font-size="14.00" fill="#000000">wrap_qt_trace_category</text>
</g>
<!-- music_notes&#45;&gt;wrap_qt_trace_category -->
<g id="edge16" class="edge">
<title>music_notes&#45;&gt;wrap_qt_trace_category</title>
<path fill="none" stroke="#000000" d="M801.1544,-1308.0268C774.0795,-1232.4863 669.392,-940.4023 636.5265,-848.7059"/>
<polygon fill="#000000" stroke="#000000" points="639.7241,-847.2536 633.0553,-839.0208 633.1346,-849.6154 639.7241,-847.2536"/>
</g>
<!-- pitch_training&#45;&gt;pitch -->
<g id="edge21" class="edge">
<title>pitch_training&#45;&gt;pitch</title>
<path fill="none" stroke="#000000" d="M803.0405,-1056.041C782.8149,-974.778 704.1555,-641.4926 750.5963,-550 811.6116,-429.7943 966.5845,-356.5482 1036.0224,-328.7704"/>
<polygon fill="#000000" stroke="#000000" points="1037.5951,-331.9132 1045.6253,-325.0018 1035.0378,-325.397 1037.5951,-331.9132"/>
</g>
<!-- pitch_training&#45;&gt;sound_io_interface -->
<g id="edge23" class="edge">
<title>pitch_training&#45;&gt;sound_io_interface</title>
<path fill="none" stroke="#000000" d="M815.3634,-1055.8049C834.0837,-1011.9508 881.7818,-900.2137 903.9468,-848.29"/>
<polygon fill="#000000" stroke="#000000" points="907.1925,-849.6015 907.8996,-839.0303 900.7545,-846.8532 907.1925,-849.6015"/>
</g>
<!-- pitch_training&#45;&gt;incoming_pitch_listener_interface -->
<g id="edge20" class="edge">
<title>pitch_training&#45;&gt;incoming_pitch_listener_interface</title>
<path fill="none" stroke="#000000" d="M807.8508,-1055.7804C808.7137,-1011.9337 812.4641,-897.1875 828.5963,-803 841.6674,-726.6847 868.3202,-639.1725 882.4032,-595.6254"/>
<polygon fill="#000000" stroke="#000000" points="885.76,-596.6205 885.5344,-586.0281 879.1052,-594.4493 885.76,-596.6205"/>
</g>
<!-- pitch_training&#45;&gt;wrap_qt_trace_category -->
<g id="edge24" class="edge">
<title>pitch_training&#45;&gt;wrap_qt_trace_category</title>
<path fill="none" stroke="#000000" d="M794.8687,-1056.2095C763.5291,-1012.4033 682.5,-899.1416 645.5113,-847.4392"/>
<polygon fill="#000000" stroke="#000000" points="648.2171,-845.206 639.5521,-839.1095 642.524,-849.2789 648.2171,-845.206"/>
</g>
<!-- pitch_training&#45;&gt;random -->
<g id="edge22" class="edge">
<title>pitch_training&#45;&gt;random</title>
<path fill="none" stroke="#000000" d="M785.4894,-1057.204C726.9618,-1012.7372 568.0237,-891.9824 502.9521,-842.5436"/>
<polygon fill="#000000" stroke="#000000" points="504.8525,-839.5919 494.7725,-836.3291 500.6177,-845.1656 504.8525,-839.5919"/>
</g>
<!-- null_stream -->
<g id="node28" class="node">
<title>null_stream</title>
<ellipse fill="none" stroke="#000000" cx="626.5963" cy="-568" rx="52.7911" ry="18"/>
<text text-anchor="middle" x="626.5963" y="-564.3" font-family="Times,serif" font-size="14.00" fill="#000000">null_stream</text>
</g>
<!-- wrap_qt_trace_category&#45;&gt;null_stream -->
<g id="edge43" class="edge">
<title>wrap_qt_trace_category&#45;&gt;null_stream</title>
<path fill="none" stroke="#000000" d="M626.5963,-802.8049C626.5963,-759.2243 626.5963,-648.6049 626.5963,-596.2685"/>
<polygon fill="#000000" stroke="#000000" points="630.0964,-596.0302 626.5963,-586.0303 623.0964,-596.0303 630.0964,-596.0302"/>
</g>
<!-- pitch_test -->
<g id="node20" class="node">
<title>pitch_test</title>
<ellipse fill="none" stroke="#000000" cx="1162.5963" cy="-568" rx="44.6926" ry="18"/>
<text text-anchor="middle" x="1162.5963" y="-564.3" font-family="Times,serif" font-size="14.00" fill="#000000">pitch_test</text>
</g>
<!-- pitch_test&#45;&gt;pitch -->
<g id="edge19" class="edge">
<title>pitch_test&#45;&gt;pitch</title>
<path fill="none" stroke="#000000" d="M1155.9799,-549.8768C1140.0275,-506.1811 1099.3734,-394.8242 1080.5005,-343.129"/>
<polygon fill="#000000" stroke="#000000" points="1083.7474,-341.8164 1077.0301,-333.6231 1077.1719,-344.217 1083.7474,-341.8164"/>
</g>
<!-- pitch_test&#45;&gt;notation_strings -->
<g id="edge18" class="edge">
<title>pitch_test&#45;&gt;notation_strings</title>
<path fill="none" stroke="#000000" d="M1160.2807,-549.7284C1150.6665,-473.8666 1113.8552,-183.402 1102.1748,-91.2364"/>
<polygon fill="#000000" stroke="#000000" points="1105.6384,-90.7276 1100.9088,-81.247 1098.6939,-91.6077 1105.6384,-90.7276"/>
</g>
<!-- random_concrete&#45;&gt;random -->
<g id="edge25" class="edge">
<title>random_concrete&#45;&gt;random</title>
<path fill="none" stroke="#000000" d="M609.1683,-1055.8049C583.9211,-1011.753 519.4169,-899.2042 489.8362,-847.591"/>
<polygon fill="#000000" stroke="#000000" points="492.7457,-845.6288 484.7366,-838.6931 486.6725,-849.1095 492.7457,-845.6288"/>
</g>
<!-- task_queue&#45;&gt;qml_message_interceptor -->
<g id="edge28" class="edge">
<title>task_queue&#45;&gt;qml_message_interceptor</title>
<path fill="none" stroke="#000000" d="M170.134,-1309.0743C217.8087,-1265.5452 344.8357,-1149.564 400.6522,-1098.6012"/>
<polygon fill="#000000" stroke="#000000" points="403.0149,-1101.1833 408.0398,-1091.8559 398.295,-1096.0139 403.0149,-1101.1833"/>
</g>
<!-- task -->
<g id="node25" class="node">
<title>task</title>
<ellipse fill="none" stroke="#000000" cx="133.5963" cy="-821" rx="27" ry="18"/>
<text text-anchor="middle" x="133.5963" y="-817.3" font-family="Times,serif" font-size="14.00" fill="#000000">task</text>
</g>
<!-- task_queue&#45;&gt;task -->
<g id="edge29" class="edge">
<title>task_queue&#45;&gt;task</title>
<path fill="none" stroke="#000000" d="M147.5335,-1307.9234C138.9741,-1268.8052 119.3224,-1173.2692 112.5963,-1092 105.2533,-1003.2766 120.1378,-898.1455 128.4769,-848.974"/>
<polygon fill="#000000" stroke="#000000" points="131.932,-849.5341 130.1955,-839.0825 125.0353,-848.3358 131.932,-849.5341"/>
</g>
<!-- task_runner -->
<g id="node26" class="node">
<title>task_runner</title>
<ellipse fill="none" stroke="#000000" cx="173.5963" cy="-1074" rx="51.9908" ry="18"/>
<text text-anchor="middle" x="173.5963" y="-1070.3" font-family="Times,serif" font-size="14.00" fill="#000000">task_runner</text>
</g>
<!-- task_queue&#45;&gt;task_runner -->
<g id="edge30" class="edge">
<title>task_queue&#45;&gt;task_runner</title>
<path fill="none" stroke="#000000" d="M153.1785,-1307.8768C156.9589,-1264.5739 166.5405,-1154.8207 171.1049,-1102.5374"/>
<polygon fill="#000000" stroke="#000000" points="174.6158,-1102.5641 171.9989,-1092.2976 167.6424,-1101.9553 174.6158,-1102.5641"/>
</g>
<!-- task_runner&#45;&gt;task -->
<g id="edge31" class="edge">
<title>task_runner&#45;&gt;task</title>
<path fill="none" stroke="#000000" d="M170.7196,-1055.8049C163.815,-1012.1331 146.2669,-901.1417 138.0138,-848.9408"/>
<polygon fill="#000000" stroke="#000000" points="141.4657,-848.361 136.4469,-839.0303 134.5516,-849.4542 141.4657,-848.361"/>
</g>
</g>
</svg>
