<?xml version="1.0" encoding="UTF-8" standalone="no"?>
<!DOCTYPE svg PUBLIC "-//W3C//DTD SVG 1.1//EN"
 "http://www.w3.org/Graphics/SVG/1.1/DTD/svg11.dtd">
<!-- Generated by graphviz version 2.40.1 (20161225.0304)
 -->
<!-- Title: source tree Pages: 1 -->
<svg width="1178pt" height="826pt"
 viewBox="0.00 0.00 1177.64 826.30" xmlns="http://www.w3.org/2000/svg" xmlns:xlink="http://www.w3.org/1999/xlink">
<g id="graph0" class="graph" transform="scale(1 1) rotate(0) translate(4 822.3)">
<title>source tree</title>
<polygon fill="#ffffff" stroke="transparent" points="-4,4 -4,-822.3 1173.6442,-822.3 1173.6442,4 -4,4"/>
<!-- collection_active -->
<g id="node1" class="node">
<title>collection_active</title>
<ellipse fill="none" stroke="#000000" cx="1080" cy="-791" rx="70.6878" ry="18"/>
<text text-anchor="middle" x="1080" y="-787.3" font-family="Times,serif" font-size="14.00" fill="#000000">collection_active</text>
</g>
<!-- collection -->
<g id="node2" class="node">
<title>collection</title>
<ellipse fill="none" stroke="#000000" cx="1104" cy="-464" rx="45.4919" ry="18"/>
<text text-anchor="middle" x="1104" y="-460.3" font-family="Times,serif" font-size="14.00" fill="#000000">collection</text>
</g>
<!-- collection_active&#45;&gt;collection -->
<g id="edge1" class="edge">
<title>collection_active&#45;&gt;collection</title>
<path fill="none" stroke="#000000" d="M1078.0238,-772.9533C1077.6407,-718.7969 1089.2587,-557.3881 1097.9598,-491.9861"/>
<polygon fill="#000000" stroke="#000000" points="1101.4383,-492.3846 1099.3833,-481.9909 1094.5082,-491.3975 1101.4383,-492.3846"/>
</g>
<!-- interface -->
<g id="node3" class="node">
<title>interface</title>
<ellipse fill="none" stroke="#000000" cx="1025" cy="-573" rx="41.6928" ry="18"/>
<text text-anchor="middle" x="1025" y="-569.3" font-family="Times,serif" font-size="14.00" fill="#000000">interface</text>
</g>
<!-- collection_active&#45;&gt;interface -->
<g id="edge2" class="edge">
<title>collection_active&#45;&gt;interface</title>
<path fill="none" stroke="#000000" d="M1075.4053,-772.7884C1065.7766,-734.6237 1043.4307,-646.0528 1032.0034,-600.7589"/>
<polygon fill="#000000" stroke="#000000" points="1035.3829,-599.8464 1029.5429,-591.0064 1028.5956,-601.5588 1035.3829,-599.8464"/>
</g>
<!-- test_pitch_train -->
<g id="node4" class="node">
<title>test_pitch_train</title>
<ellipse fill="none" stroke="#000000" cx="897" cy="-682" rx="65.7887" ry="18"/>
<text text-anchor="middle" x="897" y="-678.3" font-family="Times,serif" font-size="14.00" fill="#000000">test_pitch_train</text>
</g>
<!-- collection_active&#45;&gt;test_pitch_train -->
<g id="edge3" class="edge">
<title>collection_active&#45;&gt;test_pitch_train</title>
<path fill="none" stroke="#000000" d="M1051.8073,-774.2076C1020.0551,-755.2951 968.3533,-724.5 933.5302,-703.7584"/>
<polygon fill="#000000" stroke="#000000" points="935.0079,-700.5648 924.6253,-698.4544 931.4257,-706.5788 935.0079,-700.5648"/>
</g>
<!-- collection&#45;&gt;collection_active -->
<g id="edge4" class="edge">
<title>collection&#45;&gt;collection_active</title>
<path fill="none" stroke="#000000" d="M1105.9758,-481.9909C1106.3672,-536.0736 1094.7523,-697.4786 1086.0491,-762.9465"/>
<polygon fill="#000000" stroke="#000000" points="1082.569,-762.5599 1084.6253,-772.9533 1089.4992,-763.5461 1082.569,-762.5599"/>
</g>
<!-- collection_inert -->
<g id="node5" class="node">
<title>collection_inert</title>
<ellipse fill="none" stroke="#000000" cx="1104" cy="-355" rx="65.7887" ry="18"/>
<text text-anchor="middle" x="1104" y="-351.3" font-family="Times,serif" font-size="14.00" fill="#000000">collection_inert</text>
</g>
<!-- collection&#45;&gt;collection_inert -->
<g id="edge5" class="edge">
<title>collection&#45;&gt;collection_inert</title>
<path fill="none" stroke="#000000" d="M1098.8337,-446.0009C1097.0446,-428.8816 1096.7714,-402.8698 1098.014,-383.0345"/>
<polygon fill="#000000" stroke="#000000" points="1101.5057,-383.2775 1098.8309,-373.0259 1094.5289,-382.708 1101.5057,-383.2775"/>
</g>
<!-- test_pitch_train&#45;&gt;interface -->
<g id="edge35" class="edge">
<title>test_pitch_train&#45;&gt;interface</title>
<path fill="none" stroke="#000000" d="M917.282,-664.7286C939.1955,-646.0679 974.2074,-616.2531 998.3344,-595.7074"/>
<polygon fill="#000000" stroke="#000000" points="1000.7204,-598.2727 1006.0647,-589.1246 996.182,-592.9432 1000.7204,-598.2727"/>
</g>
<!-- music_notes -->
<g id="node14" class="node">
<title>music_notes</title>
<ellipse fill="none" stroke="#000000" cx="577" cy="-573" rx="55.4913" ry="18"/>
<text text-anchor="middle" x="577" y="-569.3" font-family="Times,serif" font-size="14.00" fill="#000000">music_notes</text>
</g>
<!-- test_pitch_train&#45;&gt;music_notes -->
<g id="edge36" class="edge">
<title>test_pitch_train&#45;&gt;music_notes</title>
<path fill="none" stroke="#000000" d="M855.8207,-667.9733C796.6956,-647.8338 687.9781,-610.8019 625.1915,-589.4152"/>
<polygon fill="#000000" stroke="#000000" points="626.1181,-586.0334 615.5236,-586.1221 623.861,-592.6596 626.1181,-586.0334"/>
</g>
<!-- random -->
<g id="node22" class="node">
<title>random</title>
<ellipse fill="none" stroke="#000000" cx="885" cy="-355" rx="38.1938" ry="18"/>
<text text-anchor="middle" x="885" y="-351.3" font-family="Times,serif" font-size="14.00" fill="#000000">random</text>
</g>
<!-- test_pitch_train&#45;&gt;random -->
<g id="edge37" class="edge">
<title>test_pitch_train&#45;&gt;random</title>
<path fill="none" stroke="#000000" d="M893.6504,-663.9523C890.4357,-645.6495 885.8101,-616.4702 884,-591 878.6737,-516.0535 881.4913,-427.3819 883.5184,-383.1055"/>
<polygon fill="#000000" stroke="#000000" points="887.0155,-383.2477 883.9987,-373.0915 880.0236,-382.9123 887.0155,-383.2477"/>
</g>
<!-- task_queue -->
<g id="node25" class="node">
<title>task_queue</title>
<ellipse fill="none" stroke="#000000" cx="272" cy="-573" rx="50.0912" ry="18"/>
<text text-anchor="middle" x="272" y="-569.3" font-family="Times,serif" font-size="14.00" fill="#000000">task_queue</text>
</g>
<!-- test_pitch_train&#45;&gt;task_queue -->
<g id="edge38" class="edge">
<title>test_pitch_train&#45;&gt;task_queue</title>
<path fill="none" stroke="#000000" d="M841.5354,-672.327C722.8064,-651.6206 445.2517,-603.2151 326.9674,-582.5863"/>
<polygon fill="#000000" stroke="#000000" points="327.4914,-579.1249 317.0387,-580.8548 326.2887,-586.0209 327.4914,-579.1249"/>
</g>
<!-- helpers -->
<g id="node27" class="node">
<title>helpers</title>
<ellipse fill="none" stroke="#000000" cx="929" cy="-573" rx="36.2938" ry="18"/>
<text text-anchor="middle" x="929" y="-569.3" font-family="Times,serif" font-size="14.00" fill="#000000">helpers</text>
</g>
<!-- test_pitch_train&#45;&gt;helpers -->
<g id="edge34" class="edge">
<title>test_pitch_train&#45;&gt;helpers</title>
<path fill="none" stroke="#000000" d="M902.2841,-664.0009C907.3331,-646.8028 915.0169,-620.6299 920.8501,-600.7607"/>
<polygon fill="#000000" stroke="#000000" points="924.2493,-601.6069 923.708,-591.0259 917.5328,-599.635 924.2493,-601.6069"/>
</g>
<!-- collection_inert&#45;&gt;collection -->
<g id="edge6" class="edge">
<title>collection_inert&#45;&gt;collection</title>
<path fill="none" stroke="#000000" d="M1109.1691,-373.0259C1110.9566,-390.1543 1111.2283,-416.1676 1109.9841,-435.9965"/>
<polygon fill="#000000" stroke="#000000" points="1106.4927,-435.7489 1109.1663,-446.0009 1113.4694,-436.3193 1106.4927,-435.7489"/>
</g>
<!-- fsynth -->
<g id="node6" class="node">
<title>fsynth</title>
<ellipse fill="none" stroke="#000000" cx="467" cy="-464" rx="32.4942" ry="18"/>
<text text-anchor="middle" x="467" y="-460.3" font-family="Times,serif" font-size="14.00" fill="#000000">fsynth</text>
</g>
<!-- native_onIncomingMidi -->
<g id="node7" class="node">
<title>native_onIncomingMidi</title>
<ellipse fill="none" stroke="#000000" cx="169" cy="-355" rx="96.6831" ry="18"/>
<text text-anchor="middle" x="169" y="-351.3" font-family="Times,serif" font-size="14.00" fill="#000000">native_onIncomingMidi</text>
</g>
<!-- fsynth&#45;&gt;native_onIncomingMidi -->
<g id="edge7" class="edge">
<title>fsynth&#45;&gt;native_onIncomingMidi</title>
<path fill="none" stroke="#000000" d="M441.3409,-452.6982C435.9678,-450.4176 430.3186,-448.0826 425,-446 357.3296,-419.5025 278.3871,-391.9385 226.2512,-374.1892"/>
<polygon fill="#000000" stroke="#000000" points="227.1094,-370.7844 216.5151,-370.8827 224.8583,-377.4126 227.1094,-370.7844"/>
</g>
<!-- pitch -->
<g id="node8" class="node">
<title>pitch</title>
<ellipse fill="none" stroke="#000000" cx="572" cy="-136" rx="28.6953" ry="18"/>
<text text-anchor="middle" x="572" y="-132.3" font-family="Times,serif" font-size="14.00" fill="#000000">pitch</text>
</g>
<!-- fsynth&#45;&gt;pitch -->
<g id="edge8" class="edge">
<title>fsynth&#45;&gt;pitch</title>
<path fill="none" stroke="#000000" d="M447.8142,-449.2233C400.5134,-410.9874 285.9531,-306.2553 340,-227 362.7547,-193.6321 475.7134,-160.5341 535.2031,-145.0597"/>
<polygon fill="#000000" stroke="#000000" points="536.1474,-148.4308 544.9631,-142.5543 534.4069,-141.6506 536.1474,-148.4308"/>
</g>
<!-- sound_io_interface -->
<g id="node9" class="node">
<title>sound_io_interface</title>
<ellipse fill="none" stroke="#000000" cx="465" cy="-355" rx="77.9862" ry="18"/>
<text text-anchor="middle" x="465" y="-351.3" font-family="Times,serif" font-size="14.00" fill="#000000">sound_io_interface</text>
</g>
<!-- fsynth&#45;&gt;sound_io_interface -->
<g id="edge9" class="edge">
<title>fsynth&#45;&gt;sound_io_interface</title>
<path fill="none" stroke="#000000" d="M466.6697,-446.0009C466.3556,-428.8816 465.8783,-402.8698 465.5144,-383.0345"/>
<polygon fill="#000000" stroke="#000000" points="469.0137,-382.9599 465.3307,-373.0259 462.0149,-383.0884 469.0137,-382.9599"/>
</g>
<!-- notation_strings -->
<g id="node20" class="node">
<title>notation_strings</title>
<ellipse fill="none" stroke="#000000" cx="600" cy="-27" rx="67.6881" ry="18"/>
<text text-anchor="middle" x="600" y="-23.3" font-family="Times,serif" font-size="14.00" fill="#000000">notation_strings</text>
</g>
<!-- pitch&#45;&gt;notation_strings -->
<g id="edge18" class="edge">
<title>pitch&#45;&gt;notation_strings</title>
<path fill="none" stroke="#000000" d="M576.6236,-118.0009C581.0415,-100.8028 587.7648,-74.6299 592.8688,-54.7607"/>
<polygon fill="#000000" stroke="#000000" points="596.2713,-55.5823 595.3695,-45.0259 589.4915,-53.8406 596.2713,-55.5823"/>
</g>
<!-- sound_io_interface&#45;&gt;pitch -->
<g id="edge29" class="edge">
<title>sound_io_interface&#45;&gt;pitch</title>
<path fill="none" stroke="#000000" d="M431.1253,-338.6544C387.78,-315.4512 321.6086,-270.8878 351,-227 391.8249,-166.0394 481.6852,-145.8767 533.3678,-139.236"/>
<polygon fill="#000000" stroke="#000000" points="533.9547,-142.6912 543.4774,-138.0471 533.137,-135.7391 533.9547,-142.6912"/>
</g>
<!-- incoming_pitch_listener_interface -->
<g id="node11" class="node">
<title>incoming_pitch_listener_interface</title>
<ellipse fill="none" stroke="#000000" cx="492" cy="-245" rx="131.8766" ry="18"/>
<text text-anchor="middle" x="492" y="-241.3" font-family="Times,serif" font-size="14.00" fill="#000000">incoming_pitch_listener_interface</text>
</g>
<!-- sound_io_interface&#45;&gt;incoming_pitch_listener_interface -->
<g id="edge28" class="edge">
<title>sound_io_interface&#45;&gt;incoming_pitch_listener_interface</title>
<path fill="none" stroke="#000000" d="M469.4585,-336.8357C473.7186,-319.4798 480.2018,-293.0669 485.1235,-273.0154"/>
<polygon fill="#000000" stroke="#000000" points="488.5501,-273.7373 487.5349,-263.1912 481.7519,-272.0686 488.5501,-273.7373"/>
</g>
<!-- gui_tests -->
<g id="node10" class="node">
<title>gui_tests</title>
<ellipse fill="none" stroke="#000000" cx="779" cy="-573" rx="42.4939" ry="18"/>
<text text-anchor="middle" x="779" y="-569.3" font-family="Times,serif" font-size="14.00" fill="#000000">gui_tests</text>
</g>
<!-- gui_tests&#45;&gt;collection -->
<g id="edge10" class="edge">
<title>gui_tests&#45;&gt;collection</title>
<path fill="none" stroke="#000000" d="M812.2534,-561.8473C871.0359,-542.1326 993.3169,-501.1214 1059.3671,-478.9692"/>
<polygon fill="#000000" stroke="#000000" points="1060.7103,-482.2104 1069.0783,-475.7122 1058.4844,-475.5737 1060.7103,-482.2104"/>
</g>
<!-- incoming_pitch_listener_interface&#45;&gt;pitch -->
<g id="edge11" class="edge">
<title>incoming_pitch_listener_interface&#45;&gt;pitch</title>
<path fill="none" stroke="#000000" d="M505.2104,-227.0009C518.4909,-208.9061 539.0631,-180.8765 553.8667,-160.7066"/>
<polygon fill="#000000" stroke="#000000" points="556.7245,-162.7281 559.8198,-152.5955 551.0813,-158.5863 556.7245,-162.7281"/>
</g>
<!-- main -->
<g id="node12" class="node">
<title>main</title>
<ellipse fill="none" stroke="#000000" cx="465" cy="-791" rx="28.6953" ry="18"/>
<text text-anchor="middle" x="465" y="-787.3" font-family="Times,serif" font-size="14.00" fill="#000000">main</text>
</g>
<!-- view_model_collection -->
<g id="node13" class="node">
<title>view_model_collection</title>
<ellipse fill="none" stroke="#000000" cx="522" cy="-682" rx="93.6835" ry="18"/>
<text text-anchor="middle" x="522" y="-678.3" font-family="Times,serif" font-size="14.00" fill="#000000">view_model_collection</text>
</g>
<!-- main&#45;&gt;view_model_collection -->
<g id="edge12" class="edge">
<title>main&#45;&gt;view_model_collection</title>
<path fill="none" stroke="#000000" d="M474.158,-773.4873C483.2319,-756.1354 497.2586,-729.3125 507.782,-709.1889"/>
<polygon fill="#000000" stroke="#000000" points="510.952,-710.6796 512.4846,-700.1962 504.749,-707.4358 510.952,-710.6796"/>
</g>
<!-- view_model_collection&#45;&gt;fsynth -->
<g id="edge39" class="edge">
<title>view_model_collection&#45;&gt;fsynth</title>
<path fill="none" stroke="#000000" d="M517.4053,-663.7884C507.7766,-625.6237 485.4307,-537.0528 474.0034,-491.7589"/>
<polygon fill="#000000" stroke="#000000" points="477.3829,-490.8464 471.5429,-482.0064 470.5956,-492.5588 477.3829,-490.8464"/>
</g>
<!-- view_model_collection&#45;&gt;gui_tests -->
<g id="edge40" class="edge">
<title>view_model_collection&#45;&gt;gui_tests</title>
<path fill="none" stroke="#000000" d="M560.7538,-665.5636C609,-645.1012 690.9592,-610.3403 739.5343,-589.7384"/>
<polygon fill="#000000" stroke="#000000" points="740.9448,-592.942 748.7844,-585.8152 738.2115,-586.4977 740.9448,-592.942"/>
</g>
<!-- view_model_collection&#45;&gt;music_notes -->
<g id="edge41" class="edge">
<title>view_model_collection&#45;&gt;music_notes</title>
<path fill="none" stroke="#000000" d="M531.0821,-664.0009C539.8397,-646.645 553.2093,-620.1489 563.2674,-600.2154"/>
<polygon fill="#000000" stroke="#000000" points="566.5242,-601.5304 567.9044,-591.0259 560.2747,-598.377 566.5242,-601.5304"/>
</g>
<!-- note_player -->
<g id="node17" class="node">
<title>note_player</title>
<ellipse fill="none" stroke="#000000" cx="104" cy="-573" rx="51.9908" ry="18"/>
<text text-anchor="middle" x="104" y="-569.3" font-family="Times,serif" font-size="14.00" fill="#000000">note_player</text>
</g>
<!-- view_model_collection&#45;&gt;note_player -->
<g id="edge42" class="edge">
<title>view_model_collection&#45;&gt;note_player</title>
<path fill="none" stroke="#000000" d="M466.0604,-667.4129C384.565,-646.1617 234.339,-606.9879 155.4547,-586.4176"/>
<polygon fill="#000000" stroke="#000000" points="156.2951,-583.0198 145.7355,-583.8832 154.5288,-589.7933 156.2951,-583.0198"/>
</g>
<!-- random_concrete -->
<g id="node24" class="node">
<title>random_concrete</title>
<ellipse fill="none" stroke="#000000" cx="765" cy="-464" rx="72.2875" ry="18"/>
<text text-anchor="middle" x="765" y="-460.3" font-family="Times,serif" font-size="14.00" fill="#000000">random_concrete</text>
</g>
<!-- view_model_collection&#45;&gt;random_concrete -->
<g id="edge44" class="edge">
<title>view_model_collection&#45;&gt;random_concrete</title>
<path fill="none" stroke="#000000" d="M546.977,-664.5186C571.6407,-646.8874 610.0501,-618.4256 641,-591 678.413,-557.8473 718.2014,-515.7154 742.3322,-489.2958"/>
<polygon fill="#000000" stroke="#000000" points="745.1644,-491.3834 749.2985,-481.6284 739.9834,-486.6762 745.1644,-491.3834"/>
</g>
<!-- qml_message_interceptor -->
<g id="node26" class="node">
<title>qml_message_interceptor</title>
<ellipse fill="none" stroke="#000000" cx="314" cy="-464" rx="102.0819" ry="18"/>
<text text-anchor="middle" x="314" y="-460.3" font-family="Times,serif" font-size="14.00" fill="#000000">qml_message_interceptor</text>
</g>
<!-- view_model_collection&#45;&gt;qml_message_interceptor -->
<g id="edge43" class="edge">
<title>view_model_collection&#45;&gt;qml_message_interceptor</title>
<path fill="none" stroke="#000000" d="M504.9785,-664.1601C468.0924,-625.5006 380.6888,-533.895 338.126,-489.2859"/>
<polygon fill="#000000" stroke="#000000" points="340.4005,-486.5996 330.965,-481.7806 335.3359,-491.4318 340.4005,-486.5996"/>
</g>
<!-- music_notes&#45;&gt;fsynth -->
<g id="edge13" class="edge">
<title>music_notes&#45;&gt;fsynth</title>
<path fill="none" stroke="#000000" d="M559.3266,-555.4873C540.6119,-536.9427 510.9799,-507.5801 490.3515,-487.1392"/>
<polygon fill="#000000" stroke="#000000" points="492.7626,-484.6011 483.1958,-480.0485 487.8355,-489.5734 492.7626,-484.6011"/>
</g>
<!-- pitch_training -->
<g id="node15" class="node">
<title>pitch_training</title>
<ellipse fill="none" stroke="#000000" cx="577" cy="-464" rx="59.5901" ry="18"/>
<text text-anchor="middle" x="577" y="-460.3" font-family="Times,serif" font-size="14.00" fill="#000000">pitch_training</text>
</g>
<!-- music_notes&#45;&gt;pitch_training -->
<g id="edge14" class="edge">
<title>music_notes&#45;&gt;pitch_training</title>
<path fill="none" stroke="#000000" d="M577,-554.5096C577,-537.4952 577,-512.0055 577,-492.4076"/>
<polygon fill="#000000" stroke="#000000" points="580.5001,-492.2173 577,-482.2173 573.5001,-492.2173 580.5001,-492.2173"/>
</g>
<!-- wrap_qt_trace_category -->
<g id="node16" class="node">
<title>wrap_qt_trace_category</title>
<ellipse fill="none" stroke="#000000" cx="733" cy="-355" rx="95.5831" ry="18"/>
<text text-anchor="middle" x="733" y="-351.3" font-family="Times,serif" font-size="14.00" fill="#000000">wrap_qt_trace_category</text>
</g>
<!-- music_notes&#45;&gt;wrap_qt_trace_category -->
<g id="edge15" class="edge">
<title>music_notes&#45;&gt;wrap_qt_trace_category</title>
<path fill="none" stroke="#000000" d="M590.7412,-555.4029C604.8532,-537.2097 627.3313,-507.8926 646,-482 670.6082,-447.8696 697.8533,-407.6859 715.1849,-381.8029"/>
<polygon fill="#000000" stroke="#000000" points="718.2357,-383.5367 720.8812,-373.2775 712.4154,-379.6478 718.2357,-383.5367"/>
</g>
<!-- pitch_training&#45;&gt;pitch -->
<g id="edge22" class="edge">
<title>pitch_training&#45;&gt;pitch</title>
<path fill="none" stroke="#000000" d="M583.769,-445.8768C601.2604,-397.9827 645.7336,-268.8649 633,-227 625.2472,-201.5105 607.7149,-176.6697 593.4268,-159.3995"/>
<polygon fill="#000000" stroke="#000000" points="595.8865,-156.8902 586.7302,-151.5598 590.5639,-161.4367 595.8865,-156.8902"/>
</g>
<!-- pitch_training&#45;&gt;sound_io_interface -->
<g id="edge24" class="edge">
<title>pitch_training&#45;&gt;sound_io_interface</title>
<path fill="none" stroke="#000000" d="M559.0053,-446.4873C540.501,-428.4786 511.5142,-400.2683 490.6196,-379.9334"/>
<polygon fill="#000000" stroke="#000000" points="492.9296,-377.2976 483.3222,-372.8314 488.0475,-382.3141 492.9296,-377.2976"/>
</g>
<!-- pitch_training&#45;&gt;incoming_pitch_listener_interface -->
<g id="edge21" class="edge">
<title>pitch_training&#45;&gt;incoming_pitch_listener_interface</title>
<path fill="none" stroke="#000000" d="M575.6067,-445.7084C573.1963,-420.4526 566.9796,-373.8464 552,-337 542.3106,-313.1663 526.1684,-288.9004 513.0666,-271.2781"/>
<polygon fill="#000000" stroke="#000000" points="515.7582,-269.0354 506.9206,-263.1918 510.1852,-273.2712 515.7582,-269.0354"/>
</g>
<!-- pitch_training&#45;&gt;wrap_qt_trace_category -->
<g id="edge25" class="edge">
<title>pitch_training&#45;&gt;wrap_qt_trace_category</title>
<path fill="none" stroke="#000000" d="M600.693,-447.4452C627.0694,-429.0156 669.8937,-399.0935 699.6484,-378.3033"/>
<polygon fill="#000000" stroke="#000000" points="701.8568,-381.0301 708.0494,-372.4334 697.8475,-375.292 701.8568,-381.0301"/>
</g>
<!-- pitch_training&#45;&gt;random -->
<g id="edge23" class="edge">
<title>pitch_training&#45;&gt;random</title>
<path fill="none" stroke="#000000" d="M616.9294,-450.4978C668.249,-433.048 760.032,-401.5148 838,-373 840.5285,-372.0753 843.1292,-371.1124 845.7481,-370.1339"/>
<polygon fill="#000000" stroke="#000000" points="847.0939,-373.3671 855.215,-366.5628 844.6232,-366.8176 847.0939,-373.3671"/>
</g>
<!-- null_stream -->
<g id="node28" class="node">
<title>null_stream</title>
<ellipse fill="none" stroke="#000000" cx="733" cy="-245" rx="52.7911" ry="18"/>
<text text-anchor="middle" x="733" y="-241.3" font-family="Times,serif" font-size="14.00" fill="#000000">null_stream</text>
</g>
<!-- wrap_qt_trace_category&#45;&gt;null_stream -->
<g id="edge45" class="edge">
<title>wrap_qt_trace_category&#45;&gt;null_stream</title>
<path fill="none" stroke="#000000" d="M733,-336.8357C733,-319.5595 733,-293.309 733,-273.2917"/>
<polygon fill="#000000" stroke="#000000" points="736.5001,-273.1912 733,-263.1912 729.5001,-273.1913 736.5001,-273.1912"/>
</g>
<!-- task -->
<g id="node18" class="node">
<title>task</title>
<ellipse fill="none" stroke="#000000" cx="27" cy="-355" rx="27" ry="18"/>
<text text-anchor="middle" x="27" y="-351.3" font-family="Times,serif" font-size="14.00" fill="#000000">task</text>
</g>
<!-- note_player&#45;&gt;task -->
<g id="edge16" class="edge">
<title>note_player&#45;&gt;task</title>
<path fill="none" stroke="#000000" d="M88.6548,-555.5775C74.2966,-538.2135 53.528,-510.1467 43,-482 30.8884,-449.6196 27.5884,-409.695 26.8632,-383.3525"/>
<polygon fill="#000000" stroke="#000000" points="30.3618,-383.2326 26.6938,-373.293 23.3628,-383.3505 30.3618,-383.2326"/>
</g>
<!-- task_runner -->
<g id="node19" class="node">
<title>task_runner</title>
<ellipse fill="none" stroke="#000000" cx="104" cy="-464" rx="51.9908" ry="18"/>
<text text-anchor="middle" x="104" y="-460.3" font-family="Times,serif" font-size="14.00" fill="#000000">task_runner</text>
</g>
<!-- note_player&#45;&gt;task_runner -->
<g id="edge17" class="edge">
<title>note_player&#45;&gt;task_runner</title>
<path fill="none" stroke="#000000" d="M104,-554.5096C104,-537.4952 104,-512.0055 104,-492.4076"/>
<polygon fill="#000000" stroke="#000000" points="107.5001,-492.2173 104,-482.2173 100.5001,-492.2173 107.5001,-492.2173"/>
</g>
<!-- task_runner&#45;&gt;task -->
<g id="edge33" class="edge">
<title>task_runner&#45;&gt;task</title>
<path fill="none" stroke="#000000" d="M91.6286,-446.4873C78.8325,-428.3733 58.7452,-399.938 44.3621,-379.5774"/>
<polygon fill="#000000" stroke="#000000" points="47.2135,-377.5477 38.585,-371.3995 41.4961,-381.5866 47.2135,-377.5477"/>
</g>
<!-- pitch_test -->
<g id="node21" class="node">
<title>pitch_test</title>
<ellipse fill="none" stroke="#000000" cx="848" cy="-245" rx="44.6926" ry="18"/>
<text text-anchor="middle" x="848" y="-241.3" font-family="Times,serif" font-size="14.00" fill="#000000">pitch_test</text>
</g>
<!-- pitch_test&#45;&gt;pitch -->
<g id="edge20" class="edge">
<title>pitch_test&#45;&gt;pitch</title>
<path fill="none" stroke="#000000" d="M815.7991,-232.283C763.1895,-211.506 659.3107,-170.4814 605.7276,-149.32"/>
<polygon fill="#000000" stroke="#000000" points="606.9181,-146.0271 596.3315,-145.6092 604.3468,-152.5378 606.9181,-146.0271"/>
</g>
<!-- pitch_test&#45;&gt;notation_strings -->
<g id="edge19" class="edge">
<title>pitch_test&#45;&gt;notation_strings</title>
<path fill="none" stroke="#000000" d="M829.3597,-228.6146C786.0544,-190.5478 678.4741,-95.9812 627.5544,-51.2212"/>
<polygon fill="#000000" stroke="#000000" points="629.7086,-48.4548 619.8871,-44.4814 625.0871,-53.7124 629.7086,-48.4548"/>
</g>
<!-- qmlscene_main -->
<g id="node23" class="node">
<title>qmlscene_main</title>
<ellipse fill="none" stroke="#000000" cx="579" cy="-791" rx="66.8882" ry="18"/>
<text text-anchor="middle" x="579" y="-787.3" font-family="Times,serif" font-size="14.00" fill="#000000">qmlscene_main</text>
</g>
<!-- qmlscene_main&#45;&gt;view_model_collection -->
<g id="edge26" class="edge">
<title>qmlscene_main&#45;&gt;view_model_collection</title>
<path fill="none" stroke="#000000" d="M569.5876,-773.0009C560.4703,-755.5661 546.5298,-728.9079 536.09,-708.944"/>
<polygon fill="#000000" stroke="#000000" points="539.1619,-707.2655 531.4264,-700.0259 532.9589,-710.5093 539.1619,-707.2655"/>
</g>
<!-- random_concrete&#45;&gt;random -->
<g id="edge27" class="edge">
<title>random_concrete&#45;&gt;random</title>
<path fill="none" stroke="#000000" d="M784.2801,-446.4873C804.7857,-427.8613 837.3057,-398.3223 859.8212,-377.8707"/>
<polygon fill="#000000" stroke="#000000" points="862.283,-380.363 867.3319,-371.0485 857.5764,-375.1815 862.283,-380.363"/>
</g>
<!-- task_queue&#45;&gt;task -->
<g id="edge31" class="edge">
<title>task_queue&#45;&gt;task</title>
<path fill="none" stroke="#000000" d="M259.562,-555.1844C240.9256,-529.2619 203.7814,-480.4843 165,-446 131.1343,-415.8867 86.5406,-388.299 57.3391,-371.5789"/>
<polygon fill="#000000" stroke="#000000" points="58.8597,-368.418 48.4321,-366.5427 55.4144,-374.5114 58.8597,-368.418"/>
</g>
<!-- task_queue&#45;&gt;task_runner -->
<g id="edge32" class="edge">
<title>task_queue&#45;&gt;task_runner</title>
<path fill="none" stroke="#000000" d="M247.5714,-557.1505C218.5402,-538.3147 169.9501,-506.7891 137.4441,-485.6988"/>
<polygon fill="#000000" stroke="#000000" points="139.0259,-482.553 128.7318,-480.0463 135.2158,-488.4253 139.0259,-482.553"/>
</g>
<!-- task_queue&#45;&gt;qml_message_interceptor -->
<g id="edge30" class="edge">
<title>task_queue&#45;&gt;qml_message_interceptor</title>
<path fill="none" stroke="#000000" d="M278.9354,-555.0009C285.5926,-537.7239 295.7398,-511.3896 303.4084,-491.4877"/>
<polygon fill="#000000" stroke="#000000" points="306.7246,-492.6156 307.0543,-482.0259 300.1927,-490.0987 306.7246,-492.6156"/>
</g>
</g>
</svg>
