<?xml version="1.0" encoding="UTF-8" standalone="no"?>
<!DOCTYPE svg PUBLIC "-//W3C//DTD SVG 1.1//EN"
 "http://www.w3.org/Graphics/SVG/1.1/DTD/svg11.dtd">
<!-- Generated by graphviz version 2.40.1 (20161225.0304)
 -->
<!-- Title: source tree Pages: 1 -->
<svg width="1176pt" height="942pt"
 viewBox="0.00 0.00 1175.79 941.60" xmlns="http://www.w3.org/2000/svg" xmlns:xlink="http://www.w3.org/1999/xlink">
<g id="graph0" class="graph" transform="scale(1 1) rotate(0) translate(4 937.6)">
<title>source tree</title>
<polygon fill="#ffffff" stroke="transparent" points="-4,4 -4,-937.6 1171.7901,-937.6 1171.7901,4 -4,4"/>
<!-- collection -->
<g id="node1" class="node">
<title>collection</title>
<ellipse fill="none" stroke="#000000" cx="250.9954" cy="-645" rx="45.4919" ry="18"/>
<text text-anchor="middle" x="250.9954" y="-641.3" font-family="Times,serif" font-size="14.00" fill="#000000">collection</text>
</g>
<!-- test_interface -->
<g id="node2" class="node">
<title>test_interface</title>
<ellipse fill="none" stroke="#000000" cx="179.9954" cy="-467" rx="57.6901" ry="18"/>
<text text-anchor="middle" x="179.9954" y="-463.3" font-family="Times,serif" font-size="14.00" fill="#000000">test_interface</text>
</g>
<!-- collection&#45;&gt;test_interface -->
<g id="edge1" class="edge">
<title>collection&#45;&gt;test_interface</title>
<path fill="none" stroke="#000000" d="M243.7968,-626.9528C231.3581,-595.7684 205.7646,-531.6046 191.0537,-494.7237"/>
<polygon fill="#000000" stroke="#000000" points="194.1689,-493.0865 187.213,-485.0949 187.6671,-495.68 194.1689,-493.0865"/>
</g>
<!-- test_pitch_train -->
<g id="node3" class="node">
<title>test_pitch_train</title>
<ellipse fill="none" stroke="#000000" cx="305.9954" cy="-556" rx="65.7887" ry="18"/>
<text text-anchor="middle" x="305.9954" y="-552.3" font-family="Times,serif" font-size="14.00" fill="#000000">test_pitch_train</text>
</g>
<!-- collection&#45;&gt;test_pitch_train -->
<g id="edge2" class="edge">
<title>collection&#45;&gt;test_pitch_train</title>
<path fill="none" stroke="#000000" d="M261.8616,-627.4165C269.7948,-614.5792 280.6861,-596.955 289.6642,-582.4269"/>
<polygon fill="#000000" stroke="#000000" points="292.6838,-584.1983 294.9635,-573.8516 286.7291,-580.5184 292.6838,-584.1983"/>
</g>
<!-- test_pitch_train&#45;&gt;test_interface -->
<g id="edge33" class="edge">
<title>test_pitch_train&#45;&gt;test_interface</title>
<path fill="none" stroke="#000000" d="M281.9992,-539.0503C262.0803,-524.9806 233.5852,-504.8531 211.773,-489.4461"/>
<polygon fill="#000000" stroke="#000000" points="213.6629,-486.496 203.4757,-483.5853 209.6243,-492.2135 213.6629,-486.496"/>
</g>
<!-- music_notes -->
<g id="node12" class="node">
<title>music_notes</title>
<ellipse fill="none" stroke="#000000" cx="651.9954" cy="-467" rx="55.4913" ry="18"/>
<text text-anchor="middle" x="651.9954" y="-463.3" font-family="Times,serif" font-size="14.00" fill="#000000">music_notes</text>
</g>
<!-- test_pitch_train&#45;&gt;music_notes -->
<g id="edge30" class="edge">
<title>test_pitch_train&#45;&gt;music_notes</title>
<path fill="none" stroke="#000000" d="M354.1052,-543.6249C418.3064,-527.1108 531.6429,-497.9577 598.4759,-480.7666"/>
<polygon fill="#000000" stroke="#000000" points="599.5751,-484.0979 608.3879,-478.217 597.8312,-477.3185 599.5751,-484.0979"/>
</g>
<!-- random -->
<g id="node18" class="node">
<title>random</title>
<ellipse fill="none" stroke="#000000" cx="410.9954" cy="-289" rx="38.1938" ry="18"/>
<text text-anchor="middle" x="410.9954" y="-285.3" font-family="Times,serif" font-size="14.00" fill="#000000">random</text>
</g>
<!-- test_pitch_train&#45;&gt;random -->
<g id="edge31" class="edge">
<title>test_pitch_train&#45;&gt;random</title>
<path fill="none" stroke="#000000" d="M323.8028,-538.4082C336.7222,-524.8194 353.8225,-505.0105 364.9954,-485 395.354,-430.6284 405.7364,-357.0036 409.2434,-317.2596"/>
<polygon fill="#000000" stroke="#000000" points="412.7376,-317.4701 410.0447,-307.2232 405.7598,-316.9129 412.7376,-317.4701"/>
</g>
<!-- task_queue -->
<g id="node23" class="node">
<title>task_queue</title>
<ellipse fill="none" stroke="#000000" cx="305.9954" cy="-467" rx="50.0912" ry="18"/>
<text text-anchor="middle" x="305.9954" y="-463.3" font-family="Times,serif" font-size="14.00" fill="#000000">task_queue</text>
</g>
<!-- test_pitch_train&#45;&gt;task_queue -->
<g id="edge32" class="edge">
<title>test_pitch_train&#45;&gt;task_queue</title>
<path fill="none" stroke="#000000" d="M305.9954,-537.9895C305.9954,-525.7658 305.9954,-509.3495 305.9954,-495.3824"/>
<polygon fill="#000000" stroke="#000000" points="309.4955,-495.2891 305.9954,-485.2892 302.4955,-495.2892 309.4955,-495.2891"/>
</g>
<!-- fsynth -->
<g id="node4" class="node">
<title>fsynth</title>
<ellipse fill="none" stroke="#000000" cx="819.9954" cy="-378" rx="32.4942" ry="18"/>
<text text-anchor="middle" x="819.9954" y="-374.3" font-family="Times,serif" font-size="14.00" fill="#000000">fsynth</text>
</g>
<!-- pitch -->
<g id="node5" class="node">
<title>pitch</title>
<ellipse fill="none" stroke="#000000" cx="1001.9954" cy="-111" rx="28.6953" ry="18"/>
<text text-anchor="middle" x="1001.9954" y="-107.3" font-family="Times,serif" font-size="14.00" fill="#000000">pitch</text>
</g>
<!-- fsynth&#45;&gt;pitch -->
<g id="edge3" class="edge">
<title>fsynth&#45;&gt;pitch</title>
<path fill="none" stroke="#000000" d="M845.6734,-366.6081C890.1245,-345.1647 979.3986,-294.017 1007.9954,-218 1017.666,-192.2931 1014.1885,-160.6541 1009.5108,-138.4725"/>
<polygon fill="#000000" stroke="#000000" points="1012.9146,-137.657 1007.2455,-128.7065 1006.0957,-139.2388 1012.9146,-137.657"/>
</g>
<!-- sound_io_interface -->
<g id="node6" class="node">
<title>sound_io_interface</title>
<ellipse fill="none" stroke="#000000" cx="842.9954" cy="-289" rx="77.9862" ry="18"/>
<text text-anchor="middle" x="842.9954" y="-285.3" font-family="Times,serif" font-size="14.00" fill="#000000">sound_io_interface</text>
</g>
<!-- fsynth&#45;&gt;sound_io_interface -->
<g id="edge4" class="edge">
<title>fsynth&#45;&gt;sound_io_interface</title>
<path fill="none" stroke="#000000" d="M824.6498,-359.9895C827.8608,-347.5643 832.1914,-330.8069 835.8387,-316.6935"/>
<polygon fill="#000000" stroke="#000000" points="839.2344,-317.5414 838.3479,-306.9837 832.4571,-315.7899 839.2344,-317.5414"/>
</g>
<!-- notation_strings -->
<g id="node17" class="node">
<title>notation_strings</title>
<ellipse fill="none" stroke="#000000" cx="1001.9954" cy="-22" rx="67.6881" ry="18"/>
<text text-anchor="middle" x="1001.9954" y="-18.3" font-family="Times,serif" font-size="14.00" fill="#000000">notation_strings</text>
</g>
<!-- pitch&#45;&gt;notation_strings -->
<g id="edge14" class="edge">
<title>pitch&#45;&gt;notation_strings</title>
<path fill="none" stroke="#000000" d="M1001.9954,-92.9895C1001.9954,-80.7658 1001.9954,-64.3495 1001.9954,-50.3824"/>
<polygon fill="#000000" stroke="#000000" points="1005.4955,-50.2891 1001.9954,-40.2892 998.4955,-50.2892 1005.4955,-50.2891"/>
</g>
<!-- sound_io_interface&#45;&gt;pitch -->
<g id="edge25" class="edge">
<title>sound_io_interface&#45;&gt;pitch</title>
<path fill="none" stroke="#000000" d="M896.3437,-275.8655C927.4001,-265.3975 964.5453,-247.4693 985.9954,-218 1002.5037,-195.32 1005.1959,-162.6858 1004.5739,-139.4308"/>
<polygon fill="#000000" stroke="#000000" points="1008.0562,-138.9812 1004.0707,-129.1645 1001.0646,-139.3239 1008.0562,-138.9812"/>
</g>
<!-- incoming_pitch_listener_interface -->
<g id="node9" class="node">
<title>incoming_pitch_listener_interface</title>
<ellipse fill="none" stroke="#000000" cx="844.9954" cy="-200" rx="131.8766" ry="18"/>
<text text-anchor="middle" x="844.9954" y="-196.3" font-family="Times,serif" font-size="14.00" fill="#000000">incoming_pitch_listener_interface</text>
</g>
<!-- sound_io_interface&#45;&gt;incoming_pitch_listener_interface -->
<g id="edge24" class="edge">
<title>sound_io_interface&#45;&gt;incoming_pitch_listener_interface</title>
<path fill="none" stroke="#000000" d="M843.4001,-270.9895C843.6748,-258.7658 844.0437,-242.3495 844.3576,-228.3824"/>
<polygon fill="#000000" stroke="#000000" points="847.8588,-228.3653 844.5844,-218.2892 840.8605,-228.208 847.8588,-228.3653"/>
</g>
<!-- gui_tests -->
<g id="node7" class="node">
<title>gui_tests</title>
<ellipse fill="none" stroke="#000000" cx="250.9954" cy="-734" rx="42.4939" ry="18"/>
<text text-anchor="middle" x="250.9954" y="-730.3" font-family="Times,serif" font-size="14.00" fill="#000000">gui_tests</text>
</g>
<!-- gui_tests&#45;&gt;collection -->
<g id="edge5" class="edge">
<title>gui_tests&#45;&gt;collection</title>
<path fill="none" stroke="#000000" d="M250.9954,-715.9895C250.9954,-703.7658 250.9954,-687.3495 250.9954,-673.3824"/>
<polygon fill="#000000" stroke="#000000" points="254.4955,-673.2891 250.9954,-663.2892 247.4955,-673.2892 254.4955,-673.2891"/>
</g>
<!-- note_player -->
<g id="node8" class="node">
<title>note_player</title>
<ellipse fill="none" stroke="#000000" cx="51.9954" cy="-467" rx="51.9908" ry="18"/>
<text text-anchor="middle" x="51.9954" y="-463.3" font-family="Times,serif" font-size="14.00" fill="#000000">note_player</text>
</g>
<!-- gui_tests&#45;&gt;note_player -->
<g id="edge6" class="edge">
<title>gui_tests&#45;&gt;note_player</title>
<path fill="none" stroke="#000000" d="M237.8371,-716.832C226.8632,-702.4823 210.8418,-681.4587 196.9954,-663 151.4957,-602.3441 98.6724,-530.6031 71.0546,-492.9919"/>
<polygon fill="#000000" stroke="#000000" points="73.6538,-490.618 64.9151,-484.6275 68.0108,-494.76 73.6538,-490.618"/>
</g>
<!-- task -->
<g id="node15" class="node">
<title>task</title>
<ellipse fill="none" stroke="#000000" cx="73.9954" cy="-289" rx="27" ry="18"/>
<text text-anchor="middle" x="73.9954" y="-285.3" font-family="Times,serif" font-size="14.00" fill="#000000">task</text>
</g>
<!-- note_player&#45;&gt;task -->
<g id="edge12" class="edge">
<title>note_player&#45;&gt;task</title>
<path fill="none" stroke="#000000" d="M37.7942,-449.5577C22.3462,-428.3606 1.3155,-391.5176 12.9954,-360 20.2179,-340.5105 35.4494,-322.7732 48.8845,-309.9019"/>
<polygon fill="#000000" stroke="#000000" points="51.5065,-312.2465 56.5132,-302.9093 46.7765,-307.0863 51.5065,-312.2465"/>
</g>
<!-- task_runner -->
<g id="node16" class="node">
<title>task_runner</title>
<ellipse fill="none" stroke="#000000" cx="73.9954" cy="-378" rx="51.9908" ry="18"/>
<text text-anchor="middle" x="73.9954" y="-374.3" font-family="Times,serif" font-size="14.00" fill="#000000">task_runner</text>
</g>
<!-- note_player&#45;&gt;task_runner -->
<g id="edge13" class="edge">
<title>note_player&#45;&gt;task_runner</title>
<path fill="none" stroke="#000000" d="M56.4474,-448.9895C59.5188,-436.5643 63.6611,-419.8069 67.1498,-405.6935"/>
<polygon fill="#000000" stroke="#000000" points="70.548,-406.5314 69.55,-395.9837 63.7525,-404.8516 70.548,-406.5314"/>
</g>
<!-- incoming_pitch_listener_interface&#45;&gt;pitch -->
<g id="edge7" class="edge">
<title>incoming_pitch_listener_interface&#45;&gt;pitch</title>
<path fill="none" stroke="#000000" d="M876.0135,-182.4165C903.7933,-166.6687 944.2807,-143.7173 971.8045,-128.1146"/>
<polygon fill="#000000" stroke="#000000" points="973.6312,-131.1024 980.6046,-123.126 970.1791,-125.0128 973.6312,-131.1024"/>
</g>
<!-- main -->
<g id="node10" class="node">
<title>main</title>
<ellipse fill="none" stroke="#000000" cx="494.9954" cy="-911" rx="28.6953" ry="18"/>
<text text-anchor="middle" x="494.9954" y="-907.3" font-family="Times,serif" font-size="14.00" fill="#000000">main</text>
</g>
<!-- view_model_collection -->
<g id="node11" class="node">
<title>view_model_collection</title>
<ellipse fill="none" stroke="#000000" cx="551.9954" cy="-822" rx="93.6835" ry="18"/>
<text text-anchor="middle" x="551.9954" y="-818.3" font-family="Times,serif" font-size="14.00" fill="#000000">view_model_collection</text>
</g>
<!-- main&#45;&gt;view_model_collection -->
<g id="edge8" class="edge">
<title>main&#45;&gt;view_model_collection</title>
<path fill="none" stroke="#000000" d="M505.7167,-894.2598C513.9422,-881.4164 525.4574,-863.4365 534.9433,-848.6252"/>
<polygon fill="#000000" stroke="#000000" points="538.0939,-850.1954 540.5399,-839.8867 532.1992,-846.4201 538.0939,-850.1954"/>
</g>
<!-- view_model_collection&#45;&gt;fsynth -->
<g id="edge34" class="edge">
<title>view_model_collection&#45;&gt;fsynth</title>
<path fill="none" stroke="#000000" d="M606.9636,-807.4273C676.9759,-785.1499 788.9954,-735.3835 788.9954,-645 788.9954,-645 788.9954,-645 788.9954,-556 788.9954,-502.2726 802.8726,-440.7578 812.0574,-405.9273"/>
<polygon fill="#000000" stroke="#000000" points="815.5066,-406.5795 814.7367,-396.0127 808.749,-404.7533 815.5066,-406.5795"/>
</g>
<!-- view_model_collection&#45;&gt;gui_tests -->
<g id="edge35" class="edge">
<title>view_model_collection&#45;&gt;gui_tests</title>
<path fill="none" stroke="#000000" d="M500.2516,-806.8723C442.6531,-790.0328 350.5027,-763.0918 295.8507,-747.1138"/>
<polygon fill="#000000" stroke="#000000" points="296.6795,-743.7097 286.0991,-744.2629 294.7152,-750.4285 296.6795,-743.7097"/>
</g>
<!-- view_model_collection&#45;&gt;music_notes -->
<g id="edge36" class="edge">
<title>view_model_collection&#45;&gt;music_notes</title>
<path fill="none" stroke="#000000" d="M564.1246,-803.8629C582.5478,-775.2876 617.1155,-717.4235 632.9954,-663 649.8887,-605.1031 652.5219,-533.9247 652.5263,-495.264"/>
<polygon fill="#000000" stroke="#000000" points="656.0263,-495.2394 652.4676,-485.2601 649.0265,-495.2806 656.0263,-495.2394"/>
</g>
<!-- random_concrete -->
<g id="node20" class="node">
<title>random_concrete</title>
<ellipse fill="none" stroke="#000000" cx="551.9954" cy="-645" rx="72.2875" ry="18"/>
<text text-anchor="middle" x="551.9954" y="-641.3" font-family="Times,serif" font-size="14.00" fill="#000000">random_concrete</text>
</g>
<!-- view_model_collection&#45;&gt;random_concrete -->
<g id="edge38" class="edge">
<title>view_model_collection&#45;&gt;random_concrete</title>
<path fill="none" stroke="#000000" d="M551.9954,-803.7246C551.9954,-772.774 551.9954,-709.8423 551.9954,-673.202"/>
<polygon fill="#000000" stroke="#000000" points="555.4955,-673.176 551.9954,-663.176 548.4955,-673.1761 555.4955,-673.176"/>
</g>
<!-- qml_message_interceptor -->
<g id="node24" class="node">
<title>qml_message_interceptor</title>
<ellipse fill="none" stroke="#000000" cx="283.9954" cy="-378" rx="102.0819" ry="18"/>
<text text-anchor="middle" x="283.9954" y="-374.3" font-family="Times,serif" font-size="14.00" fill="#000000">qml_message_interceptor</text>
</g>
<!-- view_model_collection&#45;&gt;qml_message_interceptor -->
<g id="edge37" class="edge">
<title>view_model_collection&#45;&gt;qml_message_interceptor</title>
<path fill="none" stroke="#000000" d="M533.6538,-804.2605C504.7847,-774.338 451.9954,-710.6475 451.9954,-645 451.9954,-645 451.9954,-645 451.9954,-556 451.9954,-483.5938 377.5666,-428.7163 327.7892,-400.1111"/>
<polygon fill="#000000" stroke="#000000" points="329.2399,-396.9119 318.8051,-395.0773 325.8183,-403.0187 329.2399,-396.9119"/>
</g>
<!-- music_notes&#45;&gt;fsynth -->
<g id="edge9" class="edge">
<title>music_notes&#45;&gt;fsynth</title>
<path fill="none" stroke="#000000" d="M681.2588,-451.4974C710.9072,-435.7908 756.6695,-411.5477 787.4454,-395.2438"/>
<polygon fill="#000000" stroke="#000000" points="789.2828,-398.2312 796.481,-390.4571 786.0059,-392.0456 789.2828,-398.2312"/>
</g>
<!-- pitch_training -->
<g id="node13" class="node">
<title>pitch_training</title>
<ellipse fill="none" stroke="#000000" cx="671.9954" cy="-378" rx="59.5901" ry="18"/>
<text text-anchor="middle" x="671.9954" y="-374.3" font-family="Times,serif" font-size="14.00" fill="#000000">pitch_training</text>
</g>
<!-- music_notes&#45;&gt;pitch_training -->
<g id="edge10" class="edge">
<title>music_notes&#45;&gt;pitch_training</title>
<path fill="none" stroke="#000000" d="M656.0427,-448.9895C658.8078,-436.6849 662.5275,-420.1319 665.6796,-406.1053"/>
<polygon fill="#000000" stroke="#000000" points="669.1764,-406.5078 667.9541,-395.9837 662.3467,-404.973 669.1764,-406.5078"/>
</g>
<!-- wrap_qt_trace_category -->
<g id="node14" class="node">
<title>wrap_qt_trace_category</title>
<ellipse fill="none" stroke="#000000" cx="562.9954" cy="-289" rx="95.5831" ry="18"/>
<text text-anchor="middle" x="562.9954" y="-285.3" font-family="Times,serif" font-size="14.00" fill="#000000">wrap_qt_trace_category</text>
</g>
<!-- music_notes&#45;&gt;wrap_qt_trace_category -->
<g id="edge11" class="edge">
<title>music_notes&#45;&gt;wrap_qt_trace_category</title>
<path fill="none" stroke="#000000" d="M638.0135,-449.3897C627.427,-435.4742 613.0412,-415.2533 602.9954,-396 589.5318,-370.1963 578.3591,-338.8131 571.2755,-316.7277"/>
<polygon fill="#000000" stroke="#000000" points="574.5552,-315.4889 568.2247,-306.9933 567.8755,-317.5824 574.5552,-315.4889"/>
</g>
<!-- pitch_training&#45;&gt;pitch -->
<g id="edge16" class="edge">
<title>pitch_training&#45;&gt;pitch</title>
<path fill="none" stroke="#000000" d="M672.4658,-359.892C673.9731,-316.387 680.0985,-207.6839 703.9954,-182 739.0431,-144.3313 891.3397,-123.0451 963.6318,-114.8952"/>
<polygon fill="#000000" stroke="#000000" points="964.1368,-118.3608 973.6938,-113.7876 963.3709,-111.4028 964.1368,-118.3608"/>
</g>
<!-- pitch_training&#45;&gt;sound_io_interface -->
<g id="edge18" class="edge">
<title>pitch_training&#45;&gt;sound_io_interface</title>
<path fill="none" stroke="#000000" d="M702.1731,-362.2935C729.8915,-347.8669 771.2044,-326.3649 801.9229,-310.3769"/>
<polygon fill="#000000" stroke="#000000" points="803.8347,-313.3276 811.0893,-305.6061 800.6029,-307.1183 803.8347,-313.3276"/>
</g>
<!-- pitch_training&#45;&gt;incoming_pitch_listener_interface -->
<g id="edge15" class="edge">
<title>pitch_training&#45;&gt;incoming_pitch_listener_interface</title>
<path fill="none" stroke="#000000" d="M683.9509,-360.3131C699.3005,-338.2247 727.3844,-299.8354 755.9954,-271 772.9843,-253.8778 793.9998,-236.9462 811.3428,-223.9141"/>
<polygon fill="#000000" stroke="#000000" points="813.579,-226.6132 819.5278,-217.846 809.4102,-220.9899 813.579,-226.6132"/>
</g>
<!-- pitch_training&#45;&gt;wrap_qt_trace_category -->
<g id="edge19" class="edge">
<title>pitch_training&#45;&gt;wrap_qt_trace_category</title>
<path fill="none" stroke="#000000" d="M651.2368,-361.0503C634.6645,-347.5188 611.23,-328.3842 592.6757,-313.2344"/>
<polygon fill="#000000" stroke="#000000" points="594.7569,-310.4152 584.7973,-306.8016 590.3296,-315.8373 594.7569,-310.4152"/>
</g>
<!-- pitch_training&#45;&gt;random -->
<g id="edge17" class="edge">
<title>pitch_training&#45;&gt;random</title>
<path fill="none" stroke="#000000" d="M630.7806,-364.9393C587.548,-351.0961 517.7141,-328.3297 457.9954,-307 455.4227,-306.0811 452.7773,-305.1182 450.1155,-304.1357"/>
<polygon fill="#000000" stroke="#000000" points="451.0965,-300.7657 440.5041,-300.5358 448.6412,-307.321 451.0965,-300.7657"/>
</g>
<!-- null_stream -->
<g id="node25" class="node">
<title>null_stream</title>
<ellipse fill="none" stroke="#000000" cx="562.9954" cy="-200" rx="52.7911" ry="18"/>
<text text-anchor="middle" x="562.9954" y="-196.3" font-family="Times,serif" font-size="14.00" fill="#000000">null_stream</text>
</g>
<!-- wrap_qt_trace_category&#45;&gt;null_stream -->
<g id="edge39" class="edge">
<title>wrap_qt_trace_category&#45;&gt;null_stream</title>
<path fill="none" stroke="#000000" d="M562.9954,-270.9895C562.9954,-258.7658 562.9954,-242.3495 562.9954,-228.3824"/>
<polygon fill="#000000" stroke="#000000" points="566.4955,-228.2891 562.9954,-218.2892 559.4955,-228.2892 566.4955,-228.2891"/>
</g>
<!-- task_runner&#45;&gt;task -->
<g id="edge29" class="edge">
<title>task_runner&#45;&gt;task</title>
<path fill="none" stroke="#000000" d="M73.9954,-359.9895C73.9954,-347.7658 73.9954,-331.3495 73.9954,-317.3824"/>
<polygon fill="#000000" stroke="#000000" points="77.4955,-317.2891 73.9954,-307.2892 70.4955,-317.2892 77.4955,-317.2891"/>
</g>
<!-- qmlscene_main -->
<g id="node19" class="node">
<title>qmlscene_main</title>
<ellipse fill="none" stroke="#000000" cx="608.9954" cy="-911" rx="66.8882" ry="18"/>
<text text-anchor="middle" x="608.9954" y="-907.3" font-family="Times,serif" font-size="14.00" fill="#000000">qmlscene_main</text>
</g>
<!-- qmlscene_main&#45;&gt;view_model_collection -->
<g id="edge20" class="edge">
<title>qmlscene_main&#45;&gt;view_model_collection</title>
<path fill="none" stroke="#000000" d="M597.4606,-892.9895C589.2711,-880.2024 578.1431,-862.8271 568.9463,-848.4671"/>
<polygon fill="#000000" stroke="#000000" points="571.8537,-846.5171 563.513,-839.9837 565.9589,-850.2923 571.8537,-846.5171"/>
</g>
<!-- random_concrete&#45;&gt;random -->
<g id="edge21" class="edge">
<title>random_concrete&#45;&gt;random</title>
<path fill="none" stroke="#000000" d="M544.8093,-626.8565C521.7557,-568.6502 449.5535,-386.3524 421.9109,-316.5598"/>
<polygon fill="#000000" stroke="#000000" points="425.1035,-315.1155 418.167,-307.107 418.5953,-317.6932 425.1035,-315.1155"/>
</g>
<!-- scale -->
<g id="node21" class="node">
<title>scale</title>
<ellipse fill="none" stroke="#000000" cx="1104.9954" cy="-200" rx="28.6953" ry="18"/>
<text text-anchor="middle" x="1104.9954" y="-196.3" font-family="Times,serif" font-size="14.00" fill="#000000">scale</text>
</g>
<!-- scale&#45;&gt;pitch -->
<g id="edge23" class="edge">
<title>scale&#45;&gt;pitch</title>
<path fill="none" stroke="#000000" d="M1087.987,-185.3035C1071.2883,-170.8745 1045.6356,-148.7086 1026.6915,-132.3394"/>
<polygon fill="#000000" stroke="#000000" points="1028.884,-129.6082 1019.029,-125.7184 1024.3073,-134.9048 1028.884,-129.6082"/>
</g>
<!-- music_enums -->
<g id="node22" class="node">
<title>music_enums</title>
<ellipse fill="none" stroke="#000000" cx="1107.9954" cy="-111" rx="59.5901" ry="18"/>
<text text-anchor="middle" x="1107.9954" y="-107.3" font-family="Times,serif" font-size="14.00" fill="#000000">music_enums</text>
</g>
<!-- scale&#45;&gt;music_enums -->
<g id="edge22" class="edge">
<title>scale&#45;&gt;music_enums</title>
<path fill="none" stroke="#000000" d="M1105.6025,-181.9895C1106.0145,-169.7658 1106.5679,-153.3495 1107.0387,-139.3824"/>
<polygon fill="#000000" stroke="#000000" points="1110.5399,-139.4014 1107.3789,-129.2892 1103.5439,-139.1655 1110.5399,-139.4014"/>
</g>
<!-- task_queue&#45;&gt;task -->
<g id="edge27" class="edge">
<title>task_queue&#45;&gt;task</title>
<path fill="none" stroke="#000000" d="M273.2959,-453.2776C245.2042,-440.6453 204.3879,-420.2274 172.9954,-396 155.9455,-382.8416 117.8072,-339.8843 94.1577,-312.5673"/>
<polygon fill="#000000" stroke="#000000" points="96.7938,-310.2648 87.6119,-304.9786 91.4932,-314.8369 96.7938,-310.2648"/>
</g>
<!-- task_queue&#45;&gt;task_runner -->
<g id="edge28" class="edge">
<title>task_queue&#45;&gt;task_runner</title>
<path fill="none" stroke="#000000" d="M271.763,-453.8677C231.1329,-438.2812 163.2724,-412.2485 118.574,-395.1013"/>
<polygon fill="#000000" stroke="#000000" points="119.719,-391.7919 109.1288,-391.4779 117.2117,-398.3275 119.719,-391.7919"/>
</g>
<!-- task_queue&#45;&gt;qml_message_interceptor -->
<g id="edge26" class="edge">
<title>task_queue&#45;&gt;qml_message_interceptor</title>
<path fill="none" stroke="#000000" d="M301.5434,-448.9895C298.4719,-436.5643 294.3297,-419.8069 290.841,-405.6935"/>
<polygon fill="#000000" stroke="#000000" points="294.2383,-404.8516 288.4408,-395.9837 287.4428,-406.5314 294.2383,-404.8516"/>
</g>
</g>
</svg>
