<?xml version="1.0" encoding="UTF-8" standalone="no"?>
<!DOCTYPE svg PUBLIC "-//W3C//DTD SVG 1.1//EN"
 "http://www.w3.org/Graphics/SVG/1.1/DTD/svg11.dtd">
<!-- Generated by graphviz version 2.40.1 (20161225.0304)
 -->
<!-- Title: source tree Pages: 1 -->
<svg width="864pt" height="1293pt"
 viewBox="0.00 0.00 864.00 1293.02" xmlns="http://www.w3.org/2000/svg" xmlns:xlink="http://www.w3.org/1999/xlink">
<g id="graph0" class="graph" transform="scale(.5451 .5451) rotate(0) translate(4 2368)">
<title>source tree</title>
<polygon fill="#ffffff" stroke="transparent" points="-4,4 -4,-2368 1580.9827,-2368 1580.9827,4 -4,4"/>
<!-- collection_active -->
<g id="node1" class="node">
<title>collection_active</title>
<ellipse fill="none" stroke="#000000" cx="727.5963" cy="-2285" rx="70.6878" ry="18"/>
<text text-anchor="middle" x="727.5963" y="-2281.3" font-family="Times,serif" font-size="14.00" fill="#000000">collection_active</text>
</g>
<!-- collection -->
<g id="node2" class="node">
<title>collection</title>
<ellipse fill="none" stroke="#000000" cx="1160.5963" cy="-1340" rx="45.4919" ry="18"/>
<text text-anchor="middle" x="1160.5963" y="-1336.3" font-family="Times,serif" font-size="14.00" fill="#000000">collection</text>
</g>
<!-- collection_active&#45;&gt;collection -->
<g id="edge1" class="edge">
<title>collection_active&#45;&gt;collection</title>
<path fill="none" stroke="#000000" d="M742.7713,-2267.2636C785.7928,-2223.6433 908.4173,-2106.0736 984.5963,-1988 1067.5569,-1859.4153 1085.7777,-1821.2776 1123.5963,-1673 1151.6815,-1562.8848 1153.1808,-1426.3253 1156.3674,-1368.2545"/>
<polygon fill="#000000" stroke="#000000" points="1159.8756,-1368.2334 1157.0121,-1358.0328 1152.8894,-1367.7927 1159.8756,-1368.2334"/>
</g>
<!-- interface -->
<g id="node3" class="node">
<title>interface</title>
<ellipse fill="none" stroke="#000000" cx="41.5963" cy="-1655" rx="41.6928" ry="18"/>
<text text-anchor="middle" x="41.5963" y="-1651.3" font-family="Times,serif" font-size="14.00" fill="#000000">interface</text>
</g>
<!-- collection_active&#45;&gt;interface -->
<g id="edge2" class="edge">
<title>collection_active&#45;&gt;interface</title>
<path fill="none" stroke="#000000" d="M685.955,-2270.4352C590.9708,-2235.3982 355.4966,-2138.0362 212.5963,-1988 123.1944,-1894.1337 69.2982,-1744.3853 49.8524,-1682.8182"/>
<polygon fill="#000000" stroke="#000000" points="53.1273,-1681.5615 46.8232,-1673.0463 46.4411,-1683.6342 53.1273,-1681.5615"/>
</g>
<!-- test_pitch_train -->
<g id="node4" class="node">
<title>test_pitch_train</title>
<ellipse fill="none" stroke="#000000" cx="287.5963" cy="-1970" rx="65.7887" ry="18"/>
<text text-anchor="middle" x="287.5963" y="-1966.3" font-family="Times,serif" font-size="14.00" fill="#000000">test_pitch_train</text>
</g>
<!-- collection_active&#45;&gt;test_pitch_train -->
<g id="edge3" class="edge">
<title>collection_active&#45;&gt;test_pitch_train</title>
<path fill="none" stroke="#000000" d="M703.6275,-2267.8405C629.4218,-2214.716 403.4255,-2052.9232 319.4554,-1992.8082"/>
<polygon fill="#000000" stroke="#000000" points="321.4869,-1989.9581 311.3184,-1986.9828 317.4121,-1995.6499 321.4869,-1989.9581"/>
</g>
<!-- collection&#45;&gt;collection_active -->
<g id="edge4" class="edge">
<title>collection&#45;&gt;collection_active</title>
<path fill="none" stroke="#000000" d="M1165.2875,-1358.0328C1171.2636,-1408.6132 1171.4916,-1555.7879 1141.5963,-1673 1103.7777,-1821.2776 1085.5569,-1859.4153 1002.5963,-1988 929.6305,-2101.0933 814.0547,-2213.7243 758.744,-2261.3547"/>
<polygon fill="#000000" stroke="#000000" points="756.3899,-2258.7621 751.0329,-2267.9029 760.9209,-2264.0978 756.3899,-2258.7621"/>
</g>
<!-- collection_inert -->
<g id="node5" class="node">
<title>collection_inert</title>
<ellipse fill="none" stroke="#000000" cx="1324.5963" cy="-1024" rx="65.7887" ry="18"/>
<text text-anchor="middle" x="1324.5963" y="-1020.3" font-family="Times,serif" font-size="14.00" fill="#000000">collection_inert</text>
</g>
<!-- collection&#45;&gt;collection_inert -->
<g id="edge5" class="edge">
<title>collection&#45;&gt;collection_inert</title>
<path fill="none" stroke="#000000" d="M1166.5452,-1322.1051C1189.6697,-1269.2014 1270.3611,-1113.3246 1306.8349,-1050.5962"/>
<polygon fill="#000000" stroke="#000000" points="1310.0179,-1052.0892 1312.0887,-1041.6987 1303.9903,-1048.53 1310.0179,-1052.0892"/>
</g>
<!-- test_pitch_train&#45;&gt;interface -->
<g id="edge36" class="edge">
<title>test_pitch_train&#45;&gt;interface</title>
<path fill="none" stroke="#000000" d="M273.6654,-1952.1617C232.2147,-1899.0846 109.5617,-1742.0289 61.3631,-1680.3111"/>
<polygon fill="#000000" stroke="#000000" points="63.9859,-1677.9831 55.0724,-1672.256 58.4689,-1682.2916 63.9859,-1677.9831"/>
</g>
<!-- music_notes -->
<g id="node19" class="node">
<title>music_notes</title>
<ellipse fill="none" stroke="#000000" cx="807.5963" cy="-1655" rx="55.4913" ry="18"/>
<text text-anchor="middle" x="807.5963" y="-1651.3" font-family="Times,serif" font-size="14.00" fill="#000000">music_notes</text>
</g>
<!-- test_pitch_train&#45;&gt;music_notes -->
<g id="edge37" class="edge">
<title>test_pitch_train&#45;&gt;music_notes</title>
<path fill="none" stroke="#000000" d="M314.8216,-1953.5077C402.1621,-1900.5996 675.2769,-1735.1551 772.6653,-1676.1601"/>
<polygon fill="#000000" stroke="#000000" points="774.5218,-1679.1277 781.2615,-1670.9528 770.8949,-1673.1405 774.5218,-1679.1277"/>
</g>
<!-- random -->
<g id="node24" class="node">
<title>random</title>
<ellipse fill="none" stroke="#000000" cx="406.5963" cy="-1024" rx="38.1938" ry="18"/>
<text text-anchor="middle" x="406.5963" y="-1020.3" font-family="Times,serif" font-size="14.00" fill="#000000">random</text>
</g>
<!-- test_pitch_train&#45;&gt;random -->
<g id="edge38" class="edge">
<title>test_pitch_train&#45;&gt;random</title>
<path fill="none" stroke="#000000" d="M288.3968,-1951.7717C292.9998,-1847.0002 315.9148,-1325.9937 316.5963,-1322 334.0676,-1219.6139 376.0303,-1103.0044 395.8646,-1051.2321"/>
<polygon fill="#000000" stroke="#000000" points="399.1829,-1052.355 399.5226,-1041.7656 392.6534,-1049.8319 399.1829,-1052.355"/>
</g>
<!-- task_queue -->
<g id="node27" class="node">
<title>task_queue</title>
<ellipse fill="none" stroke="#000000" cx="151.5963" cy="-1655" rx="50.0912" ry="18"/>
<text text-anchor="middle" x="151.5963" y="-1651.3" font-family="Times,serif" font-size="14.00" fill="#000000">task_queue</text>
</g>
<!-- test_pitch_train&#45;&gt;task_queue -->
<g id="edge39" class="edge">
<title>test_pitch_train&#45;&gt;task_queue</title>
<path fill="none" stroke="#000000" d="M279.6965,-1951.7027C256.8264,-1898.7315 190.4681,-1745.034 163.351,-1682.2258"/>
<polygon fill="#000000" stroke="#000000" points="166.5256,-1680.7488 159.3484,-1672.9552 160.099,-1683.5235 166.5256,-1680.7488"/>
</g>
<!-- helpers -->
<g id="node31" class="node">
<title>helpers</title>
<ellipse fill="none" stroke="#000000" cx="255.5963" cy="-1655" rx="36.2938" ry="18"/>
<text text-anchor="middle" x="255.5963" y="-1651.3" font-family="Times,serif" font-size="14.00" fill="#000000">helpers</text>
</g>
<!-- test_pitch_train&#45;&gt;helpers -->
<g id="edge35" class="edge">
<title>test_pitch_train&#45;&gt;helpers</title>
<path fill="none" stroke="#000000" d="M285.7375,-1951.7027C280.3911,-1899.0736 264.9439,-1747.0151 258.4869,-1683.4541"/>
<polygon fill="#000000" stroke="#000000" points="261.953,-1682.9428 257.4602,-1673.3478 254.9889,-1683.6503 261.953,-1682.9428"/>
</g>
<!-- collection_inert&#45;&gt;collection -->
<g id="edge6" class="edge">
<title>collection_inert&#45;&gt;collection</title>
<path fill="none" stroke="#000000" d="M1318.5277,-1042.1686C1295.2073,-1095.4219 1214.5028,-1251.297 1178.1776,-1313.7134"/>
<polygon fill="#000000" stroke="#000000" points="1175.0237,-1312.1708 1172.948,-1322.5604 1181.0497,-1315.7329 1175.0237,-1312.1708"/>
</g>
<!-- event_filter -->
<g id="node6" class="node">
<title>event_filter</title>
<ellipse fill="none" stroke="#000000" cx="969.5963" cy="-1655" rx="51.1914" ry="18"/>
<text text-anchor="middle" x="969.5963" y="-1651.3" font-family="Times,serif" font-size="14.00" fill="#000000">event_filter</text>
</g>
<!-- every_so_often -->
<g id="node7" class="node">
<title>every_so_often</title>
<ellipse fill="none" stroke="#000000" cx="1032.5963" cy="-1340" rx="64.9885" ry="18"/>
<text text-anchor="middle" x="1032.5963" y="-1336.3" font-family="Times,serif" font-size="14.00" fill="#000000">every_so_often</text>
</g>
<!-- event_filter&#45;&gt;every_so_often -->
<g id="edge7" class="edge">
<title>event_filter&#45;&gt;every_so_often</title>
<path fill="none" stroke="#000000" d="M973.2558,-1636.7027C983.7816,-1584.0736 1014.1933,-1432.0151 1026.9055,-1368.4541"/>
<polygon fill="#000000" stroke="#000000" points="1030.3975,-1368.84 1028.9268,-1358.3478 1023.5335,-1367.4672 1030.3975,-1368.84"/>
</g>
<!-- fsynth -->
<g id="node8" class="node">
<title>fsynth</title>
<ellipse fill="none" stroke="#000000" cx="917.5963" cy="-1340" rx="32.4942" ry="18"/>
<text text-anchor="middle" x="917.5963" y="-1336.3" font-family="Times,serif" font-size="14.00" fill="#000000">fsynth</text>
</g>
<!-- native_onIncomingMidi -->
<g id="node9" class="node">
<title>native_onIncomingMidi</title>
<ellipse fill="none" stroke="#000000" cx="1144.5963" cy="-1024" rx="96.6831" ry="18"/>
<text text-anchor="middle" x="1144.5963" y="-1020.3" font-family="Times,serif" font-size="14.00" fill="#000000">native_onIncomingMidi</text>
</g>
<!-- fsynth&#45;&gt;native_onIncomingMidi -->
<g id="edge8" class="edge">
<title>fsynth&#45;&gt;native_onIncomingMidi</title>
<path fill="none" stroke="#000000" d="M929.8008,-1323.0105C967.269,-1270.8521 1080.8269,-1112.7715 1125.8841,-1050.0487"/>
<polygon fill="#000000" stroke="#000000" points="1128.7805,-1052.0157 1131.7722,-1041.852 1123.0953,-1047.9317 1128.7805,-1052.0157"/>
</g>
<!-- pitch -->
<g id="node10" class="node">
<title>pitch</title>
<ellipse fill="none" stroke="#000000" cx="1000.5963" cy="-394" rx="28.6953" ry="18"/>
<text text-anchor="middle" x="1000.5963" y="-390.3" font-family="Times,serif" font-size="14.00" fill="#000000">pitch</text>
</g>
<!-- fsynth&#45;&gt;pitch -->
<g id="edge9" class="edge">
<title>fsynth&#45;&gt;pitch</title>
<path fill="none" stroke="#000000" d="M924.3912,-1322.219C941.4329,-1276.5551 985.6891,-1151.0821 1000.5963,-1042 1033.0921,-804.216 1011.4296,-512.751 1003.305,-422.1908"/>
<polygon fill="#000000" stroke="#000000" points="1006.7838,-421.7988 1002.3858,-412.16 999.813,-422.4376 1006.7838,-421.7988"/>
</g>
<!-- sound_io_interface -->
<g id="node11" class="node">
<title>sound_io_interface</title>
<ellipse fill="none" stroke="#000000" cx="913.5963" cy="-1024" rx="77.9862" ry="18"/>
<text text-anchor="middle" x="913.5963" y="-1020.3" font-family="Times,serif" font-size="14.00" fill="#000000">sound_io_interface</text>
</g>
<!-- fsynth&#45;&gt;sound_io_interface -->
<g id="edge10" class="edge">
<title>fsynth&#45;&gt;sound_io_interface</title>
<path fill="none" stroke="#000000" d="M917.364,-1321.6446C916.6941,-1268.7239 914.7556,-1115.5871 913.9519,-1052.0948"/>
<polygon fill="#000000" stroke="#000000" points="917.4507,-1051.9671 913.8243,-1042.0123 910.4513,-1052.0558 917.4507,-1051.9671"/>
</g>
<!-- notation_strings -->
<g id="node22" class="node">
<title>notation_strings</title>
<ellipse fill="none" stroke="#000000" cx="1028.5963" cy="-79" rx="67.6881" ry="18"/>
<text text-anchor="middle" x="1028.5963" y="-75.3" font-family="Times,serif" font-size="14.00" fill="#000000">notation_strings</text>
</g>
<!-- pitch&#45;&gt;notation_strings -->
<g id="edge19" class="edge">
<title>pitch&#45;&gt;notation_strings</title>
<path fill="none" stroke="#000000" d="M1002.2227,-375.7027C1006.9009,-323.0736 1020.4172,-171.0151 1026.0671,-107.4541"/>
<polygon fill="#000000" stroke="#000000" points="1029.5662,-107.6184 1026.9654,-97.3478 1022.5937,-106.9986 1029.5662,-107.6184"/>
</g>
<!-- sound_io_interface&#45;&gt;pitch -->
<g id="edge30" class="edge">
<title>sound_io_interface&#45;&gt;pitch</title>
<path fill="none" stroke="#000000" d="M916.8938,-1005.9678C925.2792,-959.7277 947.7989,-833.1052 962.5963,-727 978.3013,-614.3874 992.171,-479.6729 997.8569,-422.2095"/>
<polygon fill="#000000" stroke="#000000" points="1001.3567,-422.383 998.8526,-412.0884 994.3903,-421.6976 1001.3567,-422.383"/>
</g>
<!-- incoming_pitch_listener_interface -->
<g id="node13" class="node">
<title>incoming_pitch_listener_interface</title>
<ellipse fill="none" stroke="#000000" cx="821.5963" cy="-709" rx="131.8766" ry="18"/>
<text text-anchor="middle" x="821.5963" y="-705.3" font-family="Times,serif" font-size="14.00" fill="#000000">incoming_pitch_listener_interface</text>
</g>
<!-- sound_io_interface&#45;&gt;incoming_pitch_listener_interface -->
<g id="edge29" class="edge">
<title>sound_io_interface&#45;&gt;incoming_pitch_listener_interface</title>
<path fill="none" stroke="#000000" d="M908.2523,-1005.7027C892.8495,-952.9649 848.2869,-800.3863 829.792,-737.0613"/>
<polygon fill="#000000" stroke="#000000" points="833.1183,-735.9655 826.955,-727.3478 826.399,-737.928 833.1183,-735.9655"/>
</g>
<!-- gui_tests -->
<g id="node12" class="node">
<title>gui_tests</title>
<ellipse fill="none" stroke="#000000" cx="1081.5963" cy="-1655" rx="42.4939" ry="18"/>
<text text-anchor="middle" x="1081.5963" y="-1651.3" font-family="Times,serif" font-size="14.00" fill="#000000">gui_tests</text>
</g>
<!-- gui_tests&#45;&gt;collection -->
<g id="edge11" class="edge">
<title>gui_tests&#45;&gt;collection</title>
<path fill="none" stroke="#000000" d="M1086.1851,-1636.7027C1099.4153,-1583.9495 1137.6995,-1431.2973 1153.5726,-1368.0059"/>
<polygon fill="#000000" stroke="#000000" points="1157.0554,-1368.5063 1156.0932,-1357.9552 1150.2657,-1366.8034 1157.0554,-1368.5063"/>
</g>
<!-- incoming_pitch_listener_interface&#45;&gt;pitch -->
<g id="edge12" class="edge">
<title>incoming_pitch_listener_interface&#45;&gt;pitch</title>
<path fill="none" stroke="#000000" d="M831.9938,-690.7027C862.2988,-637.3727 950.6199,-481.9473 985.8432,-419.9622"/>
<polygon fill="#000000" stroke="#000000" points="988.9353,-421.6049 990.8329,-411.1814 982.8493,-418.1465 988.9353,-421.6049"/>
</g>
<!-- lib -->
<g id="node14" class="node">
<title>lib</title>
<ellipse fill="none" stroke="#000000" cx="1423.5963" cy="-2285" rx="27" ry="18"/>
<text text-anchor="middle" x="1423.5963" y="-2281.3" font-family="Times,serif" font-size="14.00" fill="#000000">lib</text>
</g>
<!-- quarantined_awaiting_warning_fixes -->
<g id="node15" class="node">
<title>quarantined_awaiting_warning_fixes</title>
<ellipse fill="none" stroke="#000000" cx="1423.5963" cy="-1970" rx="141.8751" ry="18"/>
<text text-anchor="middle" x="1423.5963" y="-1966.3" font-family="Times,serif" font-size="14.00" fill="#000000">quarantined_awaiting_warning_fixes</text>
</g>
<!-- lib&#45;&gt;quarantined_awaiting_warning_fixes -->
<g id="edge13" class="edge">
<title>lib&#45;&gt;quarantined_awaiting_warning_fixes</title>
<path fill="none" stroke="#000000" d="M1423.5963,-2266.7027C1423.5963,-2214.0736 1423.5963,-2062.0151 1423.5963,-1998.4541"/>
<polygon fill="#000000" stroke="#000000" points="1427.0964,-1998.3478 1423.5963,-1988.3478 1420.0964,-1998.3478 1427.0964,-1998.3478"/>
</g>
<!-- sample_header_exempt_from_warnings -->
<g id="node25" class="node">
<title>sample_header_exempt_from_warnings</title>
<ellipse fill="none" stroke="#000000" cx="1423.5963" cy="-1655" rx="153.2729" ry="18"/>
<text text-anchor="middle" x="1423.5963" y="-1651.3" font-family="Times,serif" font-size="14.00" fill="#000000">sample_header_exempt_from_warnings</text>
</g>
<!-- quarantined_awaiting_warning_fixes&#45;&gt;sample_header_exempt_from_warnings -->
<g id="edge27" class="edge">
<title>quarantined_awaiting_warning_fixes&#45;&gt;sample_header_exempt_from_warnings</title>
<path fill="none" stroke="#000000" d="M1423.5963,-1951.7027C1423.5963,-1899.0736 1423.5963,-1747.0151 1423.5963,-1683.4541"/>
<polygon fill="#000000" stroke="#000000" points="1427.0964,-1683.3478 1423.5963,-1673.3478 1420.0964,-1683.3478 1427.0964,-1683.3478"/>
</g>
<!-- main -->
<g id="node16" class="node">
<title>main</title>
<ellipse fill="none" stroke="#000000" cx="1060.5963" cy="-2285" rx="28.6953" ry="18"/>
<text text-anchor="middle" x="1060.5963" y="-2281.3" font-family="Times,serif" font-size="14.00" fill="#000000">main</text>
</g>
<!-- logger -->
<g id="node17" class="node">
<title>logger</title>
<ellipse fill="none" stroke="#000000" cx="1230.5963" cy="-1970" rx="33.2948" ry="18"/>
<text text-anchor="middle" x="1230.5963" y="-1966.3" font-family="Times,serif" font-size="14.00" fill="#000000">logger</text>
</g>
<!-- main&#45;&gt;logger -->
<g id="edge14" class="edge">
<title>main&#45;&gt;logger</title>
<path fill="none" stroke="#000000" d="M1069.9784,-2267.6155C1098.2492,-2215.2314 1182.7389,-2058.6769 1216.4651,-1996.1844"/>
<polygon fill="#000000" stroke="#000000" points="1219.5739,-1997.7932 1221.2432,-1987.3307 1213.4138,-1994.4687 1219.5739,-1997.7932"/>
</g>
<!-- view_model_collection -->
<g id="node18" class="node">
<title>view_model_collection</title>
<ellipse fill="none" stroke="#000000" cx="890.5963" cy="-1970" rx="93.6835" ry="18"/>
<text text-anchor="middle" x="890.5963" y="-1966.3" font-family="Times,serif" font-size="14.00" fill="#000000">view_model_collection</text>
</g>
<!-- main&#45;&gt;view_model_collection -->
<g id="edge15" class="edge">
<title>main&#45;&gt;view_model_collection</title>
<path fill="none" stroke="#000000" d="M1051.2142,-2267.6155C1023.0759,-2215.4768 939.2439,-2060.1411 905.2048,-1997.0687"/>
<polygon fill="#000000" stroke="#000000" points="908.2,-1995.2491 900.3706,-1988.1111 902.0398,-1998.5736 908.2,-1995.2491"/>
</g>
<!-- view_model_collection&#45;&gt;event_filter -->
<g id="edge40" class="edge">
<title>view_model_collection&#45;&gt;event_filter</title>
<path fill="none" stroke="#000000" d="M895.1851,-1951.7027C908.4153,-1898.9495 946.6995,-1746.2973 962.5726,-1683.0059"/>
<polygon fill="#000000" stroke="#000000" points="966.0554,-1683.5063 965.0932,-1672.9552 959.2657,-1681.8034 966.0554,-1683.5063"/>
</g>
<!-- view_model_collection&#45;&gt;fsynth -->
<g id="edge41" class="edge">
<title>view_model_collection&#45;&gt;fsynth</title>
<path fill="none" stroke="#000000" d="M891.3752,-1951.8248C895.1704,-1863.2723 911.729,-1476.9033 916.3783,-1368.4195"/>
<polygon fill="#000000" stroke="#000000" points="919.8827,-1368.3897 916.8142,-1358.249 912.8891,-1368.0899 919.8827,-1368.3897"/>
</g>
<!-- view_model_collection&#45;&gt;gui_tests -->
<g id="edge42" class="edge">
<title>view_model_collection&#45;&gt;gui_tests</title>
<path fill="none" stroke="#000000" d="M901.6908,-1951.7027C933.9517,-1898.4976 1027.8284,-1743.6748 1065.5892,-1681.3992"/>
<polygon fill="#000000" stroke="#000000" points="1068.7529,-1682.932 1070.9449,-1672.5664 1062.7672,-1679.3026 1068.7529,-1682.932"/>
</g>
<!-- view_model_collection&#45;&gt;music_notes -->
<g id="edge43" class="edge">
<title>view_model_collection&#45;&gt;music_notes</title>
<path fill="none" stroke="#000000" d="M885.7751,-1951.7027C871.8751,-1898.9495 831.6524,-1746.2973 814.9756,-1683.0059"/>
<polygon fill="#000000" stroke="#000000" points="818.2599,-1681.7334 812.3274,-1672.9552 811.4909,-1683.517 818.2599,-1681.7334"/>
</g>
<!-- random_concrete -->
<g id="node26" class="node">
<title>random_concrete</title>
<ellipse fill="none" stroke="#000000" cx="619.5963" cy="-1340" rx="72.2875" ry="18"/>
<text text-anchor="middle" x="619.5963" y="-1336.3" font-family="Times,serif" font-size="14.00" fill="#000000">random_concrete</text>
</g>
<!-- view_model_collection&#45;&gt;random_concrete -->
<g id="edge45" class="edge">
<title>view_model_collection&#45;&gt;random_concrete</title>
<path fill="none" stroke="#000000" d="M880.8107,-1951.8889C856.1846,-1905.9747 790.2819,-1780.9952 743.5963,-1673 695.548,-1561.8526 648.2833,-1425.3826 628.847,-1367.7622"/>
<polygon fill="#000000" stroke="#000000" points="632.051,-1366.3088 625.5477,-1357.9447 625.4156,-1368.5387 632.051,-1366.3088"/>
</g>
<!-- qml_message_interceptor -->
<g id="node28" class="node">
<title>qml_message_interceptor</title>
<ellipse fill="none" stroke="#000000" cx="427.5963" cy="-1340" rx="102.0819" ry="18"/>
<text text-anchor="middle" x="427.5963" y="-1336.3" font-family="Times,serif" font-size="14.00" fill="#000000">qml_message_interceptor</text>
</g>
<!-- view_model_collection&#45;&gt;qml_message_interceptor -->
<g id="edge44" class="edge">
<title>view_model_collection&#45;&gt;qml_message_interceptor</title>
<path fill="none" stroke="#000000" d="M877.4854,-1952.1601C812.4289,-1863.6383 524.3234,-1471.6156 446.8394,-1366.1838"/>
<polygon fill="#000000" stroke="#000000" points="449.5558,-1363.9699 440.8136,-1357.9846 443.9153,-1368.1153 449.5558,-1363.9699"/>
</g>
<!-- music_notes&#45;&gt;fsynth -->
<g id="edge16" class="edge">
<title>music_notes&#45;&gt;fsynth</title>
<path fill="none" stroke="#000000" d="M813.9858,-1636.7027C832.4457,-1583.8405 885.9351,-1430.6661 907.9531,-1367.6147"/>
<polygon fill="#000000" stroke="#000000" points="911.3337,-1368.5501 911.3262,-1357.9552 904.725,-1366.2423 911.3337,-1368.5501"/>
</g>
<!-- pitch_training -->
<g id="node20" class="node">
<title>pitch_training</title>
<ellipse fill="none" stroke="#000000" cx="807.5963" cy="-1340" rx="59.5901" ry="18"/>
<text text-anchor="middle" x="807.5963" y="-1336.3" font-family="Times,serif" font-size="14.00" fill="#000000">pitch_training</text>
</g>
<!-- music_notes&#45;&gt;pitch_training -->
<g id="edge17" class="edge">
<title>music_notes&#45;&gt;pitch_training</title>
<path fill="none" stroke="#000000" d="M807.5963,-1636.7027C807.5963,-1584.0736 807.5963,-1432.0151 807.5963,-1368.4541"/>
<polygon fill="#000000" stroke="#000000" points="811.0964,-1368.3478 807.5963,-1358.3478 804.0964,-1368.3478 811.0964,-1368.3478"/>
</g>
<!-- wrap_qt_trace_category -->
<g id="node21" class="node">
<title>wrap_qt_trace_category</title>
<ellipse fill="none" stroke="#000000" cx="558.5963" cy="-1024" rx="95.5831" ry="18"/>
<text text-anchor="middle" x="558.5963" y="-1020.3" font-family="Times,serif" font-size="14.00" fill="#000000">wrap_qt_trace_category</text>
</g>
<!-- music_notes&#45;&gt;wrap_qt_trace_category -->
<g id="edge18" class="edge">
<title>music_notes&#45;&gt;wrap_qt_trace_category</title>
<path fill="none" stroke="#000000" d="M802.7356,-1637.0156C788.9038,-1586.5608 747.2982,-1439.6807 700.5963,-1322 659.8988,-1219.4494 600.1059,-1102.6094 572.9538,-1050.968"/>
<polygon fill="#000000" stroke="#000000" points="576.0381,-1049.3132 568.2758,-1042.1023 569.8471,-1052.58 576.0381,-1049.3132"/>
</g>
<!-- pitch_training&#45;&gt;pitch -->
<g id="edge23" class="edge">
<title>pitch_training&#45;&gt;pitch</title>
<path fill="none" stroke="#000000" d="M796.7063,-1322.1259C750.573,-1243.9655 578.2293,-925.6725 680.5963,-691 741.0896,-552.3213 901.7999,-449.3365 969.6637,-410.6963"/>
<polygon fill="#000000" stroke="#000000" points="971.5992,-413.6235 978.6032,-405.674 968.1706,-407.5206 971.5992,-413.6235"/>
</g>
<!-- pitch_training&#45;&gt;sound_io_interface -->
<g id="edge25" class="edge">
<title>pitch_training&#45;&gt;sound_io_interface</title>
<path fill="none" stroke="#000000" d="M813.7535,-1321.6446C831.5421,-1268.6146 883.0865,-1114.9539 904.3037,-1051.7024"/>
<polygon fill="#000000" stroke="#000000" points="907.6922,-1052.6062 907.5542,-1042.0123 901.0556,-1050.38 907.6922,-1052.6062"/>
</g>
<!-- pitch_training&#45;&gt;incoming_pitch_listener_interface -->
<g id="edge22" class="edge">
<title>pitch_training&#45;&gt;incoming_pitch_listener_interface</title>
<path fill="none" stroke="#000000" d="M808.0002,-1321.7959C809.968,-1233.1028 818.554,-846.1206 820.9648,-737.4646"/>
<polygon fill="#000000" stroke="#000000" points="824.468,-737.3532 821.1908,-727.278 817.4697,-737.1978 824.468,-737.3532"/>
</g>
<!-- pitch_training&#45;&gt;wrap_qt_trace_category -->
<g id="edge26" class="edge">
<title>pitch_training&#45;&gt;wrap_qt_trace_category</title>
<path fill="none" stroke="#000000" d="M793.4956,-1322.1051C751.7359,-1269.1088 628.5517,-1112.7788 579.2946,-1050.2677"/>
<polygon fill="#000000" stroke="#000000" points="581.7894,-1047.7787 572.851,-1042.0903 576.2912,-1052.1111 581.7894,-1047.7787"/>
</g>
<!-- pitch_training&#45;&gt;random -->
<g id="edge24" class="edge">
<title>pitch_training&#45;&gt;random</title>
<path fill="none" stroke="#000000" d="M786.0368,-1323.0105C718.3673,-1269.6849 510.2001,-1105.6429 434.4925,-1045.9831"/>
<polygon fill="#000000" stroke="#000000" points="436.3659,-1043.0032 426.3452,-1039.5627 432.0332,-1048.5012 436.3659,-1043.0032"/>
</g>
<!-- null_stream -->
<g id="node32" class="node">
<title>null_stream</title>
<ellipse fill="none" stroke="#000000" cx="558.5963" cy="-709" rx="52.7911" ry="18"/>
<text text-anchor="middle" x="558.5963" y="-705.3" font-family="Times,serif" font-size="14.00" fill="#000000">null_stream</text>
</g>
<!-- wrap_qt_trace_category&#45;&gt;null_stream -->
<g id="edge46" class="edge">
<title>wrap_qt_trace_category&#45;&gt;null_stream</title>
<path fill="none" stroke="#000000" d="M558.5963,-1005.7027C558.5963,-953.0736 558.5963,-801.0151 558.5963,-737.4541"/>
<polygon fill="#000000" stroke="#000000" points="562.0964,-737.3478 558.5963,-727.3478 555.0964,-737.3478 562.0964,-737.3478"/>
</g>
<!-- pitch_test -->
<g id="node23" class="node">
<title>pitch_test</title>
<ellipse fill="none" stroke="#000000" cx="1092.5963" cy="-709" rx="44.6926" ry="18"/>
<text text-anchor="middle" x="1092.5963" y="-705.3" font-family="Times,serif" font-size="14.00" fill="#000000">pitch_test</text>
</g>
<!-- pitch_test&#45;&gt;pitch -->
<g id="edge21" class="edge">
<title>pitch_test&#45;&gt;pitch</title>
<path fill="none" stroke="#000000" d="M1087.2523,-690.7027C1071.8132,-637.8405 1027.0766,-484.6661 1008.6616,-421.6147"/>
<polygon fill="#000000" stroke="#000000" points="1012.0036,-420.573 1005.8404,-411.9552 1005.2843,-422.5355 1012.0036,-420.573"/>
</g>
<!-- pitch_test&#45;&gt;notation_strings -->
<g id="edge20" class="edge">
<title>pitch_test&#45;&gt;notation_strings</title>
<path fill="none" stroke="#000000" d="M1090.7499,-690.8248C1081.7541,-602.2723 1042.5039,-215.9033 1031.4834,-107.4195"/>
<polygon fill="#000000" stroke="#000000" points="1034.943,-106.844 1030.4502,-97.249 1027.9789,-107.5516 1034.943,-106.844"/>
</g>
<!-- random_concrete&#45;&gt;random -->
<g id="edge28" class="edge">
<title>random_concrete&#45;&gt;random</title>
<path fill="none" stroke="#000000" d="M607.5342,-1322.1051C571.7174,-1268.9683 465.8785,-1111.9491 423.9683,-1049.7725"/>
<polygon fill="#000000" stroke="#000000" points="426.7563,-1047.6466 418.2646,-1041.3108 420.9518,-1051.5592 426.7563,-1047.6466"/>
</g>
<!-- task_queue&#45;&gt;qml_message_interceptor -->
<g id="edge31" class="edge">
<title>task_queue&#45;&gt;qml_message_interceptor</title>
<path fill="none" stroke="#000000" d="M166.8284,-1637.6155C212.7933,-1585.1556 350.2958,-1428.2234 404.8911,-1365.9136"/>
<polygon fill="#000000" stroke="#000000" points="407.7699,-1367.939 411.7275,-1358.1111 402.5049,-1363.3259 407.7699,-1367.939"/>
</g>
<!-- task -->
<g id="node29" class="node">
<title>task</title>
<ellipse fill="none" stroke="#000000" cx="133.5963" cy="-1024" rx="27" ry="18"/>
<text text-anchor="middle" x="133.5963" y="-1020.3" font-family="Times,serif" font-size="14.00" fill="#000000">task</text>
</g>
<!-- task_queue&#45;&gt;task -->
<g id="edge32" class="edge">
<title>task_queue&#45;&gt;task</title>
<path fill="none" stroke="#000000" d="M148.3976,-1637.0009C140.3762,-1590.8386 119.5512,-1464.3835 112.5963,-1358 105.1898,-1244.7096 121.3255,-1109.7693 129.3789,-1052.2372"/>
<polygon fill="#000000" stroke="#000000" points="132.8769,-1052.4992 130.8268,-1042.1046 125.9473,-1051.5089 132.8769,-1052.4992"/>
</g>
<!-- task_runner -->
<g id="node30" class="node">
<title>task_runner</title>
<ellipse fill="none" stroke="#000000" cx="173.5963" cy="-1340" rx="51.9908" ry="18"/>
<text text-anchor="middle" x="173.5963" y="-1336.3" font-family="Times,serif" font-size="14.00" fill="#000000">task_runner</text>
</g>
<!-- task_queue&#45;&gt;task_runner -->
<g id="edge33" class="edge">
<title>task_queue&#45;&gt;task_runner</title>
<path fill="none" stroke="#000000" d="M152.8742,-1636.7027C156.5499,-1584.0736 167.1699,-1432.0151 171.609,-1368.4541"/>
<polygon fill="#000000" stroke="#000000" points="175.1096,-1368.5674 172.3149,-1358.3478 168.1266,-1368.0796 175.1096,-1368.5674"/>
</g>
<!-- task_runner&#45;&gt;task -->
<g id="edge34" class="edge">
<title>task_runner&#45;&gt;task</title>
<path fill="none" stroke="#000000" d="M171.2728,-1321.6446C164.574,-1268.7239 145.1896,-1115.5871 137.1526,-1052.0948"/>
<polygon fill="#000000" stroke="#000000" points="140.6045,-1051.4935 135.8763,-1042.0123 133.6599,-1052.3726 140.6045,-1051.4935"/>
</g>
</g>
</svg>
